<?xml version="1.0" encoding="utf-8"?>
<!-- Generator: Adobe Illustrator 19.2.0, SVG Export Plug-In . SVG Version: 6.00 Build 0)  -->
<svg version="1.1" id="Layer_1" xmlns="http://www.w3.org/2000/svg" xmlns:xlink="http://www.w3.org/1999/xlink" x="0px" y="0px"
	 viewBox="0 0 414 2380.6" style="enable-background:new 0 0 414 2380.6;" xml:space="preserve">
<style type="text/css">
	.st0{fill:#99E2FF;}
	.st1{fill:none;}
	.st2{fill:#FFFFFF;}
	.st3{font-family:'CeraPro-Regular';}
	.st4{font-size:85.5782px;}
	.st5{font-size:54.0613px;}
	.st6{font-size:54.0618px;}
	.st7{fill:#FFE889;}
</style>
<g id="grosse-pluie_2_">
	<path class="st0" d="M9.9,265.5c-1.2,6.7-7.6,11.2-14.3,10c-6.7-1.2-11.2-7.6-10-14.3c1.2-6.7,17.2-27.1,17.2-27.1
		S11.1,258.8,9.9,265.5z"/>
	<path class="st0" d="M-1.8,183c-7.8,4.8-18,2.3-22.7-5.4c-4.8-7.8-2.3-18,5.4-22.7c7.8-4.8,42.6-6.7,42.6-6.7S6,178.2-1.8,183z"/>
	<path class="st0" d="M45.3,99.4c-2.8,7.9-11.5,12-19.4,9.1c-7.9-2.8-12-11.5-9.1-19.4C19.6,81.3,43.4,60,43.4,60
		S48.2,91.5,45.3,99.4z"/>
	<path class="st0" d="M20.8,1027.4c-3.2,8-12.2,11.9-20.2,8.7c-8-3.2-11.9-12.2-8.7-20.2c3.2-8,28.3-29.1,28.3-29.1
		S23.9,1019.4,20.8,1027.4z"/>
	<path class="st0" d="M16.3,939.7c-4.9,8.2-15.5,11-23.8,6.1c-8.2-4.9-11-15.5-6.1-23.8c4.9-8.2,36.2-27.1,36.2-27.1
		S21.2,931.4,16.3,939.7z"/>
	<path class="st0" d="M30.6,852.1c-7.5,4.7-17.4,2.4-22.1-5.1c-4.7-7.5-2.4-17.4,5.1-22.1c7.5-4.7,41.3-6.8,41.3-6.8
		S38.1,847.4,30.6,852.1z"/>
	<path class="st0" d="M73.3,765.3c-1.6,9-10.3,15-19.3,13.3c-9-1.6-15-10.3-13.3-19.3c1.6-9,23.4-36.3,23.4-36.3
		S74.9,756.3,73.3,765.3z"/>
	<path class="st0" d="M73.2,679.8c-3.3,6.9-11.6,9.8-18.5,6.5c-6.9-3.3-9.8-11.6-6.5-18.5c3.3-6.9,27-24.1,27-24.1
		S76.5,672.9,73.2,679.8z"/>
	<path class="st0" d="M89.4,602.7c-4.3,5.6-12.4,6.7-18,2.4c-5.6-4.3-6.7-12.4-2.4-18c4.3-5.6,29-16.7,29-16.7
		S93.7,597.1,89.4,602.7z"/>
	<path class="st0" d="M110.8,515.2c-1.9,7.5-9.5,11.9-17,10c-7.5-1.9-11.9-9.5-10-17c1.9-7.5,21.9-29,21.9-29
		S112.7,507.8,110.8,515.2z"/>
	<path class="st0" d="M131.7,437.5c-4.3,6.9-13.3,9-20.1,4.7c-6.9-4.3-9-13.3-4.7-20.1c4.3-6.9,31-22.2,31-22.2
		S136,430.7,131.7,437.5z"/>
	<path class="st0" d="M131.4,354.8c-7.3,5.2-17.4,3.6-22.7-3.7c-5.2-7.3-3.6-17.4,3.7-22.7c7.3-5.2,41.2-9.6,41.2-9.6
		S138.7,349.6,131.4,354.8z"/>
	<path class="st0" d="M126,272c-7.1,4.7-16.7,2.7-21.4-4.4c-4.7-7.1-2.7-16.7,4.4-21.4c7.1-4.7,39.5-7.5,39.5-7.5
		S133.1,267.3,126,272z"/>
	<path class="st0" d="M153.9,180.6c-4.2,6.3-12.7,8-19,3.8c-6.3-4.2-8-12.7-3.8-19c4.2-6.3,29.8-19.9,29.8-19.9
		S158.1,174.3,153.9,180.6z"/>
	<path class="st0" d="M188,99.9c-3.3,7.6-12.3,11.1-19.9,7.8c-7.6-3.3-11.1-12.3-7.8-19.9c3.3-7.6,28.4-27.2,28.4-27.2
		S191.3,92.3,188,99.9z"/>
	<path class="st0" d="M-15.9,1872.6c-6.4,3.9-14.8,1.8-18.7-4.6c-3.9-6.4-1.8-14.8,4.6-18.7c6.4-3.9,35.1-5.3,35.1-5.3
		S-9.5,1868.7-15.9,1872.6z"/>
	<path class="st0" d="M22.4,1797.4c-4.8,8-15.2,10.7-23.3,5.9c-8-4.8-10.7-15.2-5.9-23.3c4.8-8,35.5-26.4,35.5-26.4
		S27.2,1789.3,22.4,1797.4z"/>
	<path class="st0" d="M31.9,1708.9c-5.7,7.5-16.5,8.9-24,3.2c-7.5-5.7-8.9-16.5-3.2-24c5.7-7.5,38.6-22.3,38.6-22.3
		S37.6,1701.4,31.9,1708.9z"/>
	<path class="st0" d="M67.6,1623.8c-2.2,7.3-10,11.4-17.3,9.1c-7.3-2.2-11.4-10-9.1-17.3c2.2-7.3,23-27.7,23-27.7
		S69.8,1616.5,67.6,1623.8z"/>
	<path class="st0" d="M56.4,1534.3c-2.5,7.7-10.8,11.9-18.5,9.3c-7.7-2.5-11.9-10.8-9.3-18.5c2.5-7.7,25-29,25-29
		S59,1526.6,56.4,1534.3z"/>
	<path class="st0" d="M86.1,1457.9c-3.9,6.3-12.1,8.2-18.3,4.3c-6.3-3.9-8.2-12.1-4.3-18.3c3.9-6.3,28.2-20.2,28.2-20.2
		S90,1451.7,86.1,1457.9z"/>
	<path class="st0" d="M100.3,1363.3c-1.1,8.5-8.8,14.5-17.3,13.4c-8.5-1.1-14.5-8.8-13.4-17.3c1.1-8.5,20-35,20-35
		S101.3,1354.8,100.3,1363.3z"/>
	<path class="st0" d="M114.3,1289.4c-5.2,7-15.1,8.5-22.1,3.3c-7-5.2-8.5-15.1-3.3-22.1c5.2-7,35.4-21.3,35.4-21.3
		S119.5,1282.4,114.3,1289.4z"/>
	<path class="st0" d="M118.7,1199.3c-5.6,7.7-16.5,9.3-24.2,3.7c-7.7-5.6-9.3-16.5-3.7-24.2c5.6-7.7,38.6-23.3,38.6-23.3
		S124.3,1191.6,118.7,1199.3z"/>
	<path class="st0" d="M147.8,1106.9c-1.9,7.8-9.8,12.6-17.6,10.6c-7.8-1.9-12.6-9.8-10.6-17.6c1.9-7.8,22.6-30.5,22.6-30.5
		S149.8,1099.1,147.8,1106.9z"/>
	<path class="st0" d="M180,1020.8c-0.7,8.6-8.3,15-16.9,14.2c-8.6-0.7-15-8.3-14.2-16.9c0.7-8.6,18.8-36.2,18.8-36.2
		S180.7,1012.2,180,1020.8z"/>
	<path class="st0" d="M180.1,938.4c-3.8,6.6-12.3,8.8-18.8,4.9c-6.6-3.8-8.8-12.3-4.9-18.8c3.8-6.6,28.6-21.6,28.6-21.6
		S183.9,931.8,180.1,938.4z"/>
	<path class="st0" d="M204.1,850.7c-2.9,8.8-12.5,13.5-21.3,10.6c-8.8-2.9-13.5-12.5-10.6-21.3c2.9-8.8,28.8-33,28.8-33
		S207,841.9,204.1,850.7z"/>
	<path class="st0" d="M202.9,759.6c-4.7,7.9-14.8,10.5-22.7,5.8c-7.9-4.7-10.5-14.8-5.8-22.7c4.7-7.9,34.6-25.9,34.6-25.9
		S207.5,751.7,202.9,759.6z"/>
	<path class="st0" d="M199,672.1c-6.4,4.5-15.2,3-19.7-3.3c-4.5-6.4-3-15.2,3.3-19.7c6.4-4.5,36-8.2,36-8.2S205.4,667.6,199,672.1z"
		/>
	<path class="st0" d="M221.3,592.8c-5.1,7.5-15.2,9.4-22.7,4.4c-7.5-5.1-9.4-15.2-4.4-22.7c5.1-7.5,35.6-23.4,35.6-23.4
		S226.3,585.3,221.3,592.8z"/>
	<path class="st0" d="M234.7,509.9c-7.6,6.2-18.7,5.1-25-2.4c-6.2-7.6-5.1-18.7,2.4-25c7.6-6.2,44.2-13.5,44.2-13.5
		S242.2,503.7,234.7,509.9z"/>
	<path class="st0" d="M258.8,422.1c-5.6,5.3-14.5,5-19.8-0.7c-5.3-5.6-5-14.5,0.7-19.8c5.6-5.3,34.2-12.7,34.2-12.7
		S264.5,416.9,258.8,422.1z"/>
	<path class="st0" d="M280.7,338.8c-1.3,8.6-9.3,14.6-17.9,13.3c-8.6-1.3-14.6-9.3-13.3-17.9c1.3-8.6,21.1-35.2,21.1-35.2
		S282,330.2,280.7,338.8z"/>
	<path class="st0" d="M309.2,264.6c-5.2,7.9-15.9,10-23.7,4.8c-7.9-5.2-10-15.9-4.8-23.7c5.2-7.9,37.1-24.9,37.1-24.9
		S314.4,256.7,309.2,264.6z"/>
	<path class="st0" d="M304.8,175.1c-3.5,6.4-11.5,8.8-17.9,5.3c-6.4-3.5-8.8-11.5-5.3-17.9c3.5-6.4,26.8-21.6,26.8-21.6
		S308.3,168.7,304.8,175.1z"/>
	<path class="st0" d="M310.2,96.5c-4,6.9-12.7,9.2-19.6,5.3c-6.9-4-9.2-12.7-5.3-19.6c4-6.9,29.7-22.8,29.7-22.8
		S314.2,89.6,310.2,96.5z"/>
	<path class="st0" d="M112,2044.4c-7.8,5.8-18.8,4.3-24.6-3.5c-5.8-7.8-4.3-18.8,3.5-24.6c7.8-5.8,44.4-11.4,44.4-11.4
		S119.8,2038.6,112,2044.4z"/>
	<path class="st0" d="M120.6,1957.2c-4.6,6.9-13.9,8.8-20.8,4.1c-6.9-4.6-8.8-13.9-4.1-20.8c4.6-6.9,32.6-21.7,32.6-21.7
		S125.2,1950.3,120.6,1957.2z"/>
	<path class="st0" d="M145.1,1874.3c-6.1,4.9-15.1,3.9-20-2.2c-4.9-6.1-3.9-15.1,2.2-20c6.1-4.9,35.7-10.3,35.7-10.3
		S151.3,1869.4,145.1,1874.3z"/>
	<path class="st0" d="M142.3,1789.8c-7.7,5-18.1,2.8-23.1-4.9c-5-7.7-2.8-18.1,4.9-23.1c7.7-5,42.8-7.9,42.8-7.9
		S150,1784.8,142.3,1789.8z"/>
	<path class="st0" d="M177.7,1702.9c-5.4,6.8-15.4,7.9-22.2,2.5c-6.8-5.4-7.9-15.4-2.5-22.2c5.4-6.8,36-19.8,36-19.8
		S183.1,1696.1,177.7,1702.9z"/>
	<path class="st0" d="M201.8,1618.9c-2.2,7.1-9.8,11-16.8,8.8c-7.1-2.2-11-9.8-8.8-16.8c2.2-7.1,22.5-26.8,22.5-26.8
		S204,1611.9,201.8,1618.9z"/>
	<path class="st0" d="M53.9,2386.7c-6.1,4.9-15.1,3.9-20-2.2c-4.9-6.1-3.9-15.1,2.2-20c6.1-4.9,35.7-10.3,35.7-10.3
		S60,2381.8,53.9,2386.7z"/>
	<path class="st0" d="M51,2302.1c-7.7,5-18.1,2.8-23.1-4.9c-5-7.7-2.8-18.1,4.9-23.1c7.7-5,42.8-7.9,42.8-7.9S58.8,2297.1,51,2302.1
		z"/>
	<path class="st0" d="M86.4,2215.2c-5.4,6.8-15.4,7.9-22.2,2.5c-6.8-5.4-7.9-15.4-2.5-22.2c5.4-6.8,36-19.8,36-19.8
		S91.9,2208.4,86.4,2215.2z"/>
	<path class="st0" d="M110.6,2131.2c-2.2,7.1-9.8,11-16.8,8.8c-7.1-2.2-11-9.8-8.8-16.9c2.2-7.1,22.5-26.8,22.5-26.8
		S112.8,2124.2,110.6,2131.2z"/>
	<path class="st0" d="M200.2,1537.4c-4.7,7.2-14.4,9.2-21.7,4.5c-7.2-4.7-9.3-14.4-4.5-21.7c4.7-7.2,33.7-22.9,33.7-22.9
		S204.9,1530.2,200.2,1537.4z"/>
	<path class="st0" d="M209.2,1453.8c-5,5.7-13.6,6.3-19.4,1.4c-5.7-5-6.3-13.6-1.4-19.4c5-5.7,32-16,32-16
		S214.2,1448.1,209.2,1453.8z"/>
	<path class="st0" d="M224.4,1373.1c-7.5,5.7-18.2,4.3-23.9-3.2c-5.7-7.5-4.3-18.2,3.2-23.9c7.5-5.7,43-11.5,43-11.5
		S231.9,1367.4,224.4,1373.1z"/>
	<path class="st0" d="M245.5,1283.4c-3,6.1-10.4,8.6-16.5,5.6c-6.1-3-8.6-10.4-5.6-16.5c3-6.1,24.2-21.2,24.2-21.2
		S248.5,1277.2,245.5,1283.4z"/>
	<path class="st0" d="M275.5,1208.2c-5.5,5.5-14.4,5.5-19.8,0c-5.5-5.5-5.5-14.4,0-19.8c5.5-5.5,33.8-14,33.8-14
		S281,1202.7,275.5,1208.2z"/>
	<path class="st0" d="M265.2,1119.7c-5.9,4.6-14.4,3.5-19-2.4c-4.6-5.9-3.5-14.4,2.4-19c5.9-4.6,34.1-9.3,34.1-9.3
		S271.1,1115.1,265.2,1119.7z"/>
	<path class="st0" d="M295.7,1036.3c-5.5,7.9-16.3,9.8-24.2,4.3c-7.9-5.5-9.8-16.3-4.3-24.2c5.5-7.9,38.2-24.4,38.2-24.4
		S301.2,1028.5,295.7,1036.3z"/>
	<path class="st0" d="M332.9,941.4c-0.5,8.7-8,15.2-16.6,14.7c-8.7-0.5-15.2-8-14.7-16.6c0.5-8.7,18-36.8,18-36.8
		S333.4,932.8,332.9,941.4z"/>
	<path class="st0" d="M325.6,858.2c-5.1,6.4-14.4,7.4-20.7,2.4c-6.4-5.1-7.4-14.4-2.4-20.7c5.1-6.4,33.7-18.6,33.7-18.6
		S330.7,851.9,325.6,858.2z"/>
	<path class="st0" d="M330.2,775.9c-5.7,4.6-14,3.8-18.6-1.9c-4.6-5.7-3.8-14,1.9-18.6c5.7-4.6,33.1-9.9,33.1-9.9
		S335.9,771.3,330.2,775.9z"/>
	<path class="st0" d="M371.8,691.5c-3,8.8-12.5,13.5-21.3,10.6c-8.8-3-13.5-12.5-10.6-21.3c3-8.8,28.8-33,28.8-33
		S374.8,682.7,371.8,691.5z"/>
	<path class="st0" d="M364,607.5c-5.6,4.1-13.4,2.8-17.4-2.7c-4.1-5.6-2.8-13.4,2.7-17.4c5.6-4.1,31.6-7.6,31.6-7.6
		S369.5,603.5,364,607.5z"/>
	<path class="st0" d="M376.3,528.8c-7.4,4-16.7,1.2-20.7-6.2c-4-7.4-1.2-16.7,6.2-20.7c7.4-4,39.6-3.9,39.6-3.9
		S383.7,524.9,376.3,528.8z"/>
	<path class="st0" d="M393.4,437.3c-4,6.3-12.3,8.1-18.6,4.1c-6.3-4-8.1-12.3-4.1-18.6c4-6.3,28.8-20.1,28.8-20.1
		S397.4,431,393.4,437.3z"/>
	<path class="st0" d="M406.5,352.4c-4.3,5.8-12.4,7-18.2,2.7c-5.8-4.3-7-12.4-2.7-18.2c4.3-5.8,29.1-17.4,29.1-17.4
		S410.8,346.6,406.5,352.4z"/>
	<path class="st0" d="M434.6,267.8c-6.3,3.9-14.6,2-18.6-4.3c-3.9-6.3-2-14.6,4.3-18.6c6.3-3.9,34.6-5.8,34.6-5.8
		S440.9,263.9,434.6,267.8z"/>
	<path class="st0" d="M432.2,180.8c-3.3,7.4-12.1,10.8-19.5,7.4c-7.4-3.3-10.8-12.1-7.4-19.5c3.3-7.4,28-26.4,28-26.4
		S435.5,173.3,432.2,180.8z"/>
	<path class="st0" d="M297.1,1794.5c-2.9,7.1-11,10.5-18,7.6c-7.1-2.9-10.5-11-7.6-18c2.9-7.1,25.4-25.7,25.4-25.7
		S300,1787.4,297.1,1794.5z"/>
	<path class="st0" d="M325.5,1710.2c-5.9,3.3-13.3,1.3-16.7-4.6c-3.3-5.9-1.3-13.3,4.6-16.7c5.9-3.3,31.6-4,31.6-4
		S331.4,1706.8,325.5,1710.2z"/>
	<path class="st0" d="M324.4,1625.3c-4.6,5.3-12.6,5.9-18,1.3c-5.3-4.6-5.9-12.6-1.3-18c4.6-5.3,29.7-14.8,29.7-14.8
		S329,1620,324.4,1625.3z"/>
	<path class="st0" d="M347.7,1547.8c-5.9,3.7-13.7,1.9-17.4-4c-3.7-5.9-1.9-13.7,4-17.4c5.9-3.7,32.4-5.5,32.4-5.5
		S353.6,1544.1,347.7,1547.8z"/>
	<path class="st0" d="M365.8,1453.3c-1.2,9.2-9.6,15.6-18.8,14.4c-9.2-1.2-15.6-9.6-14.4-18.8c1.2-9.2,21.9-37.7,21.9-37.7
		S367,1444.1,365.8,1453.3z"/>
	<path class="st0" d="M386.4,1377.2c-3.9,6.6-12.4,8.7-18.9,4.8c-6.6-3.9-8.7-12.4-4.8-18.9c3.9-6.6,28.8-21.5,28.8-21.5
		S390.3,1370.7,386.4,1377.2z"/>
	<path class="st0" d="M416.6,1294.8c-1.8,8.3-9.9,13.5-18.1,11.7c-8.3-1.8-13.5-9.9-11.7-18.1c1.8-8.3,22.6-32.8,22.6-32.8
		S418.4,1286.6,416.6,1294.8z"/>
	<path class="st0" d="M188.3,2383.6c-2.9,7.1-11,10.5-18,7.6c-7.1-2.9-10.5-11-7.6-18c2.9-7.1,25.4-25.7,25.4-25.7
		S191.2,2376.5,188.3,2383.6z"/>
	<path class="st0" d="M216.8,2299.3c-5.9,3.3-13.3,1.3-16.7-4.6c-3.3-5.9-1.3-13.3,4.6-16.7c5.9-3.3,31.6-4,31.6-4
		S222.7,2295.9,216.8,2299.3z"/>
	<path class="st0" d="M215.7,2214.4c-4.6,5.3-12.6,5.9-18,1.3c-5.3-4.6-5.9-12.6-1.3-18c4.6-5.3,29.7-14.8,29.7-14.8
		S220.3,2209.1,215.7,2214.4z"/>
	<path class="st0" d="M239,2136.9c-5.9,3.7-13.7,1.9-17.4-4c-3.7-5.9-1.9-13.7,4-17.4c5.9-3.7,32.4-5.5,32.4-5.5
		S244.9,2133.2,239,2136.9z"/>
	<path class="st0" d="M257,2042.4c-1.2,9.2-9.6,15.6-18.8,14.4c-9.2-1.2-15.6-9.6-14.4-18.8c1.2-9.2,21.9-37.7,21.9-37.7
		S258.2,2033.2,257,2042.4z"/>
	<path class="st0" d="M277.6,1966.3c-3.9,6.6-12.4,8.7-18.9,4.8c-6.6-3.9-8.7-12.4-4.8-18.9c3.9-6.6,28.8-21.5,28.8-21.5
		S281.5,1959.8,277.6,1966.3z"/>
	<path class="st0" d="M307.9,1883.9c-1.8,8.3-9.9,13.5-18.1,11.7c-8.3-1.8-13.5-9.9-11.7-18.1c1.8-8.3,22.6-32.8,22.6-32.8
		S309.6,1875.7,307.9,1883.9z"/>
	<path class="st0" d="M367.5,2284.4c-2.9,7.1-11,10.5-18,7.6c-7.1-2.9-10.5-11-7.6-18c2.9-7.1,25.4-25.7,25.4-25.7
		S370.3,2277.3,367.5,2284.4z"/>
	<path class="st0" d="M395.9,2200.1c-5.9,3.3-13.3,1.3-16.7-4.6c-3.3-5.9-1.3-13.3,4.6-16.7c5.9-3.3,31.6-4,31.6-4
		S401.8,2196.8,395.9,2200.1z"/>
	<path class="st0" d="M394.8,2115.2c-4.6,5.3-12.6,5.9-18,1.3c-5.3-4.6-5.9-12.6-1.3-18c4.6-5.3,29.7-14.8,29.7-14.8
		S399.4,2109.9,394.8,2115.2z"/>
	<path class="st0" d="M418.1,2037.7c-5.9,3.7-13.7,1.9-17.4-4c-3.7-5.9-1.9-13.7,4-17.4c5.9-3.7,32.4-5.5,32.4-5.5
		S424,2034,418.1,2037.7z"/>
	<path class="st0" d="M436.1,1943.2c-1.2,9.2-9.6,15.6-18.8,14.4c-9.2-1.2-15.6-9.6-14.4-18.8c1.2-9.2,21.9-37.7,21.9-37.7
		S437.4,1934.1,436.1,1943.2z"/>
	<path class="st0" d="M425,1211.3c-4.8,7.6-14.9,9.8-22.4,5c-7.6-4.8-9.8-14.9-5-22.4c4.8-7.6,34.7-24.2,34.7-24.2
		S429.9,1203.8,425,1211.3z"/>
	<path class="st0" d="M418,1120.6c-6.9,4.6-16.2,2.8-20.8-4.1c-4.6-6.9-2.8-16.2,4.1-20.8c6.9-4.6,38.3-7.7,38.3-7.7
		S424.9,1116,418,1120.6z"/>
</g>
<g id="_x32__14_">
	<path class="st1" d="M-82.2,98.1C11,152.6,58.1,337.3,46,735c-8.4,277.9-50.3,1002.9,52,1317.8c69.5,213.9,124.8,230.2,194.1,255.9
		"/>
	<g>
		<text transform="matrix(1 0 0 1 107.895 1013.5049)" class="st2 st3 st4">?</text>
		<text transform="matrix(0.9543 -0.299 0.299 0.9543 94.2231 1011.9006)" class="st2 st3 st5">?</text>
		<text transform="matrix(0.9675 0.253 -0.253 0.9675 135.7556 1006.6489)" class="st2 st3 st6">?</text>
	</g>
</g>
<g id="_x32__13_">
	<path class="st1" d="M353.2,2307.8c0,0-165.7-20.3-211.7-271C57.8,1581.6,85.1,846.2,88.7,590.1C95,151.3-17.3,62.7-17.3,62.7"/>
	<g>
		<text transform="matrix(1 0 0 1 160.313 920.7844)" class="st2 st3 st4">?</text>
		<text transform="matrix(0.9543 -0.299 0.299 0.9543 146.6411 919.1803)" class="st2 st3 st5">?</text>
		<text transform="matrix(0.9675 0.253 -0.253 0.9675 188.1728 913.9282)" class="st2 st3 st6">?</text>
	</g>
</g>
<rect id="cache-ruche" x="182.5" y="2295.7" class="st7" width="363.9" height="32.6"/>
<g id="pluie-fine">
	<path class="st0" d="M-0.9,747.9c-2.7,4-8.1,5.1-12.2,2.4c-4-2.7-5.1-8.1-2.4-12.2c2.7-4,19-12.7,19-12.7S1.8,743.9-0.9,747.9z"/>
	<path class="st0" d="M14.3,687c-1.4,6.1-7.5,9.9-13.6,8.5c-6.1-1.4-9.9-7.5-8.5-13.6c1.4-6.1,17.2-24,17.2-24S15.7,680.9,14.3,687z
		"/>
	<path class="st0" d="M23.3,511.1c-4.1,3.8-10.5,3.6-14.4-0.5c-3.8-4.1-3.6-10.5,0.5-14.4c4.1-3.8,24.8-9.3,24.8-9.3
		S27.4,507.2,23.3,511.1z"/>
	<path class="st0" d="M39.8,388.5c-4,3.2-9.8,2.6-13-1.4c-3.2-4-2.6-9.8,1.4-13c4-3.2,23-6.8,23-6.8S43.8,385.3,39.8,388.5z"/>
	<path class="st0" d="M73,271.6c-5.1,4.1-12.6,3.3-16.8-1.8c-4.1-5.1-3.3-12.6,1.8-16.8c5.1-4.1,29.9-8.7,29.9-8.7
		S78.1,267.5,73,271.6z"/>
	<path class="st0" d="M99.4,155.3c-5.1,3.3-11.8,1.8-15.1-3.3c-3.3-5.1-1.8-11.8,3.3-15.1c5.1-3.3,28-5,28-5S104.4,152.1,99.4,155.3
		z"/>
	<path class="st0" d="M0.3,1556.9c-2.1,4.8-7.8,7-12.6,4.9c-4.8-2.1-7-7.8-4.9-12.6c2.1-4.8,18-17.2,18-17.2S2.4,1552.1,0.3,1556.9z
		"/>
	<path class="st0" d="M13.6,1491.3c-0.7,6.6-6.6,11.3-13.2,10.6c-6.6-0.7-11.3-6.6-10.6-13.2c0.7-6.6,15-27.3,15-27.3
		S14.3,1484.8,13.6,1491.3z"/>
	<path class="st0" d="M9,1433.2c-2.1,6.3-8.9,9.6-15.1,7.5c-6.3-2.1-9.6-8.9-7.5-15.1c2.1-6.3,20.5-23.5,20.5-23.5
		S11.1,1427,9,1433.2z"/>
	<path class="st0" d="M19.1,1364.8c-0.4,4.9-4.7,8.6-9.6,8.2c-4.9-0.4-8.6-4.7-8.2-9.6c0.4-4.9,10.7-20.7,10.7-20.7
		S19.5,1359.8,19.1,1364.8z"/>
	<path class="st0" d="M41.4,1247.2c-0.5,5-4.9,8.6-9.9,8.2c-5-0.5-8.6-4.9-8.2-9.9c0.5-5,11.2-20.9,11.2-20.9
		S41.9,1242.2,41.4,1247.2z"/>
	<path class="st0" d="M55.3,1196c-4.9,3.7-11.9,2.7-15.6-2.2c-3.7-4.9-2.7-11.9,2.2-15.6c4.9-3.7,28.1-7.2,28.1-7.2
		S60.2,1192.3,55.3,1196z"/>
	<path class="st0" d="M78.8,1128.2c-1.5,5.2-6.9,8.3-12.2,6.8c-5.2-1.5-8.3-6.9-6.8-12.2c1.5-5.2,16-20.1,16-20.1
		S80.3,1123,78.8,1128.2z"/>
	<path class="st0" d="M79.3,1067.7c-4.3,2.9-10.1,1.7-13-2.5c-2.9-4.3-1.7-10.1,2.5-13c4.3-2.9,23.9-4.8,23.9-4.8
		S83.6,1064.8,79.3,1067.7z"/>
	<path class="st0" d="M83.6,1002.3c-3.5,4.4-9.9,5.1-14.3,1.6c-4.4-3.5-5.1-9.9-1.6-14.3c3.5-4.4,23.2-12.8,23.2-12.8
		S87.1,997.9,83.6,1002.3z"/>
	<path class="st0" d="M98.6,879.2c-4.9,2.9-11.3,1.3-14.2-3.6c-2.9-4.9-1.3-11.3,3.6-14.2c4.9-2.9,26.7-3.8,26.7-3.8
		S103.5,876.3,98.6,879.2z"/>
	<path class="st0" d="M138,762.6c-4,5.6-11.8,6.9-17.5,2.9c-5.6-4-6.9-11.8-2.9-17.5c4-5.6,27.7-17.3,27.7-17.3S142,757,138,762.6z"
		/>
	<path class="st0" d="M132.7,698.9c-5.5,4.2-13.3,3.1-17.5-2.4c-4.2-5.5-3.1-13.3,2.4-17.5c5.5-4.2,31.4-8.2,31.4-8.2
		S138.2,694.8,132.7,698.9z"/>
	<path class="st0" d="M151,578.3c-5.7,3-12.8,0.8-15.8-4.9c-3-5.7-0.8-12.8,4.9-15.8c5.7-3,30.4-2.8,30.4-2.8S156.8,575.3,151,578.3
		z"/>
	<path class="st0" d="M179.4,517.7c-3,5.2-9.7,7-14.9,4c-5.2-3-7-9.7-4-14.9c3-5.2,22.6-17.4,22.6-17.4S182.4,512.4,179.4,517.7z"/>
	<path class="st0" d="M178.1,459.9c-4.5,3.5-11,2.7-14.6-1.8c-3.5-4.5-2.7-11,1.8-14.6c4.5-3.5,26.1-7.1,26.1-7.1
		S182.7,456.3,178.1,459.9z"/>
	<path class="st0" d="M200.6,336.5c-2.9,5.7-9.8,8-15.5,5.2c-5.7-2.9-8-9.8-5.2-15.5c2.9-5.7,22.8-19.8,22.8-19.8
		S203.4,330.8,200.6,336.5z"/>
	<path class="st0" d="M239.5,218.2c-1.2,6.2-7.1,10.3-13.4,9.2c-6.2-1.2-10.3-7.1-9.2-13.4c1.2-6.2,16.3-25.1,16.3-25.1
		S240.7,212,239.5,218.2z"/>
	<path class="st0" d="M36,2095.2c-5.8,3.9-13.6,2.3-17.5-3.4c-3.9-5.8-2.3-13.6,3.4-17.5c5.8-3.9,32.3-6.5,32.3-6.5
		S41.7,2091.3,36,2095.2z"/>
	<path class="st0" d="M42.7,2033.1c-3.7,5.7-11.3,7.4-17.1,3.7c-5.7-3.7-7.4-11.3-3.7-17.1c3.7-5.7,26.5-18.3,26.5-18.3
		S46.4,2027.4,42.7,2033.1z"/>
	<path class="st0" d="M62.4,1967.5c-1,5.8-6.5,9.6-12.3,8.6c-5.8-1-9.6-6.5-8.6-12.3c1-5.8,14.9-23.3,14.9-23.3
		S63.4,1961.7,62.4,1967.5z"/>
	<path class="st0" d="M92.5,1846.5c-1.8,5.9-8,9.3-13.9,7.5c-5.9-1.8-9.3-8-7.5-13.9c1.8-5.9,18.5-22.6,18.5-22.6
		S94.3,1840.6,92.5,1846.5z"/>
	<path class="st0" d="M86.4,1783.3c-1.7,6-8,9.5-14,7.8c-6-1.7-9.5-8-7.8-14c1.7-6,18.4-23.2,18.4-23.2S88.1,1777.2,86.4,1783.3z"/>
	<path class="st0" d="M100.4,1662c-4.6,3.8-11.4,3.1-15.2-1.4c-3.8-4.6-3.1-11.4,1.4-15.2c4.6-3.8,26.8-8.2,26.8-8.2
		S104.9,1658.3,100.4,1662z"/>
	<path class="st0" d="M125.5,1601.9c-4,3.4-10,2.9-13.5-1.1c-3.4-4-2.9-10,1.1-13.5c4-3.4,23.7-7.6,23.7-7.6
		S129.5,1598.5,125.5,1601.9z"/>
	<path class="st0" d="M137.5,1547.6c-3.7,5.7-11.3,7.4-17,3.7c-5.7-3.7-7.4-11.3-3.7-17c3.7-5.7,26.4-18.4,26.4-18.4
		S141.2,1541.8,137.5,1547.6z"/>
	<path class="st0" d="M149.2,1422.4c-4,5.2-11.4,6.1-16.6,2.1c-5.2-4-6.1-11.4-2.1-16.6c4-5.2,26.7-15.3,26.7-15.3
		S153.1,1417.3,149.2,1422.4z"/>
	<path class="st0" d="M179.3,1362.7c-0.5,4.9-4.8,8.4-9.7,8c-4.9-0.5-8.4-4.8-8-9.7c0.5-4.9,10.9-20.4,10.9-20.4
		S179.8,1357.8,179.3,1362.7z"/>
	<path class="st0" d="M179.6,1247.9c-4.7,4.3-12,3.9-16.3-0.8c-4.3-4.7-3.9-12,0.8-16.3c4.7-4.3,28.3-10,28.3-10
		S184.3,1243.7,179.6,1247.9z"/>
	<path class="st0" d="M195.5,1186.9c-2.6,4.6-8.5,6.3-13.1,3.7c-4.6-2.6-6.3-8.5-3.7-13.1c2.6-4.6,19.8-15.5,19.8-15.5
		S198.1,1182.3,195.5,1186.9z"/>
	<path class="st0" d="M228.7,1071.1c-1.9,5.4-7.9,8.2-13.3,6.3c-5.4-1.9-8.2-7.9-6.3-13.3c1.9-5.4,18.2-20,18.2-20
		S230.7,1065.7,228.7,1071.1z"/>
	<path class="st0" d="M220.1,1016.2c-4.2,5.5-12.2,6.5-17.7,2.3c-5.5-4.2-6.5-12.2-2.3-17.7c4.2-5.5,28.5-16.4,28.5-16.4
		S224.3,1010.6,220.1,1016.2z"/>
	<path class="st0" d="M249,960.8c-3.4,6-11,8-17,4.6c-6-3.4-8-11-4.6-17c3.4-6,25.7-19.8,25.7-19.8S252.4,954.8,249,960.8z"/>
	<path class="st0" d="M259.6,842.3c-4.9,5-12.9,5-17.9,0c-5-4.9-5-12.9,0-17.9c4.9-5,30.4-12.7,30.4-12.7S264.5,837.3,259.6,842.3z"
		/>
	<path class="st0" d="M269.1,775.4c-4.6,2.8-10.6,1.3-13.4-3.3c-2.8-4.6-1.3-10.6,3.3-13.4c4.6-2.8,25.2-3.7,25.2-3.7
		S273.7,772.6,269.1,775.4z"/>
	<path class="st0" d="M300.1,712.9c-1.5,6.7-8.2,10.9-14.9,9.3c-6.7-1.5-10.9-8.2-9.3-14.9c1.5-6.7,18.8-26.4,18.8-26.4
		S301.6,706.2,300.1,712.9z"/>
	<path class="st0" d="M316.8,589c-1.3,4.7-6.2,7.5-11,6.2c-4.7-1.3-7.5-6.2-6.2-11c1.3-4.7,14.4-18.2,14.4-18.2
		S318.1,584.2,316.8,589z"/>
	<path class="st0" d="M324.5,457c-0.9,4.7-5.3,7.8-10,7c-4.7-0.9-7.8-5.3-7-10c0.9-4.7,12.2-18.9,12.2-18.9S325.4,452.3,324.5,457z"
		/>
	<path class="st0" d="M346.4,334.5c-1.4,4.6-6.3,7.2-11,5.7c-4.6-1.4-7.2-6.3-5.7-11c1.4-4.6,14.6-17.5,14.6-17.5
		S347.8,329.9,346.4,334.5z"/>
	<path class="st0" d="M370.7,276.6c-0.8,5.5-5.8,9.3-11.3,8.6c-5.5-0.8-9.3-5.8-8.6-11.3c0.8-5.5,13.3-22.6,13.3-22.6
		S371.4,271.1,370.7,276.6z"/>
	<path class="st0" d="M375.5,155.1c-4.3,2.4-9.8,0.9-12.2-3.4c-2.4-4.3-0.9-9.8,3.4-12.2c4.3-2.4,23.1-2.8,23.1-2.8
		S379.8,152.6,375.5,155.1z"/>
	<path class="st0" d="M225.2,1799.3c-4.3,2.4-9.7,0.8-12.1-3.6c-2.4-4.3-0.8-9.7,3.6-12.1c4.3-2.4,23.1-2.4,23.1-2.4
		S229.5,1796.9,225.2,1799.3z"/>
	<path class="st0" d="M265.4,1674.9c-0.7,6-6.1,10.4-12.1,9.7c-6-0.7-10.4-6.1-9.7-12.1c0.7-6,13.8-25.1,13.8-25.1
		S266.1,1668.9,265.4,1674.9z"/>
	<path class="st0" d="M276.2,1558c-4.6,5-12.4,5.3-17.5,0.7c-5-4.6-5.3-12.4-0.7-17.5c4.6-5,29.2-13.5,29.2-13.5
		S280.9,1552.9,276.2,1558z"/>
	<path class="st0" d="M289.5,1497.7c-2.2,6.3-9.1,9.6-15.4,7.3c-6.3-2.2-9.6-9.1-7.3-15.4c2.2-6.3,21-23.3,21-23.3
		S291.7,1491.4,289.5,1497.7z"/>
	<path class="st0" d="M303.1,1438.9c-4.3,2.5-9.8,1.1-12.3-3.2c-2.5-4.3-1.1-9.8,3.2-12.3c4.3-2.5,23.1-3.2,23.1-3.2
		S307.4,1436.3,303.1,1438.9z"/>
	<path class="st0" d="M362.8,1924.8c-4.3,2.4-9.7,0.8-12.1-3.6c-2.4-4.3-0.8-9.7,3.6-12.1c4.3-2.4,23.1-2.4,23.1-2.4
		S367.1,1922.5,362.8,1924.8z"/>
	<path class="st0" d="M375.5,1862.7c-2,5.6-8.2,8.5-13.8,6.4c-5.6-2-8.5-8.2-6.4-13.8c2-5.6,19-20.7,19-20.7
		S377.6,1857.1,375.5,1862.7z"/>
	<path class="st0" d="M402.9,1800.5c-0.7,6-6.1,10.4-12.1,9.7c-6-0.7-10.4-6.1-9.7-12.1c0.7-6,13.8-25.1,13.8-25.1
		S403.6,1794.5,402.9,1800.5z"/>
	<path class="st0" d="M402.8,1744.4c-5.3,4-12.9,2.9-16.9-2.4c-4-5.3-2.9-12.9,2.4-16.9c5.3-4,30.4-7.7,30.4-7.7
		S408.1,1740.4,402.8,1744.4z"/>
	<path class="st0" d="M427.1,1623.2c-2.2,6.3-9.1,9.6-15.4,7.3c-6.3-2.2-9.6-9.1-7.3-15.4c2.2-6.3,21-23.3,21-23.3
		S429.3,1617,427.1,1623.2z"/>
	<path class="st0" d="M148.1,2243.1c-2,5.6-8.2,8.5-13.8,6.4c-5.6-2-8.5-8.2-6.4-13.8c2-5.6,19-20.7,19-20.7
		S150.1,2237.5,148.1,2243.1z"/>
	<path class="st0" d="M175.5,2180.9c-0.7,6-6.1,10.4-12.1,9.7c-6-0.7-10.4-6.1-9.7-12.1c0.7-6,13.8-25.1,13.8-25.1
		S176.1,2174.9,175.5,2180.9z"/>
	<path class="st0" d="M145.1,2370.2c-0.7,6-6.1,10.4-12.1,9.7c-6-0.7-10.4-6.1-9.7-12.1c0.7-6,13.8-25.1,13.8-25.1
		S145.7,2364.2,145.1,2370.2z"/>
	<path class="st0" d="M186.3,2063.9c-4.6,5-12.4,5.3-17.5,0.7c-5-4.6-5.3-12.4-0.7-17.5c4.6-5,29.2-13.5,29.2-13.5
		S190.9,2058.9,186.3,2063.9z"/>
	<path class="st0" d="M199.6,2003.6c-2.2,6.3-9.1,9.6-15.4,7.3c-6.3-2.2-9.6-9.1-7.3-15.4c2.2-6.3,21-23.3,21-23.3
		S201.8,1997.4,199.6,2003.6z"/>
	<path class="st0" d="M225,1882.8c-4.2,5.5-12.1,6.5-17.6,2.3c-5.5-4.2-6.5-12.1-2.3-17.6c4.2-5.5,28.4-16.3,28.4-16.3
		S229.2,1877.3,225,1882.8z"/>
	<path class="st0" d="M315.2,1305.5c-2.1,5.1-7.8,7.5-12.9,5.4c-5.1-2.1-7.5-7.8-5.4-12.9c2.1-5.1,18.1-18.3,18.1-18.3
		S317.3,1300.4,315.2,1305.5z"/>
	<path class="st0" d="M335.6,1245.3c-4.2,2.4-9.5,0.9-11.9-3.3c-2.4-4.2-0.9-9.5,3.3-11.9c4.2-2.4,22.6-2.8,22.6-2.8
		S339.8,1242.9,335.6,1245.3z"/>
	<path class="st0" d="M334.8,1184.7c-3.3,3.8-9,4.2-12.8,0.9c-3.8-3.3-4.2-9-0.9-12.8c3.3-3.8,21.2-10.6,21.2-10.6
		S338.1,1180.9,334.8,1184.7z"/>
	<path class="st0" d="M351.4,1129.3c-4.2,2.7-9.8,1.4-12.4-2.8c-2.7-4.2-1.4-9.8,2.8-12.4c4.2-2.7,23.2-3.9,23.2-3.9
		S355.6,1126.6,351.4,1129.3z"/>
	<path class="st0" d="M364.3,1061.8c-0.9,6.5-6.9,11.1-13.4,10.3c-6.5-0.9-11.1-6.9-10.3-13.4c0.9-6.5,15.7-26.9,15.7-26.9
		S365.2,1055.2,364.3,1061.8z"/>
	<path class="st0" d="M400.6,948.6c-1.3,5.9-7.1,9.7-13,8.4c-5.9-1.3-9.7-7.1-8.4-13c1.3-5.9,16.2-23.4,16.2-23.4
		S401.9,942.7,400.6,948.6z"/>
	<path class="st0" d="M406.7,889c-3.4,5.4-10.6,7-16,3.5c-5.4-3.4-7-10.6-3.5-16c3.4-5.4,24.8-17.3,24.8-17.3S410.1,883.6,406.7,889
		z"/>
	<path class="st0" d="M401.6,824.2c-4.9,3.3-11.6,2-14.9-2.9c-3.3-4.9-2-11.6,2.9-14.9c4.9-3.3,27.4-5.5,27.4-5.5
		S406.6,820.9,401.6,824.2z"/>
	<path class="st0" d="M431.7,696.8c-0.5,5.4-5.3,9.4-10.7,8.9c-5.4-0.5-9.4-5.3-8.9-10.7c0.5-5.4,12-22.7,12-22.7
		S432.2,691.4,431.7,696.8z"/>
</g>
<path class="st1" d="M-15.3-28.5c173,251.5,182,491.9,190.9,636.8c3,49.6-26.7,59.3-21.1,77.8c13.5,44.6,130.6,44,143.7,72.2
	c23.5,50.4-140.7,67.5-128.5,92.8c12.8,26.4,132.4,45.5,157.8,64.5c29.1,21.8-113.6,53.6-90.6,85.3c12.5,17.2,61.6,13.1,81.1,20.5
	c19.3,7.4-0.6,30.3-0.6,30.3"/>
</svg>
