<?xml version="1.0" encoding="utf-8"?>
<!-- Generator: Adobe Illustrator 19.2.0, SVG Export Plug-In . SVG Version: 6.00 Build 0)  -->
<svg version="1.1" id="Layer_1" xmlns="http://www.w3.org/2000/svg" xmlns:xlink="http://www.w3.org/1999/xlink" x="0px" y="0px"
	 viewBox="0 0 414 4215" style="enable-background:new 0 0 414 4215;" xml:space="preserve">
<style type="text/css">
	.st0{fill:#FFFFFF;}
	.st1{fill:#55BD8B;}
	.st2{fill:#666666;}
	.st3{fill:none;}
	.st4{fill:#55BC8A;}
</style>
<title>mobile_section_3</title>
<g>
	<g id="home_mobile">
		<g id="_2">
			<g id="ANIM_abeilles_decors_wiggle">
				<g>
					<path id="_Path_" class="st0" d="M326.9,1453.2L326.9,1453.2c0,0-4.5,2.1-11.2,5.5c-7.8,3.9-22.1,11.9-19.2,22.4
						c4.2,12,26.8,16.6,30-21.1C326.7,1457.6,326.8,1455.3,326.9,1453.2z"/>
					<path id="_Path_2" class="st0" d="M306.3,1439.4L306.3,1439.4c0,0-0.2,5-0.9,12.4c-0.7,8.7-2.7,25-13.6,26.2
						c-12.7,0.6-25.5-18.6,8.2-35.7C302.2,1441.1,304.3,1440.2,306.3,1439.4z"/>
					<g id="_Group_">
						<polygon id="_Path_3" class="st1" points="312.5,1465.5 300.3,1457.3 294.9,1463.5 308.8,1472.9 						"/>
						<polygon id="_Path_4" class="st2" points="315.7,1458.7 305.4,1451.8 305.4,1451.8 305.4,1451.8 300.3,1457.3 312.5,1465.5 
													"/>
						<path id="_Path_5" class="st2" d="M308.8,1472.9l-13.9-9.4c-0.7,1-1.4,2-2.1,3c-0.9,1.3-1.5,2.7-1.8,4.3l12.5,8.4
							c1.3-0.9,2.4-2,3.3-3.3C307.4,1474.9,308.1,1473.9,308.8,1472.9z"/>
						<path id="_Path_6" class="st1" d="M291.9,1478L291.9,1478c0.4,1,0.9,1.9,1.5,2.7c1,0.2,2.1,0.4,3.1,0.4l0,0
							c2.4,0.1,4.9-0.5,6.9-1.9l-12.5-8.4C290.5,1473.3,290.8,1475.8,291.9,1478z"/>
					</g>
					<polygon id="_Path_7" class="st1" points="305.4,1451.8 306.3,1439.4 317.4,1433.9 327.7,1440.8 326.9,1453.2 315.7,1458.7 
											"/>
				</g>
				<g>
					<path id="_Path_8" class="st0" d="M78.9,3900.2L78.9,3900.2c0,0-3.9-0.6-9.7-1.6c-6.8-1.2-19.5-4.1-19.6-12.7
						c0.5-10.1,16.7-18.7,27.5,9.3C77.8,3896.9,78.3,3898.6,78.9,3900.2z"/>
					<path id="_Path_9" class="st0" d="M66.3,3915.4L66.3,3915.4c0,0-1.3-3.7-3.4-9.2c-2.5-6.4-7.7-18.4-16.2-16.9
						c-9.8,2.4-15.2,19.9,14.3,25.3C62.8,3914.9,64.6,3915.1,66.3,3915.4z"/>
					<g id="_Group_2">
						<polygon id="_Path_10" class="st1" points="65.2,3894.1 57.7,3903.1 52.2,3899.5 60.7,3889.3 						"/>
						<polygon id="_Path_11" class="st2" points="69.1,3898.5 62.9,3906.1 62.9,3906.1 62.9,3906.1 57.7,3903.1 65.2,3894.1 						
							"/>
						<path id="_Path_12" class="st2" d="M60.7,3889.3l-8.5,10.2c-0.7-0.6-1.5-1.2-2.3-1.8c-1-0.8-1.8-1.8-2.3-2.9l7.6-9.2
							c1.2,0.4,2.3,1,3.2,1.8C59.2,3888,59.9,3888.7,60.7,3889.3z"/>
						<path id="_Path_13" class="st1" d="M46.7,3889.2L46.7,3889.2c0.1-0.8,0.3-1.6,0.6-2.4c0.7-0.4,1.5-0.7,2.3-1l0,0
							c1.8-0.6,3.8-0.7,5.7-0.1l-7.6,9.2C46.7,3893.1,46.4,3891.2,46.7,3889.2z"/>
					</g>
					<polygon id="_Path_14" class="st1" points="62.9,3906.1 66.3,3915.4 76,3917 82.3,3909.4 78.9,3900.2 69.1,3898.5 					"/>
				</g>
				<g>
					<path id="_Path_15" class="st0" d="M-8.9,3989.1L-8.9,3989.1c0,0,3.6,1.7,8.8,4.4c6.1,3.2,17.4,9.6,15,17.9
						c-3.4,9.5-21.4,13-23.6-17C-8.8,3992.6-8.8,3990.8-8.9,3989.1z"/>
					<path id="_Path_16" class="st0" d="M7.6,3978.3L7.6,3978.3c0,0,0.2,3.9,0.6,9.8c0.5,6.9,1.9,19.9,10.5,20.9
						c10,0.6,20.4-14.5-6.2-28.4C10.8,3979.7,9.1,3979,7.6,3978.3z"/>
					<g id="_Group_3">
						<polygon id="_Path_17" class="st1" points="2.4,3999 12.2,3992.6 16.4,3997.6 5.3,4004.9 						"/>
						<polygon id="_Path_18" class="st2" points="-0.1,3993.5 8.2,3988.1 8.2,3988.1 8.2,3988.1 12.2,3992.6 2.4,3999 						"/>
						<path id="_Path_19" class="st2" d="M5.3,4004.9l11.1-7.3c0.5,0.8,1.1,1.6,1.6,2.4c0.7,1,1.2,2.2,1.4,3.4l-10,6.6
							c-1-0.7-1.9-1.6-2.6-2.6C6.3,4006.5,5.8,4005.7,5.3,4004.9z"/>
						<path id="_Path_20" class="st1" d="M18.7,4009L18.7,4009c-0.3,0.8-0.8,1.5-1.3,2.2c-0.8,0.2-1.6,0.3-2.5,0.3l0,0
							c-1.9,0.1-3.8-0.5-5.5-1.5l10-6.6C19.8,4005.3,19.5,4007.2,18.7,4009z"/>
					</g>
					<polygon id="_Path_21" class="st1" points="8.2,3988.1 7.6,3978.3 -1.2,3973.9 -9.4,3979.3 -8.9,3989.1 -0.1,3993.5 					"/>
				</g>
				<g>
					<path id="_Path_22" class="st0" d="M74.1,2644.1L74.1,2644.1c0,0,0.5-4.9,1-12.4c0.6-8.7,1.2-25.1-9.4-28
						c-12.4-2.5-28,14.5,2.7,36.6C70.4,2641.8,72.3,2643,74.1,2644.1z"/>
					<path id="_Path_23" class="st0" d="M96.6,2633.6L96.6,2633.6c0,0-4.1-2.8-10.2-7.1c-7.1-5.1-20-15.1-15.5-25.1
						c6-11.2,29-12.3,26.4,25.4C97.1,2629.2,96.8,2631.5,96.6,2633.6z"/>
					<g id="_Group_4">
						<polygon id="_Path_24" class="st1" points="70.9,2625.5 84.2,2619.2 81.7,2611.4 66.5,2618.5 						"/>
						<polygon id="_Path_25" class="st2" points="75.1,2631.8 86.3,2626.5 86.3,2626.5 86.4,2626.5 84.2,2619.2 70.9,2625.5 						
							"/>
						<path id="_Path_26" class="st2" d="M66.5,2618.5l15.2-7.1c-0.5-1.1-1-2.2-1.5-3.3c-0.7-1.4-1.6-2.7-2.7-3.7l-13.6,6.4
							c0.1,1.6,0.5,3.1,1.1,4.5C65.4,2616.3,66,2617.4,66.5,2618.5z"/>
						<path id="_Path_27" class="st1" d="M70.8,2601.4L70.8,2601.4c-1-0.1-2.1-0.2-3.2-0.1c-0.8,0.8-1.4,1.6-2,2.5l0,0
							c-1.4,2-2.1,4.4-2,6.9l13.6-6.4C75.5,2602.7,73.2,2601.7,70.8,2601.4z"/>
					</g>
					<polygon id="_Path_28" class="st1" points="86.4,2626.5 96.6,2633.6 95.5,2645.9 84.2,2651.2 74.1,2644.1 75.1,2631.8 					"/>
				</g>
				<g>
					<path id="_Path_29" class="st0" d="M217.3,3016.2L217.3,3016.2c0,0,0.7,4.9,2,12.3c1.5,8.6,5,24.6,16,24.8
						c12.7-0.6,23.6-20.9-11.6-34.8C221.4,3017.6,219.3,3016.9,217.3,3016.2z"/>
					<path id="_Path_30" class="st0" d="M198.1,3032L198.1,3032c0,0,4.7,1.7,11.6,4.4c8.1,3.2,23.1,9.7,21.2,20.5
						c-3.1,12.3-25.1,19.1-31.9-18.1C198.6,3036.4,198.3,3034.1,198.1,3032z"/>
					<g id="_Group_5">
						<polygon id="_Path_31" class="st1" points="224.9,3033.5 213.5,3042.9 218,3049.9 230.9,3039.2 						"/>
						<polygon id="_Path_32" class="st2" points="219.3,3028.5 209.7,3036.4 209.7,3036.4 209.7,3036.4 213.5,3042.9 224.9,3033.5 
													"/>
						<path id="_Path_33" class="st2" d="M230.9,3039.2l-12.9,10.6c0.7,0.9,1.5,1.9,2.3,2.9c1,1.2,2.2,2.2,3.6,3l11.6-9.5
							c-0.5-1.5-1.2-2.9-2.2-4.1C232.5,3041.1,231.7,3040.2,230.9,3039.2z"/>
						<path id="_Path_34" class="st1" d="M230.9,3056.9L230.9,3056.9c1-0.1,2.1-0.4,3.1-0.7c0.5-0.9,1-1.9,1.3-2.9l0,0
							c0.8-2.3,0.9-4.8,0.2-7.2l-11.6,9.5C226,3056.8,228.5,3057.2,230.9,3056.9z"/>
					</g>
					<polygon id="_Path_35" class="st1" points="209.7,3036.4 198.1,3032 196,3019.8 205.6,3011.9 217.3,3016.2 219.3,3028.5 					
						"/>
				</g>
				<g>
					<path id="_Path_36" class="st0" d="M120.4,3534.3L120.4,3534.3c0,0-0.4,5-0.7,12.4c-0.4,8.7-0.4,25.1,10.2,27.7
						c12.5,2.2,27.6-15.2-3.7-36.5C124.1,3536.6,122.2,3535.4,120.4,3534.3z"/>
					<path id="_Path_37" class="st0" d="M98.2,3545.5L98.2,3545.5c0,0,4.2,2.6,10.4,6.8c7.2,4.9,20.5,14.6,16.2,24.6
						c-5.7,11.4-28.7,13.2-27.1-24.6C97.8,3549.9,98,3547.6,98.2,3545.5z"/>
					<g id="_Group_6">
						<polygon id="_Path_38" class="st1" points="124.1,3552.8 110.9,3559.5 113.7,3567.3 128.6,3559.7 						"/>
						<polygon id="_Path_39" class="st2" points="119.7,3546.7 108.6,3552.3 108.6,3552.3 108.6,3552.3 110.9,3559.5 124.1,3552.8 
													"/>
						<path id="_Path_40" class="st2" d="M128.6,3559.7l-15,7.6c0.5,1.1,1.1,2.2,1.6,3.3c0.7,1.4,1.7,2.6,2.8,3.7l13.4-6.8
							c-0.1-1.6-0.5-3.1-1.2-4.5C129.8,3561.9,129.2,3560.8,128.6,3559.7z"/>
						<path id="_Path_41" class="st1" d="M124.8,3576.9L124.8,3576.9c1,0.1,2.1,0.1,3.2,0c0.7-0.8,1.3-1.6,1.9-2.5l0,0
							c1.3-2.1,1.9-4.5,1.8-7l-13.4,6.8C120,3575.8,122.4,3576.7,124.8,3576.9z"/>
					</g>
					<polygon id="_Path_42" class="st1" points="108.6,3552.3 98.2,3545.5 98.9,3533.1 110,3527.5 120.4,3534.3 119.7,3546.7 					
						"/>
				</g>
				<g>
					<path id="_Path_43" class="st0" d="M279.1,928.5L279.1,928.5c0,0,0.2-5,0.2-12.4c0.1-8.7-0.5-25.1-11.2-27.3
						c-12.6-1.7-27,16.3,5.1,36.3C275.3,926.4,277.3,927.5,279.1,928.5z"/>
					<path id="_Path_44" class="st0" d="M300.9,916.5L300.9,916.5c0,0-4.3-2.5-10.6-6.4c-7.4-4.6-21-13.8-17.1-24
						c5.2-11.6,28.2-14.2,28,23.6C301.1,912.1,301,914.4,300.9,916.5z"/>
					<g id="_Group_7">
						<polygon id="_Path_45" class="st1" points="274.8,910.1 287.7,903 284.6,895.3 269.9,903.4 						"/>
						<polygon id="_Path_46" class="st2" points="279.4,916.1 290.2,910.1 290.2,910.1 290.2,910.1 287.7,903 274.8,910.1 						"/>
						<path id="_Path_47" class="st2" d="M269.9,903.4l14.7-8.1c-0.6-1.1-1.1-2.1-1.7-3.2c-0.8-1.4-1.8-2.6-3-3.5l-13.2,7.3
							c0.2,1.6,0.7,3,1.4,4.4C268.7,901.3,269.3,902.4,269.9,903.4z"/>
						<path id="_Path_48" class="st1" d="M273.1,886L273.1,886c-1.1-0.1-2.1,0-3.1,0.1c-0.7,0.8-1.3,1.7-1.8,2.6l0,0
							c-1.2,2.1-1.7,4.6-1.5,7l13.2-7.3C277.9,887,275.6,886.2,273.1,886z"/>
					</g>
					<polygon id="_Path_49" class="st1" points="290.2,910.1 300.9,916.5 300.7,928.9 289.8,934.9 279.1,928.5 279.4,916.1 					"/>
				</g>
				<g>
					<path id="_Path_50" class="st0" d="M309.7,1234.4L309.7,1234.4c0,0,0.2-5,0.2-12.4c0.1-8.7-0.5-25.1-11.2-27.3
						c-12.6-1.7-27,16.3,5.1,36.3C305.8,1232.3,307.8,1233.4,309.7,1234.4z"/>
					<path id="_Path_51" class="st0" d="M331.4,1222.4L331.4,1222.4c0,0-4.3-2.5-10.6-6.4c-7.4-4.6-21-13.8-17.1-24
						c5.2-11.6,28.2-14.2,28,23.6C331.7,1218,331.6,1220.3,331.4,1222.4z"/>
					<g id="_Group_8">
						<polygon id="_Path_52" class="st1" points="305.3,1216.1 318.2,1208.9 315.1,1201.2 300.5,1209.3 						"/>
						<polygon id="_Path_53" class="st2" points="309.9,1222 320.8,1216 320.8,1216 320.8,1216 318.2,1208.9 305.3,1216.1 						"/>
						<path id="_Path_54" class="st2" d="M300.5,1209.3l14.7-8.1c-0.6-1.1-1.1-2.1-1.7-3.2c-0.8-1.4-1.8-2.6-3-3.6l-13.2,7.3
							c0.2,1.6,0.7,3,1.4,4.4C299.2,1207.2,299.9,1208.3,300.5,1209.3z"/>
						<path id="_Path_55" class="st1" d="M303.7,1192L303.7,1192c-1.1-0.1-2.1,0-3.1,0.1c-0.7,0.8-1.3,1.7-1.8,2.6l0,0
							c-1.2,2.1-1.7,4.6-1.5,7l13.2-7.3C308.4,1193,306.1,1192.1,303.7,1192z"/>
					</g>
					<polygon id="_Path_56" class="st1" points="320.8,1216 331.4,1222.4 331.2,1234.8 320.3,1240.8 309.7,1234.4 309.9,1222 					
						"/>
				</g>
				<g>
					<path id="_Path_57" class="st0" d="M129.1,580.4L129.1,580.4c0,0,0.9,4.9,2.4,12.2c1.8,8.5,5.8,24.4,16.7,24.3
						c12.6-1,23-21.6-12.6-34.4C133.4,581.7,131.2,581,129.1,580.4z"/>
					<path id="_Path_58" class="st0" d="M110.4,596.8L110.4,596.8c0,0,4.7,1.5,11.8,4c8.2,2.9,23.4,9,21.8,19.8
						c-2.7,12.4-24.5,19.9-32.4-17.1C111.1,601.1,110.8,598.8,110.4,596.8z"/>
					<g id="_Group_9">
						<polygon id="_Path_59" class="st1" points="137.3,597.5 126.2,607.1 130.9,614 143.5,603 						"/>
						<polygon id="_Path_60" class="st2" points="131.5,592.6 122.2,600.8 122.2,600.8 122.2,600.8 126.2,607.1 137.3,597.5 						
							"/>
						<path id="_Path_61" class="st2" d="M143.5,603l-12.6,11c0.8,0.9,1.6,1.9,2.4,2.8c1,1.2,2.3,2.1,3.7,2.8l11.3-9.9
							c-0.5-1.5-1.3-2.8-2.3-4C145.1,604.8,144.3,603.9,143.5,603z"/>
						<path id="_Path_62" class="st1" d="M144,620.6L144,620.6c1-0.2,2-0.4,3-0.8c0.5-0.9,0.9-1.9,1.2-2.9l0,0
							c0.7-2.3,0.7-4.8,0-7.2l-11.3,9.9C139.1,620.7,141.6,621,144,620.6z"/>
					</g>
					<polygon id="_Path_63" class="st1" points="122.2,600.8 110.4,596.8 108,584.6 117.4,576.4 129.1,580.4 131.5,592.6 					"/>
				</g>
				<g>
					<path id="_Path_64" class="st0" d="M58.2,268.3L58.2,268.3c0,0,4.9-0.9,12.2-2.4c8.5-1.8,24.4-5.8,24.3-16.7
						c-1-12.6-21.6-23-34.4,12.7C59.4,264.1,58.8,266.3,58.2,268.3z"/>
					<path id="_Path_65" class="st0" d="M74.5,287L74.5,287c0,0,1.5-4.7,4-11.8c2.9-8.2,9-23.4,19.8-21.8
						c12.4,2.7,19.9,24.5-17.1,32.4C78.9,286.4,76.6,286.7,74.5,287z"/>
					<g id="_Group_10">
						<polygon id="_Path_66" class="st1" points="75.2,260.2 84.9,271.3 91.8,266.6 80.7,254 						"/>
						<polygon id="_Path_67" class="st2" points="70.4,265.9 78.5,275.3 78.5,275.3 78.5,275.3 84.9,271.3 75.2,260.2 						"/>
						<path id="_Path_68" class="st2" d="M80.7,254l11,12.6c0.9-0.8,1.8-1.6,2.8-2.4c1.2-1,2.1-2.3,2.8-3.7l-9.9-11.3
							c-1.5,0.5-2.8,1.3-4,2.3C82.5,252.4,81.6,253.2,80.7,254z"/>
						<path id="_Path_69" class="st1" d="M98.4,253.4L98.4,253.4c-0.2-1-0.4-2-0.8-3c-0.9-0.5-1.9-0.9-2.9-1.2l0,0
							c-2.3-0.7-4.8-0.7-7.2,0l9.9,11.3C98.4,258.4,98.8,255.9,98.4,253.4z"/>
					</g>
					<polygon id="_Path_70" class="st1" points="78.5,275.3 74.5,287 62.3,289.5 54.2,280.1 58.2,268.3 70.4,265.9 					"/>
				</g>
			</g>
			<path id="abeille_x5F_Z_x5F_2" class="st3" d="M-8,2529.2c96.8,4.4,265.4,48.6,328.9,158.1c67,115.4,81.3,268.3,38.6,591
				c-45.3,342.2-219.1,393.6-128,531.6"/>
			<g id="ANIM_danse">
				<g id="danseuses">
					<g>
						<path id="_Path_71" class="st0" d="M211.9,2194.2L211.9,2194.2c0,0-1.8,2.9-4.3,7.4c-2.9,5.2-8.1,15.2-2.4,20.1
							c7,5.2,21.6-0.8,9-23.4C213.5,2196.7,212.7,2195.4,211.9,2194.2z"/>
						<path id="_Path_72" class="st0" d="M194.9,2194.1L194.9,2194.1c0,0,1.8,2.9,4.2,7.4c2.9,5.2,8,15.2,2.3,20.1
							c-7,5.2-21.6-0.8-8.9-23.5C193.3,2196.7,194.1,2195.4,194.9,2194.1z"/>
						<g id="_Group_11">
							<polygon id="_Path_73" class="st4" points="208.4,2206.6 198.3,2206.6 197.6,2212.2 209.1,2212.3 							"/>
							<polygon id="_Path_74" class="st2" points="207.6,2201.5 199.1,2201.5 199.1,2201.5 199.1,2201.5 198.3,2206.6 208.4,2206.6 
															"/>
							<path id="_Path_75" class="st2" d="M209.1,2212.3h-11.5c0,0.8,0,1.7,0,2.5c0,1.1,0.2,2.1,0.6,3.1h10.3c0.4-1,0.6-2,0.6-3.1
								C209.1,2213.9,209.1,2213.1,209.1,2212.3z"/>
							<path id="_Path_76" class="st4" d="M201.4,2221.6L201.4,2221.6c0.6,0.4,1.3,0.7,1.9,1c0.7-0.3,1.3-0.6,1.9-1l0,0
								c1.4-0.9,2.6-2.2,3.2-3.7h-10.3C198.9,2219.4,200,2220.7,201.4,2221.6z"/>
						</g>
						<polygon id="_Path_77" class="st4" points="199.1,2201.5 194.9,2194.1 199.1,2186.8 207.6,2186.8 211.9,2194.2 207.6,2201.5 
													"/>
					</g>
					<g>
						<path id="_Path_78" class="st0" d="M171.8,2198.4L171.8,2198.4c0,0-3.2,2.6-7.9,6.6c-5.5,4.7-15.5,14-11,21.9
							c5.8,8.8,24.9,8.1,20-22.9C172.6,2202,172.2,2200.1,171.8,2198.4z"/>
						<path id="_Path_79" class="st0" d="M152.4,2191.3L152.4,2191.3c0,0,0.8,4,1.8,10.2c1.1,7.1,2.8,20.6-5.7,23.8
							c-10.1,3-24.2-9.9-0.4-30.4C149.6,2193.5,151,2192.4,152.4,2191.3z"/>
						<g id="_Group_12">
							<polygon id="_Path_80" class="st4" points="162.7,2211.1 151.2,2206.9 148.1,2213 161.1,2217.8 							"/>
							<polygon id="_Path_81" class="st2" points="163.9,2205 154.2,2201.4 154.2,2201.4 154.2,2201.4 151.2,2206.9 162.7,2211.1 
															"/>
							<path id="_Path_82" class="st2" d="M161.1,2217.8L148,2213c-0.4,0.9-0.7,1.9-1.1,2.9c-0.5,1.2-0.7,2.5-0.6,3.8l11.7,4.3
								c0.9-1,1.6-2.1,2-3.3C160.4,2219.7,160.8,2218.8,161.1,2217.8z"/>
							<path id="_Path_83" class="st4" d="M148.5,2225.2L148.5,2225.2c0.5,0.7,1.1,1.3,1.8,1.9c0.9,0,1.7-0.1,2.6-0.3l0,0
								c2-0.4,3.8-1.4,5.2-2.9l-11.7-4.3C146.5,2221.7,147.2,2223.7,148.5,2225.2z"/>
						</g>
						<polygon id="_Path_84" class="st4" points="154.2,2201.4 152.4,2191.3 160.3,2184.7 170,2188.2 171.8,2198.4 163.9,2205 
													"/>
					</g>
					<g>
						<path id="_Path_85" class="st0" d="M137.2,2173.5L137.2,2173.5c0,0-3.3,1.1-8.3,3c-5.8,2.2-16.5,6.7-15.2,14.4
							c2.1,8.8,17.7,13.8,22.8-12.6C136.8,2176.6,137,2175,137.2,2173.5z"/>
						<path id="_Path_86" class="st0" d="M123.7,2162.1L123.7,2162.1c0,0-0.6,3.5-1.6,8.7c-1.2,6.1-3.8,17.4-11.6,17.5
							c-9-0.5-16.6-15.1,8.5-24.6C120.7,2163.1,122.3,2162.6,123.7,2162.1z"/>
						<g id="_Group_13">
							<polygon id="_Path_87" class="st4" points="126.1,2181.1 118.1,2174.4 113.8,2178.4 122.9,2186 							"/>
							<polygon id="_Path_88" class="st2" points="128.9,2176.5 122.2,2170.8 122.2,2170.8 122.2,2170.8 118.1,2174.4 126.1,2181.1 
															"/>
							<path id="_Path_89" class="st2" d="M122.9,2186l-9.1-7.7c-0.6,0.7-1.1,1.3-1.7,2c-0.7,0.8-1.3,1.8-1.6,2.9l8.2,6.9
								c1-0.5,1.9-1.2,2.6-2.1C121.8,2187.3,122.4,2186.7,122.9,2186z"/>
							<path id="_Path_90" class="st4" d="M110.6,2188.3L110.6,2188.3c0.2,0.7,0.5,1.4,0.9,2.1c0.7,0.3,1.4,0.4,2.2,0.5l0,0
								c1.7,0.3,3.5,0,5-0.8l-8.2-6.9C110,2184.9,110,2186.6,110.6,2188.3z"/>
						</g>
						<polygon id="_Path_91" class="st4" points="122.2,2170.8 123.7,2162.1 132,2159.1 138.8,2164.8 137.2,2173.5 128.9,2176.5 
													"/>
					</g>
					<g>
						<path id="_Path_92" class="st0" d="M95.9,2110.6L95.9,2110.6c0,0-3.8-1.5-9.7-3.5c-6.8-2.4-19.8-6.4-24.4,1.4
							c-4.8,9.4,5.4,25.6,29.8,5.9C93.2,2113,94.7,2111.8,95.9,2110.6z"/>
						<path id="_Path_93" class="st0" d="M92.4,2090.3L92.4,2090.3c0,0-3.1,2.7-7.9,6.6c-5.6,4.6-16.5,12.7-23.5,6.9
							c-7.7-7.2-3.5-25.9,26.1-15.6C89,2088.9,90.8,2089.6,92.4,2090.3z"/>
						<g id="_Group_14">
							<polygon id="_Path_94" class="st4" points="80.3,2109.1 78.2,2097 71.4,2097.4 73.8,2111.1 							"/>
							<polygon id="_Path_95" class="st2" points="86.3,2107.1 84.5,2096.9 84.5,2096.9 84.5,2096.9 78.2,2097 80.3,2109.1 							
								"/>
							<path id="_Path_96" class="st2" d="M73.8,2111.1l-2.4-13.7l-3,0.5c-1.3,0.2-2.5,0.7-3.6,1.4l2.1,12.3
								c1.3,0.3,2.6,0.3,3.8,0.1L73.8,2111.1z"/>
							<path id="_Path_97" class="st4" d="M61,2103.9L61,2103.9c-0.3,0.8-0.6,1.6-0.8,2.5c0.4,0.8,1,1.5,1.5,2.1l0,0
								c1.3,1.5,3.1,2.6,5.1,3.1l-2.1-12.3C63.1,2100.4,61.7,2102,61,2103.9z"/>
						</g>
						<polygon id="_Path_98" class="st4" points="84.5,2096.9 92.4,2090.3 102.1,2093.8 103.9,2104 95.9,2110.6 86.3,2107.1 						
							"/>
					</g>
					<g>
						<path id="_Path_99" class="st0" d="M70.2,2064.9L70.2,2064.9c0,0-2.6-2.2-6.5-5.5c-4.6-3.8-13.6-10.6-19.4-5.8
							c-6.4,6-3,21.5,21.6,13C67.4,2066,68.8,2065.4,70.2,2064.9z"/>
						<path id="_Path_100" class="st0" d="M73.2,2048L73.2,2048c0,0-3.2,1.2-8,2.9c-5.7,2-16.5,5.2-20.3-1.2
							c-3.9-7.8,4.6-21.2,24.8-4.8C70.9,2046,72.1,2047,73.2,2048z"/>
						<g id="_Group_15">
							<polygon id="_Path_101" class="st4" points="58.5,2059.2 60.2,2049.3 54.8,2047.6 52.8,2058.9 							"/>
							<polygon id="_Path_102" class="st2" points="63.6,2059.4 65.1,2050.9 65.1,2050.9 65.1,2050.9 60.2,2049.3 58.5,2059.2 
															"/>
							<path id="_Path_103" class="st2" d="M52.8,2058.9l2-11.3l-2.5-0.5c-1.1-0.2-2.1-0.2-3.2,0.1l-1.8,10.2c0.9,0.6,1.9,1,3,1.2
								L52.8,2058.9z"/>
							<path id="_Path_104" class="st4" d="M44.9,2049.7L44.9,2049.7c-0.5,0.5-0.9,1.1-1.3,1.7c0.1,0.7,0.3,1.4,0.6,2.1l0,0
								c0.6,1.6,1.7,2.9,3.1,3.8l1.8-10.2C47.5,2047.6,46,2048.4,44.9,2049.7z"/>
						</g>
						<polygon id="_Path_105" class="st4" points="65.1,2050.9 73.2,2048 79.7,2053.5 78.2,2062 70.2,2064.9 63.6,2059.4 						"/>
					</g>
					<g>
						<path id="_Path_106" class="st0" d="M317.6,2048.7L317.6,2048.7c0,0,3.8,1.5,9.7,3.5c6.8,2.4,19.8,6.4,24.4-1.4
							c4.8-9.4-5.5-25.6-29.9-5.8C320.4,2046.3,319,2047.6,317.6,2048.7z"/>
						<path id="_Path_107" class="st0" d="M321.2,2069.1L321.2,2069.1c0,0,3.1-2.7,7.9-6.6c5.6-4.6,16.5-12.7,23.5-6.9
							c7.6,7.2,3.5,25.9-26.1,15.6C324.6,2070.4,322.8,2069.7,321.2,2069.1z"/>
						<g id="_Group_16">
							<polygon id="_Path_108" class="st4" points="333.2,2050.3 335.4,2062.3 342.2,2062 339.8,2048.3 							"/>
							<polygon id="_Path_109" class="st2" points="327.3,2052.3 329.1,2062.4 329.1,2062.4 329.1,2062.4 335.4,2062.3 
								333.2,2050.3 							"/>
							<path id="_Path_110" class="st2" d="M339.8,2048.3l2.4,13.7l3-0.5c1.3-0.2,2.5-0.7,3.6-1.4l-2.1-12.3
								c-1.3-0.3-2.6-0.3-3.9-0.1L339.8,2048.3z"/>
							<path id="_Path_111" class="st4" d="M352.6,2055.5L352.6,2055.5c0.3-0.8,0.6-1.6,0.8-2.5c-0.4-0.8-1-1.5-1.5-2.1l0,0
								c-1.3-1.5-3.1-2.6-5.1-3.1l2.1,12.3C350.5,2059,351.8,2057.4,352.6,2055.5z"/>
						</g>
						<polygon id="_Path_112" class="st4" points="329.1,2062.4 321.2,2069.1 311.5,2065.5 309.7,2055.4 317.6,2048.7 327.3,2052.3 
													"/>
					</g>
					<g>
						<path id="_Path_113" class="st0" d="M314,2090.4L314,2090.4c0,0,2.5,2.2,6.4,5.4c4.5,3.7,13.4,10.4,19.1,5.7
							c6.3-5.9,3-21.1-21.2-12.8C316.7,2089.3,315.3,2089.9,314,2090.4z"/>
						<path id="_Path_114" class="st0" d="M311,2107L311,2107c0,0,3.1-1.2,7.9-2.9c5.6-1.9,16.2-5.2,19.9,1.2
							c3.8,7.7-4.5,20.9-24.4,4.7C313.2,2109,312.1,2107.9,311,2107z"/>
						<g id="_Group_17">
							<polygon id="_Path_115" class="st4" points="325.5,2095.9 323.8,2105.8 329.1,2107.4 331.1,2096.3 							"/>
							<polygon id="_Path_116" class="st2" points="320.4,2095.8 318.9,2104.1 318.9,2104.1 318.9,2104.1 323.8,2105.8 
								325.5,2095.9 							"/>
							<path id="_Path_117" class="st2" d="M331.1,2096.3l-2,11.2l2.4,0.5c1,0.2,2.1,0.2,3.1-0.1l1.8-10c-0.9-0.6-1.9-1-2.9-1.1
								L331.1,2096.3z"/>
							<path id="_Path_118" class="st4" d="M338.9,2105.3L338.9,2105.3c0.5-0.5,0.9-1.1,1.3-1.7c-0.1-0.7-0.3-1.4-0.6-2l0,0
								c-0.6-1.5-1.6-2.9-3-3.8l-1.8,10C336.3,2107.5,337.8,2106.6,338.9,2105.3z"/>
						</g>
						<polygon id="_Path_119" class="st4" points="318.9,2104.1 311,2107 304.6,2101.6 306.1,2093.3 314,2090.4 320.4,2095.8 						
							"/>
					</g>
					<g>
						<path id="_Path_120" class="st0" d="M283.7,2156.4L283.7,2156.4c0,0,0.7,4.4,1.9,10.9c1.4,7.6,4.7,21.8,14.4,21.9
							c11.2-0.6,20.8-18.7-10.5-30.8C287.4,2157.6,285.5,2156.9,283.7,2156.4z"/>
						<path id="_Path_121" class="st0" d="M266.8,2170.5L266.8,2170.5c0,0,4.2,1.4,10.4,3.8c7.2,2.7,20.6,8.4,19,18
							c-2.6,10.9-22.1,17.1-28.4-15.8C267.3,2174.4,267,2172.4,266.8,2170.5z"/>
						<g id="_Group_18">
							<polygon id="_Path_122" class="st4" points="290.6,2171.6 280.6,2180 284.6,2186.2 296,2176.6 							"/>
							<polygon id="_Path_123" class="st2" points="285.6,2167.2 277.1,2174.3 277.1,2174.3 277.1,2174.3 280.6,2180 290.6,2171.6 
															"/>
							<path id="_Path_124" class="st2" d="M296,2176.6l-11.4,9.5c0.7,0.8,1.4,1.7,2.1,2.5c0.9,1.1,2,1.9,3.2,2.6l10.2-8.6
								c-0.4-1.3-1.1-2.5-2-3.6C297.4,2178.3,296.7,2177.4,296,2176.6z"/>
							<path id="_Path_125" class="st4" d="M296.1,2192.3L296.1,2192.3c0.9-0.1,1.8-0.3,2.7-0.6c0.5-0.8,0.8-1.7,1.1-2.6l0,0
								c0.7-2.1,0.7-4.3,0.1-6.4l-10.2,8.6C291.8,2192.2,293.9,2192.6,296.1,2192.3z"/>
						</g>
						<polygon id="_Path_126" class="st4" points="277.1,2174.3 266.8,2170.5 264.9,2159.6 273.3,2152.6 283.7,2156.4 285.6,2167.2 
													"/>
					</g>
					<g>
						<path class="st0" d="M314.4,1995.6c-0.3-0.7-0.6-1.3-1-1.9c-0.7-0.2-1.4-0.3-2.2-0.4c-2.6-8.4-18.1-12.3-21.4,13.8
							c-0.2,1.7-0.3,3.2-0.4,4.7l-1,8.6l7,5.1l7.9-3.5c1.4-0.5,2.8-1.1,4.4-1.8C331.6,2009.2,323.2,1995.5,314.4,1995.6z
							 M297.3,2008.3l7,5.1l0,0L297.3,2008.3z"/>
						<path id="_Path_127" class="st0" d="M289.4,2011.8L289.4,2011.8c0,0,3.2-1.3,7.9-3.5c5.5-2.5,15.7-7.6,14-15
							c-2.6-8.4-18.1-12.3-21.4,13.8C289.6,2008.7,289.5,2010.3,289.4,2011.8z"/>
						<path id="_Path_128" class="st0" d="M303.3,2022L303.3,2022c0,0,0.3-3.4,1-8.6c0.7-6,2.6-17.3,10.1-17.8
							c8.8-0.1,17.2,13.6-6.7,24.6C306.2,2020.9,304.7,2021.4,303.3,2022z"/>
						<g id="_Group_19">
							<polygon id="_Path_129" class="st4" points="299.7,2003.7 308,2009.7 311.9,2005.5 302.6,1998.6 							"/>
							<polygon id="_Path_130" class="st2" points="297.3,2008.3 304.3,2013.4 304.3,2013.4 304.3,2013.4 308,2009.7 299.7,2003.7 
															"/>
							<path id="_Path_131" class="st2" d="M302.6,1998.6l9.4,6.9c0.5-0.7,1-1.3,1.5-2c0.6-0.9,1.1-1.9,1.4-2.9l-8.4-6.2
								c-0.9,0.6-1.7,1.3-2.4,2.2C303.5,1997.3,303,1997.9,302.6,1998.6z"/>
							<path id="_Path_132" class="st4" d="M314.4,1995.6L314.4,1995.6c-0.3-0.7-0.6-1.3-1-1.9c-0.7-0.2-1.4-0.3-2.2-0.4l0,0
								c-1.7-0.1-3.4,0.2-4.9,1.1l8.4,6.2C315.2,1998.9,315.1,1997.2,314.4,1995.6z"/>
						</g>
						<polygon id="_Path_133" class="st4" points="304.3,2013.4 303.3,2022 295.4,2025.5 288.5,2020.3 289.4,2011.8 297.3,2008.3 
													"/>
					</g>
				</g>
				<path id="chemin_boucle_1" class="st3" d="M120.4,1978.2c6.9,7.3,74.3,75.4,76,110.5c0.6,22.2-17.6,40-39.8,40.6
					c-21.4,0.1-40-16.9-41.2-38.3c-0.7-22.2,17.6-40.5,39.7-41.4c21.3-1.1,40.4,19.1,41.4,39s13.7,29.1,13.7,29.1
					c16.8,14.7,42.2,13,56.9-3.8s13-42.2-3.8-56.9c-16.8-14.7-42.2-13-56.9,3.8c-6.7,7.7-10.3,17.6-9.9,27.8
					c0.1,22.2-17.8,40.2-40,40.3c0,0,0,0-0.1,0c-21.4,0.1-39.8-16.6-41-37.9c-0.7-22.2,17.6-40.5,39.7-41.4
					c21.3-1.1,40.4,19.1,41.4,39s13.7,29.1,13.7,29.1c16.8,14.7,42.2,13,56.9-3.8c14.7-16.8,13-42.2-3.8-56.9
					c-16.8-14.7-42.2-13-56.9,3.8c-6.7,7.7-10.3,17.6-9.9,27.8c0.1,22.2-17.8,40.2-40,40.3c0,0,0,0-0.1,0
					c-21.4,0.1-39.8-16.6-41-37.9c-0.7-22.2,17.6-40.5,39.7-41.4c21.3-1.1,40.4,19.1,41.4,39s13.7,29.1,13.7,29.1
					c16.8,14.7,42.2,13,56.9-3.8s13-42.2-3.8-56.9c-16.8-14.7-42.2-13-56.9,3.8c-6.7,7.7-10.3,17.6-9.9,27.8
					c0.1,22.2-17.8,40.2-40,40.3c0,0,0,0-0.1,0c-21.4,0.1-39.8-16.6-41-37.9c-0.7-22.2,17.6-40.5,39.7-41.4
					c21.3-1.1,40.4,19.1,41.4,39s13.7,29.1,13.7,29.1c16.8,14.7,42.2,13,56.9-3.8c14.7-16.8,13-42.2-3.8-56.9
					c-16.8-14.7-42.2-13-56.9,3.8c-6.7,7.7-10.3,17.6-9.9,27.8c0.1,22.2-17.8,40.2-40,40.3c0,0,0,0-0.1,0
					c-21.4,0.1-39.8-15.8-41-37.2"/>
			</g>
			<path id="abeille_x5F_Z_x5F_1" class="st3" d="M-46,785.4c50.3-3.7,113.2-9,167.3-12.1c43.5,214.5-172.1,595.7-49.1,989.1
				c23.5,75.1,65.3,99.4,102.1,201.8"/>
			<path id="abeille_2_1_" class="st3" d="M364.4-7c27,245.1-18.6,516.8-81.1,711.4c-59.5,185.4-177.2,558.4-150,773.4
				c26.8,212,207.5,269.2,204.1,382.2c-2,65.6-57.6,70.6-84.5,127.3c-26.2,55.2,18.2,35,24,98.6c1.3,10.6-3,20.1-9.6,27.6
				c-14.5,16.8-39.8,18.8-56.8,4.5c0,0-12.8-9.2-14-29.1s-20.6-40-41.8-38.7c-21.9,1.1-38.8,19.8-37.6,41.7
				c1.1,21.9,19.8,38.8,41.7,37.6c21.5-1.1,38.2-19.1,37.7-40.7c-0.8-22.2,16.5-40.8,38.7-41.6s40.8,16.5,41.6,38.7
				s-16.5,40.8-38.7,41.6c-10.1,0.4-20-3.1-27.6-9.7c0,0-12.8-9.2-14-29.1s-20.5-40-41.8-38.7c-21.9,1.1-38.8,19.8-37.6,41.7
				c1.1,21.9,19.8,38.8,41.7,37.6c21.5-1.1,38.2-19.1,37.7-40.7c-0.8-22.2,16.5-40.8,38.7-41.6s40.8,16.5,41.6,38.7
				s-16.5,40.8-38.7,41.6c-10.1,0.4-20-3.1-27.6-9.7c0,0-12.8-9.2-14-29.1s-20.5-40-41.8-38.7c-21.9,1.1-38.8,19.8-37.6,41.7
				c1.1,21.9,19.8,38.8,41.7,37.6c21.5-1.1,38.2-19.1,37.7-40.7c-0.8-22.2,16.5-40.8,38.7-41.6s40.8,16.5,41.6,38.7
				s-16.5,40.8-38.7,41.6c-10.1,0.4-20-3.1-27.6-9.7c0,0-12.8-9.2-14-29.1s-20.5-40-41.8-38.7c-21.9,1.1-38.8,19.8-37.6,41.7
				c1.1,21.9,19.8,38.8,41.7,37.6c21.5-1.1,38.2-19.1,37.7-40.7c-0.9-22.2,16.3-40.9,38.5-41.8c10.2-0.4,20.1,3,27.8,9.6
				c16.9,14.4,17.4,40,3,56.9"/>
			<path id="abeille_x5F_1" class="st3" d="M306.9-29.4c41,343.3-21.4,574.2-106.5,717.7c13.7,234.8-133.3,561.3-108.7,902
				c8.3,115.9,130.9,203.3,130.5,349.2"/>
			<path id="boucle-entree_1_" class="st3" d="M152.6-40.4c0,114.4-87.2,223.6-211.6,246.8"/>
		</g>
	</g>
</g>
</svg>
