<?xml version="1.0" encoding="utf-8"?>
<!-- Generator: Adobe Illustrator 19.2.0, SVG Export Plug-In . SVG Version: 6.00 Build 0)  -->
<svg version="1.1" id="home_mobile" xmlns="http://www.w3.org/2000/svg" xmlns:xlink="http://www.w3.org/1999/xlink" x="0px"
	 y="0px" viewBox="0 0 414 1622.7" style="enable-background:new 0 0 414 1622.7;" xml:space="preserve">
<style type="text/css">
	.st0{fill:#FFFFFF;}
	.st1{fill:#55BC8A;}
	.st2{fill:#666666;}
	.st3{fill:none;}
	.st4{fill:#FFE889;}
</style>
<title>mobile_section_3</title>
<g id="abeille_décors">
	<g>
		<path id="_Path_" class="st0" d="M226.4,1404.8L226.4,1404.8c0,0,2.8-0.6,7-1.5c4.9-1.1,14-3.6,13.8-9.9
			c-0.7-7.3-12.7-13-19.7,7.6C227.1,1402.4,226.7,1403.6,226.4,1404.8z"/>
		<g id="_Group_">
			<polygon id="_Path_2" class="st1" points="236.1,1399.9 241.8,1406.2 245.7,1403.5 239.3,1396.3 			"/>
			<polygon id="_Path_3" class="st2" points="233.4,1403.3 238.2,1408.6 238.2,1408.6 238.2,1408.6 241.8,1406.2 236.1,1399.9 			
				"/>
			<path id="_Path_4" class="st2" d="M239.3,1396.3l6.5,7.2l1.6-1.4c0.7-0.6,1.2-1.3,1.6-2.1l-5.8-6.4c-0.8,0.3-1.6,0.8-2.3,1.4
				L239.3,1396.3z"/>
			<path id="_Path_5" class="st1" d="M249.4,1395.9L249.4,1395.9c-0.1-0.6-0.3-1.2-0.5-1.8c-0.5-0.3-1.1-0.5-1.7-0.7l0,0
				c-1.4-0.4-2.8-0.4-4.1,0.1l5.8,6.4C249.5,1398.7,249.7,1397.2,249.4,1395.9z"/>
		</g>
		<polygon id="_Path_6" class="st1" points="238.2,1408.6 236,1415.4 229,1416.9 224.2,1411.6 226.4,1404.8 233.4,1403.3 		"/>
		<path id="_Path_7" class="st0" d="M236,1415.4L236,1415.4c0,0,0.8-2.7,2.2-6.8c1.6-4.8,5-13.6,11.2-12.8
			c7.2,1.4,11.7,13.9-9.6,18.8C238.5,1415,237.2,1415.2,236,1415.4z"/>
	</g>
	<g>
		<path id="_Path_8" class="st0" d="M366.7,1405.5L366.7,1405.5c0,0-3-0.4-7.4-1.2c-5.2-0.9-14.8-2.9-15-9.5
			c0.3-7.6,12.4-14.3,21,6.8C365.9,1403,366.3,1404.3,366.7,1405.5z"/>
		<g id="_Group_2">
			<polygon id="_Path_9" class="st1" points="356.3,1401 350.7,1407.8 346.5,1405.2 352.8,1397.4 			"/>
			<polygon id="_Path_10" class="st2" points="359.3,1404.3 354.6,1410.1 354.6,1410.1 354.6,1410.1 350.7,1407.8 356.3,1401 			"/>
			<path id="_Path_11" class="st2" d="M352.8,1397.4l-6.3,7.8l-1.7-1.4c-0.7-0.6-1.3-1.3-1.8-2.1l5.7-7c0.9,0.3,1.7,0.7,2.5,1.3
				L352.8,1397.4z"/>
			<path id="_Path_12" class="st1" d="M342.2,1397.5L342.2,1397.5c0.1-0.6,0.2-1.2,0.4-1.8c0.5-0.3,1.1-0.6,1.7-0.8l0,0
				c1.4-0.5,2.9-0.5,4.3-0.2l-5.7,7C342.3,1400.4,342.1,1398.9,342.2,1397.5z"/>
		</g>
		<polygon id="_Path_13" class="st1" points="354.6,1410.1 357.4,1417.1 364.7,1418.2 369.4,1412.4 366.7,1405.5 359.3,1404.3 		"/>
		<path id="_Path_14" class="st0" d="M357.3,1417.1L357.3,1417.1c0,0-1-2.8-2.7-7c-1.9-4.8-6-13.8-12.4-12.6
			c-7.4,1.9-11.3,15.2,11.1,19C354.7,1416.8,356.1,1416.9,357.3,1417.1z"/>
	</g>
</g>
<g id="sortie_ruche">
	<path class="st3" d="M-3.5,652.5c136.9-85.8,282.8-91.8,305-128.1c22.6-36.9-42.8-54.8-56.2-80.7c-16.8-32.4-0.9-43-0.9-43
		c5.3-4.1,9.5-9.5,12.1-15.7c0,0,6.6,7,14.2,6.2c0,0,18.4,18,35.6-1.4c0,0-35.6,26.4-30.3,39.5s54.5,42.2,38.9,64.3
		s-69.3,43.4-156.8,62.3S-9.2,650.5-9.2,650.5"/>
	<path class="st3" d="M56,652.5c40.3-40.9,164-28.6,260.6-111c92.3-78.7-10.3-149.2-10.3-149.2s11.5,4.4,13.3-7.2
		c0,0,3.1,12.8,16.7,0.7c0,0-2.6,16.2,15,8.9c0,0,29.9,55.2-11.7,106s-96.1,71.8-225.4,110.8C73.5,623.9,44,652.5,44,652.5"/>
	<path class="st3" d="M113.2,649.7C151,627.8,284.9,580,358.6,544.4c87.2-42,16.7-142.7,16.7-142.7s8,0.2,4.6-13.6
		c0,0,9.2,17.5,17.9,1.3c0,0-13.2,28.1,7.1,26.9c0,0-10.7,6.5-5.3,23.1s29.5,41-55.5,109.3s-63.6,60.2-139.2,72.4
		c-70.1,11.2-83.1,35.1-108,28.7"/>
</g>
<rect id="cache" x="-43.6" y="641.8" class="st4" width="252.7" height="29"/>
</svg>
