<?xml version="1.0" encoding="utf-8"?>
<!-- Generator: Adobe Illustrator 19.2.0, SVG Export Plug-In . SVG Version: 6.00 Build 0)  -->
<svg version="1.1" id="P2" xmlns="http://www.w3.org/2000/svg" xmlns:xlink="http://www.w3.org/1999/xlink" x="0px" y="0px"
	 viewBox="0 0 1281.9 2260.3" style="enable-background:new 0 0 1281.9 2260.3;" xml:space="preserve">
<style type="text/css">
	.st0{fill:none;}
	.st1{fill:#FFFFFF;}
	.st2{font-family:'CeraPro-Regular';}
	.st3{font-size:85.5782px;}
	.st4{font-size:54.0685px;}
	.st5{font-size:54.0672px;}
	.st6{fill:#99E2FF;}
	.st7{fill:#FFE889;}
</style>
<title>section_1-v3</title>
<g id="abeille_-_perdue">
	<path class="st0" d="M-60.8,266.6C67,336.3,204.8,490,257.1,592.8c62,121.8,42.7,90.9,59.8,187.4c8.7,49.4,101.9,130.3,118.9,167.1
		c17.5,37.9-23,96.2,26.2,122.1c40.4,21.3,176.3,5.6,223.6,20c54,16.4,25.5,58.8,66.5,78.9c49.7,24.4,91.5,15.4,110.3,8.9"/>
</g>
<g id="abeille_2">
	<path class="st0" d="M-165.6,347.3c115.8,43.1,214.1,118.5,285.3,282.9C236.9,900.6,55,1620,201.2,1892.7
		c88.9,165.8,273,223.2,372.7,284.1"/>
	<g>
		<text transform="matrix(1 0 0 1 224.7007 1125.8926)" class="st1 st2 st3">?</text>
		<text transform="matrix(0.9543 -0.299 0.299 0.9543 211.0269 1124.2886)" class="st1 st2 st4">?</text>
		<text transform="matrix(0.9675 0.253 -0.253 0.9675 252.5607 1119.0334)" class="st1 st2 st5">?</text>
	</g>
</g>
<g id="abeille_1">
	<path class="st0" d="M-63,317.5c45.6,38.9,191.6,172.4,259.5,342.2c163.7,409.8-44.6,831.5,161.9,1210.7
		c102.6,188.3,367.1,262.7,390.2,309.9"/>
	<g>
		<text transform="matrix(1 0 0 1 307.6113 1021.0032)" class="st1 st2 st3">?</text>
		<text transform="matrix(0.9543 -0.299 0.299 0.9543 293.9378 1019.3987)" class="st1 st2 st4">?</text>
		<text transform="matrix(0.9675 0.253 -0.253 0.9675 335.4718 1014.144)" class="st1 st2 st5">?</text>
	</g>
</g>
<g id="pluie">
	<path class="st6" d="M4.6,1005.9c-3,8.4-12.2,12.8-20.6,9.9c-8.4-3-12.8-12.2-9.9-20.6c3-8.4,28.1-31.3,28.1-31.3
		S7.5,997.5,4.6,1005.9z"/>
	<path class="st6" d="M32.9,926.2c-5.3,5.3-13.8,5.3-19,0c-5.3-5.3-5.3-13.8,0-19c5.3-5.3,32.4-13.4,32.4-13.4
		S38.1,920.9,32.9,926.2z"/>
	<path class="st6" d="M58.9,832.1c-1.4,6.9-8.2,11.4-15.1,9.9c-6.9-1.4-11.4-8.2-9.9-15.1c1.4-6.9,18.7-27.6,18.7-27.6
		S60.3,825.2,58.9,832.1z"/>
	<path class="st6" d="M82.7,757.2c-2.6,9.5-12.5,15.2-22,12.6c-9.5-2.6-15.2-12.5-12.6-22c2.6-9.5,28.7-36.9,28.7-36.9
		S85.3,747.7,82.7,757.2z"/>
	<path class="st6" d="M127.7,677.3c-1.8,7.1-9,11.5-16.1,9.7s-11.5-9-9.7-16.1s20.7-27.9,20.7-27.9S129.5,670.2,127.7,677.3z"/>
	<path class="st6" d="M130.9,602.9c-8.1,3-17.1-1.2-20.1-9.3s1.2-17.1,9.3-20.1s40.8,1.7,40.8,1.7S139.1,599.9,130.9,602.9z"/>
	<path class="st6" d="M168.1,510.2c-4.6,5.3-12.6,5.9-17.9,1.3c-5.3-4.6-5.9-12.6-1.3-17.9c4.6-5.3,29.6-14.9,29.6-14.9
		S172.6,504.9,168.1,510.2z"/>
	<path class="st6" d="M178.8,429.2c-6.3,2.7-13.6-0.3-16.2-6.6c-2.7-6.3,0.3-13.6,6.6-16.2c6.3-2.7,32.3-0.2,32.3-0.2
		S185.1,426.5,178.8,429.2z"/>
	<path class="st6" d="M234.2,358.6c-4.8,6.9-14.2,8.6-21.1,3.8c-6.9-4.8-8.6-14.2-3.8-21.1s33.3-21.3,33.3-21.3
		S239,351.7,234.2,358.6z"/>
	<path class="st6" d="M242.7,279.6c-7.4,4.4-17,2-21.4-5.4s-2-17,5.4-21.4s40.3-5.9,40.3-5.9S250.1,275.2,242.7,279.6z"/>
	<path class="st6" d="M268.2,191.6c-2.1,9.1-11.2,14.8-20.3,12.7c-9.1-2.1-14.8-11.2-12.7-20.3s25.7-35.9,25.7-35.9
		S270.3,182.5,268.2,191.6z"/>
	<path class="st6" d="M-11.7,1432.6c-4.5,7.2-14,9.3-21.2,4.8s-9.3-14-4.8-21.2s32.7-23,32.7-23S-7.2,1425.4-11.7,1432.6z"/>
	<path class="st6" d="M2.8,1347.5c-4.6,7.3-14.2,9.4-21.5,4.8s-9.4-14.2-4.8-21.5s33.2-23.4,33.2-23.4S7.4,1340.2,2.8,1347.5z"/>
	<path class="st6" d="M52.6,1271.2c-1.8,7.2-9.1,11.7-16.3,9.9c-7.2-1.8-11.7-9.1-9.9-16.3c1.8-7.2,20.8-28.4,20.8-28.4
		S54.3,1264,52.6,1271.2z"/>
	<path class="st6" d="M69.3,1197.1c-5.1,7.3-15.2,9-22.5,3.9s-9-15.2-3.9-22.5s35.5-22.5,35.5-22.5S74.5,1189.9,69.3,1197.1z"/>
	<path class="st6" d="M91.9,1106c-4.4,7.5-14.1,10-21.7,5.6c-7.5-4.4-10-14.1-5.6-21.7c4.4-7.5,33-24.7,33-24.7
		S96.3,1098.5,91.9,1106z"/>
	<path class="st6" d="M101.3,1017.6c-6.6,2.4-13.9-0.9-16.3-7.5s0.9-13.9,7.5-16.3c6.6-2.4,33.1,1.3,33.1,1.3
		S107.9,1015.2,101.3,1017.6z"/>
	<path class="st6" d="M148,941.1c-5.2,5.1-13.6,4.9-18.6-0.3c-5.1-5.2-4.9-13.6,0.3-18.6c5.2-5.1,31.9-12.6,31.9-12.6
		S153.3,936.1,148,941.1z"/>
	<path class="st6" d="M151.4,862.2c-8.2,4.6-18.5,1.6-23.1-6.5c-4.6-8.2-1.6-18.5,6.5-23.1c8.2-4.6,43.9-5.1,43.9-5.1
		S159.5,857.7,151.4,862.2z"/>
	<path class="st6" d="M209.8,786c-6.4,6.3-16.7,6.3-23-0.1c-6.3-6.4-6.3-16.7,0.1-23c6.4-6.3,39.3-16,39.3-16S216.2,779.7,209.8,786
		z"/>
	<path class="st6" d="M224.1,699.5c-6.3,6.1-16.4,6-22.5-0.3s-6-16.4,0.3-22.5s38.6-15.3,38.6-15.3S230.4,693.4,224.1,699.5z"/>
	<path class="st6" d="M265.4,607.8c-2.5,8-10.9,12.4-18.9,10c-8-2.5-12.4-10.9-10-18.9c2.5-8,25.1-30.3,25.1-30.3
		S267.9,599.8,265.4,607.8z"/>
	<path class="st6" d="M289.8,523.5c-4.6,5.4-12.6,6.1-18,1.5s-6.1-12.6-1.5-18c4.6-5.4,29.7-15.3,29.7-15.3S294.4,518.1,289.8,523.5
		z"/>
	<path class="st6" d="M327.4,447.1c-7.2,6.6-18.4,6-24.9-1.2c-6.6-7.2-6-18.4,1.2-24.9c7.2-6.6,43.3-15.5,43.3-15.5
		S334.6,440.5,327.4,447.1z"/>
	<path class="st6" d="M340.4,351.1c-1.5,6.8-8.2,11-15,9.5s-11-8.2-9.5-15s18.9-26.8,18.9-26.8S341.9,344.3,340.4,351.1z"/>
	<path class="st6" d="M378.9,283.2c-6.3,5-15.6,4-20.6-2.4c-5-6.3-4-15.6,2.4-20.6c6.3-5,36.8-10.4,36.8-10.4
		S385.3,278.2,378.9,283.2z"/>
	<path class="st6" d="M390.4,195.8c-4.9,7.4-14.9,9.4-22.4,4.5c-7.4-4.9-9.4-14.9-4.5-22.4c4.9-7.4,34.9-23.4,34.9-23.4
		S395.3,188.4,390.4,195.8z"/>
	<path class="st6" d="M2.4,1776.1c-4,6.9-12.8,9.3-19.8,5.4c-6.9-4-9.3-12.8-5.4-19.8c4-6.9,29.9-23.1,29.9-23.1
		S6.4,1769.1,2.4,1776.1z"/>
	<path class="st6" d="M21.1,1700.3c-7.6,4.2-17.1,1.4-21.3-6.2s-1.4-17.1,6.2-21.3c7.6-4.2,40.7-4.5,40.7-4.5
		S28.7,1696.2,21.1,1700.3z"/>
	<path class="st6" d="M47.2,1612.4c-2.4,7.9-10.8,12.3-18.6,9.8c-7.9-2.4-12.3-10.8-9.8-18.6c2.4-7.9,24.8-29.8,24.8-29.8
		S49.7,1604.6,47.2,1612.4z"/>
	<path class="st6" d="M75.3,1535.8c-2.5,8.7-11.6,13.7-20.2,11.2c-8.7-2.5-13.7-11.6-11.2-20.2c2.5-8.7,26.6-33.3,26.6-33.3
		S77.8,1527.1,75.3,1535.8z"/>
	<path class="st6" d="M101.4,1460.9c-7,4.2-16.1,2-20.3-5s-2-16.1,5-20.3c7-4.2,38.1-5.8,38.1-5.8S108.4,1456.7,101.4,1460.9z"/>
	<path class="st6" d="M104.7,1369.2c-8.7,3.5-18.6-0.6-22.1-9.3c-3.5-8.7,0.6-18.6,9.3-22.1s44.2,0.3,44.2,0.3
		S113.3,1365.7,104.7,1369.2z"/>
	<path class="st6" d="M159.9,1295.6c-7.8,5-18.2,2.7-23.2-5.2c-5-7.8-2.7-18.2,5.2-23.2c7.8-5,43.2-7.6,43.2-7.6
		S167.7,1290.6,159.9,1295.6z"/>
	<path class="st6" d="M171.2,1209.4c-7.4,3.1-15.9-0.3-19-7.7c-3.1-7.4,0.3-15.9,7.7-19s37.7-0.3,37.7-0.3
		S178.6,1206.3,171.2,1209.4z"/>
	<path class="st6" d="M203.1,1133.2c-7.8,4-17.3,1-21.3-6.8s-1-17.3,6.8-21.3s41-3.4,41-3.4S210.9,1129.2,203.1,1133.2z"/>
	<path class="st6" d="M233.4,1036.6c-3.7,5.9-11.5,7.8-17.5,4.1c-5.9-3.7-7.8-11.5-4.1-17.5c3.7-5.9,26.9-19.2,26.9-19.2
		S237.1,1030.7,233.4,1036.6z"/>
	<path class="st6" d="M269.2,953.6c-3.7,8.1-13.2,11.7-21.3,8c-8.1-3.7-11.7-13.2-8-21.3s30.7-28.6,30.7-28.6
		S272.8,945.5,269.2,953.6z"/>
	<path class="st6" d="M291.2,864.7c-4.6,5.1-12.5,5.5-17.5,0.9c-5.1-4.6-5.5-12.5-0.9-17.5c4.6-5.1,29.3-13.9,29.3-13.9
		S295.8,859.6,291.2,864.7z"/>
	<path class="st6" d="M306.4,782c-9.2,3.6-19.6-1.1-23.2-10.3s1-19.6,10.3-23.2c9.2-3.6,46.8,1.2,46.8,1.2S315.6,778.4,306.4,782z"
		/>
	<path class="st6" d="M332.2,694.6c-7.9,3.6-17.2,0.1-20.7-7.8c-3.6-7.9-0.1-17.2,7.8-20.7c7.9-3.6,40.8-1.3,40.8-1.3
		S340.1,691,332.2,694.6z"/>
	<path class="st6" d="M375,603.5c-2.9,7.5-11.3,11.2-18.7,8.3c-7.5-2.9-11.2-11.3-8.3-18.7c2.9-7.5,26.1-27.3,26.1-27.3
		S377.9,596,375,603.5z"/>
	<path class="st6" d="M409.2,530.5c-7.5,2.9-15.9-0.7-18.8-8.2s0.7-15.9,8.2-18.8s37.8,0.7,37.8,0.7S416.6,527.5,409.2,530.5z"/>
	<path class="st6" d="M455.4,448.9c-1.8,6.9-8.9,11-15.8,9.2s-11-8.9-9.2-15.8s20.5-26.8,20.5-26.8S457.3,442,455.4,448.9z"/>
	<path class="st6" d="M458.3,360.8c-6.2,4.1-14.6,2.3-18.6-3.9c-4.1-6.2-2.3-14.6,3.9-18.6c6.2-4.1,34.5-6.4,34.5-6.4
		S464.6,356.7,458.3,360.8z"/>
	<path class="st6" d="M486.3,274.4c-2.5,8.3-11.2,13-19.5,10.5s-13-11.2-10.5-19.5s25.9-31.6,25.9-31.6S488.8,266.2,486.3,274.4z"/>
	<path class="st6" d="M514.4,197.4c-6.7,3.8-15.3,1.5-19.1-5.3c-3.8-6.7-1.5-15.3,5.3-19.1c6.7-3.8,36.3-4.5,36.3-4.5
		S521.2,193.5,514.4,197.4z"/>
	<path class="st6" d="M-16.2,2109.6c-7.5,2.7-15.9-1.2-18.6-8.8c-2.7-7.5,1.2-15.9,8.8-18.6c7.5-2.7,37.8,1.9,37.8,1.9
		S-8.7,2106.9-16.2,2109.6z"/>
	<path class="st6" d="M33.1,2031.4c-5.9,5.4-15,5-20.4-0.9s-5-15,0.9-20.4s35.5-12.8,35.5-12.8S39,2026.1,33.1,2031.4z"/>
	<path class="st6" d="M52.3,1952.7c-6.7,6-17.1,5.4-23.1-1.3c-6-6.7-5.4-17.1,1.3-23.1s40.3-14,40.3-14S59,1946.6,52.3,1952.7z"/>
	<path class="st6" d="M98.5,1862.3c-1.9,7.1-9.1,11.3-16.2,9.5c-7.1-1.9-11.3-9.1-9.5-16.2c1.9-7.1,20.9-27.5,20.9-27.5
		S100.4,1855.2,98.5,1862.3z"/>
	<path class="st6" d="M119.5,1779.4c-4,9-14.6,13.1-23.7,9c-9-4-13.1-14.6-9-23.7c4-9,34-32,34-32S123.6,1770.4,119.5,1779.4z"/>
	<path class="st6" d="M117,1699.6c-8.5,4.6-19.1,1.5-23.7-7s-1.5-19.1,7-23.7s45.3-4.8,45.3-4.8S125.5,1695,117,1699.6z"/>
	<path class="st6" d="M170,1617.9c-6.3,5.1-15.5,4.1-20.6-2.2c-5.1-6.3-4.1-15.5,2.2-20.6s36.6-10.7,36.6-10.7
		S176.3,1612.8,170,1617.9z"/>
	<path class="st6" d="M178.3,1520.8c-6.4,3-13.9,0.3-17-6c-3-6.4-0.3-13.9,6-17c6.4-3,33.2-1.7,33.2-1.7S184.6,1517.7,178.3,1520.8z
		"/>
	<path class="st6" d="M203.1,1442.6c-7.9,3.2-16.8-0.6-20-8.5s0.6-16.8,8.5-20s40.1,0.4,40.1,0.4S211,1439.4,203.1,1442.6z"/>
	<path class="st6" d="M235.9,1353.2c-6.5,3.4-14.4,0.9-17.8-5.6c-3.4-6.5-0.9-14.4,5.6-17.8s34.3-3,34.3-3
		S242.4,1349.8,235.9,1353.2z"/>
	<path class="st6" d="M280,1274.9c-8.8,3.5-18.8-0.7-22.3-9.5s0.7-18.8,9.5-22.3s44.7,0.5,44.7,0.5S288.7,1271.4,280,1274.9z"/>
	<path class="st6" d="M304.9,1188c-6.6,2.7-14.2-0.4-16.9-7.1c-2.7-6.6,0.4-14.2,7.1-16.9c6.6-2.7,33.8,0.1,33.8,0.1
		S311.5,1185.2,304.9,1188z"/>
	<path class="st6" d="M331.1,1104.4c-2.5,9-11.7,14.2-20.7,11.8c-9-2.5-14.2-11.7-11.8-20.7c2.5-9,26.9-34.6,26.9-34.6
		S333.6,1095.4,331.1,1104.4z"/>
	<path class="st6" d="M351.3,1023.9c-6.2,5.1-15.4,4.2-20.5-2.1c-5.1-6.2-4.2-15.4,2.1-20.5c6.2-5.1,36.4-10.9,36.4-10.9
		S357.5,1018.8,351.3,1023.9z"/>
	<path class="st6" d="M390.8,952.2c-7.2,4.5-16.6,2.3-21.1-4.9s-2.3-16.6,4.9-21.1c7.2-4.5,39.3-6.5,39.3-6.5
		S397.9,947.8,390.8,952.2z"/>
	<path class="st6" d="M422.5,861.4c-5.2,6.6-14.7,7.7-21.3,2.6c-6.6-5.2-7.7-14.7-2.6-21.3c5.2-6.6,34.5-19.4,34.5-19.4
		S427.6,854.8,422.5,861.4z"/>
	<path class="st6" d="M457.5,776.5c-3.8,8-13.4,11.3-21.3,7.5c-8-3.8-11.3-13.4-7.5-21.3c3.8-8,31-27.8,31-27.8
		S461.3,768.5,457.5,776.5z"/>
	<path class="st6" d="M492.3,704.5c-4.7,7.9-14.8,10.6-22.8,5.9c-7.9-4.7-10.6-14.8-5.9-22.8c4.7-7.9,34.6-26.1,34.6-26.1
		S496.9,696.6,492.3,704.5z"/>
	<path class="st6" d="M487.7,616c-6.8,4.1-15.7,1.8-19.7-5.1c-4.1-6.8-1.8-15.7,5.1-19.7c6.8-4.1,37.2-5.3,37.2-5.3
		S494.6,612,487.7,616z"/>
	<path class="st6" d="M550.3,535.7c-2,9.3-11.2,15.1-20.4,13.1c-9.3-2-15.1-11.2-13.1-20.4c2-9.3,25.6-36.7,25.6-36.7
		S552.3,526.4,550.3,535.7z"/>
	<path class="st6" d="M573.5,449.5c-3.3,7.9-12.3,11.6-20.1,8.3c-7.9-3.3-11.6-12.3-8.3-20.1c3.3-7.9,28.4-28.3,28.4-28.3
		S576.8,441.7,573.5,449.5z"/>
	<path class="st6" d="M590.3,369.3c-5.2,6.3-14.5,7.2-20.8,2.1c-6.3-5.2-7.2-14.5-2.1-20.8c5.2-6.3,34-18.2,34-18.2
		S595.5,363,590.3,369.3z"/>
	<path class="st6" d="M633.6,283.6c-2.4,9.2-11.8,14.7-20.9,12.3c-9.2-2.4-14.7-11.8-12.3-20.9c2.4-9.2,27-35.6,27-35.6
		S636,274.5,633.6,283.6z"/>
	<path class="st6" d="M637.6,198.2c-6.8,5.6-16.8,4.7-22.5-2c-5.6-6.8-4.7-16.8,2-22.5c6.8-5.6,39.7-12.3,39.7-12.3
		S644.4,192.5,637.6,198.2z"/>
	<path class="st6" d="M72.9,2240c-6.1,3.4-13.8,1.3-17.2-4.8s-1.3-13.8,4.8-17.2s32.8-3.9,32.8-3.9S79,2236.5,72.9,2240z"/>
	<path class="st6" d="M114.4,2162c-4.7,8.6-15.5,11.7-24.1,7s-11.7-15.5-7-24.1s36.2-28.9,36.2-28.9S119.1,2153.4,114.4,2162z"/>
	<path class="st6" d="M141.2,2086.2c-6.9,5.5-17,4.4-22.5-2.4c-5.5-6.9-4.4-17,2.4-22.5c6.9-5.5,40.1-11.7,40.1-11.7
		S148.1,2080.7,141.2,2086.2z"/>
	<path class="st6" d="M155.2,2001.9c-5,7.8-15.3,10.2-23.2,5.2c-7.8-5-10.2-15.3-5.2-23.2c5-7.8,35.8-25.2,35.8-25.2
		S160.2,1994,155.2,2001.9z"/>
	<path class="st6" d="M185.5,1926.7c-6.8,7.3-18.2,7.7-25.4,0.9c-7.3-6.8-7.7-18.2-0.9-25.4c6.8-7.3,42.7-19.4,42.7-19.4
		S192.3,1919.4,185.5,1926.7z"/>
	<path class="st6" d="M235,1842.7c-3.2,7.1-11.6,10.3-18.7,7.1c-7.1-3.2-10.3-11.6-7.1-18.7s26.9-25.2,26.9-25.2
		S238.2,1835.5,235,1842.7z"/>
	<path class="st6" d="M249,1762.7c-4.4,5.9-12.8,7.1-18.7,2.7s-7.1-12.8-2.7-18.7c4.4-5.9,29.9-17.8,29.9-17.8
		S253.4,1756.7,249,1762.7z"/>
	<path class="st6" d="M286.7,1681.9c-5.3,6.9-15.2,8.2-22.1,2.9c-6.9-5.3-8.2-15.2-2.9-22.1c5.3-6.9,35.6-20.6,35.6-20.6
		S292,1675,286.7,1681.9z"/>
	<path class="st6" d="M296.5,1590.4c-2.5,8.2-11.2,12.8-19.4,10.3c-8.2-2.5-12.8-11.2-10.3-19.4c2.5-8.2,25.7-31.2,25.7-31.2
		S299,1582.2,296.5,1590.4z"/>
	<path class="st6" d="M340.6,1512.6c-5.4,5.2-14,5-19.1-0.4c-5.2-5.4-5-14,0.4-19.1c5.4-5.2,32.9-12.7,32.9-12.7
		S346,1507.4,340.6,1512.6z"/>
	<path class="st6" d="M353.2,1428.7c-6.6,4.3-15.4,2.4-19.7-4.2c-4.3-6.6-2.4-15.4,4.2-19.7c6.6-4.3,36.6-6.7,36.6-6.7
		S359.8,1424.5,353.2,1428.7z"/>
	<path class="st6" d="M389.5,1343.4c-2,7.5-9.7,11.9-17.2,9.8c-7.5-2-11.9-9.7-9.8-17.2c2-7.5,22.4-28.8,22.4-28.8
		S391.5,1335.9,389.5,1343.4z"/>
	<path class="st6" d="M413.8,1261.3c-5,5.6-13.5,6.1-19.1,1.1s-6.1-13.5-1.1-19.1s31.7-15.3,31.7-15.3S418.7,1255.8,413.8,1261.3z"
		/>
	<path class="st6" d="M456.5,1179.6c-4.8,7.5-14.7,9.7-22.3,5c-7.5-4.8-9.7-14.7-5-22.3c4.8-7.5,34.4-24.1,34.4-24.1
		S461.3,1172.1,456.5,1179.6z"/>
	<path class="st6" d="M464,1091c-3.4,7-11.8,9.8-18.7,6.5c-7-3.4-9.8-11.8-6.5-18.7c3.4-7,27.4-24.2,27.4-24.2
		S467.4,1084.1,464,1091z"/>
	<path class="st6" d="M501.2,1015.6c-5.7,5.9-15.1,6.1-21.1,0.4c-5.9-5.7-6.1-15.1-0.4-21.1c5.7-5.9,35.6-15.5,35.6-15.5
		S506.9,1009.7,501.2,1015.6z"/>
	<path class="st6" d="M535.9,939.6c-3.9,9-14.3,13.1-23.2,9.2c-9-3.9-13.1-14.3-9.2-23.2c3.9-9,33.1-32.1,33.1-32.1
		S539.7,930.7,535.9,939.6z"/>
	<path class="st6" d="M551.3,862.7c-8.3,3-17.3-1.3-20.3-9.6s1.3-17.3,9.6-20.3s41.3,2,41.3,2S559.5,859.8,551.3,862.7z"/>
	<path class="st6" d="M572.3,779.9c-4.8,8.1-15.3,10.8-23.4,5.9c-8.1-4.8-10.8-15.3-5.9-23.4c4.8-8.1,35.7-26.6,35.7-26.6
		S577.1,771.8,572.3,779.9z"/>
	<path class="st6" d="M593.6,698.3c-7,6.3-17.8,5.8-24.1-1.2s-5.8-17.8,1.2-24.1s41.9-15,41.9-15S600.6,692,593.6,698.3z"/>
	<path class="st6" d="M644.3,622c-5,7.3-15,9.1-22.3,4.1s-9.1-15-4.1-22.3s35.1-22.6,35.1-22.6S649.3,614.7,644.3,622z"/>
	<path class="st6" d="M671.4,530.6c-3.8,7.3-12.7,10.2-20,6.4s-10.2-12.7-6.4-20s29.6-25.1,29.6-25.1S675.1,523.3,671.4,530.6z"/>
	<path class="st6" d="M675,445.5c-7.1,3.8-15.8,1.1-19.6-6s-1.1-15.8,6-19.6c7.1-3.8,37.6-3.6,37.6-3.6S682.1,441.7,675,445.5z"/>
	<path class="st6" d="M701.6,357.9c-6.2,5-15.2,4.1-20.3-2c-5-6.2-4.1-15.2,2-20.3c6.2-5,35.9-10.8,35.9-10.8
		S707.7,352.9,701.6,357.9z"/>
	<path class="st6" d="M760.7,283.9c-3.8,7.4-13,10.3-20.3,6.4c-7.4-3.8-10.3-13-6.4-20.3c3.8-7.4,30.1-25.2,30.1-25.2
		S764.5,276.5,760.7,283.9z"/>
	<path class="st6" d="M749.3,196.3c-8.4,3.8-18.3,0.1-22.1-8.3c-3.8-8.4-0.1-18.3,8.3-22.1c8.4-3.8,43.5-1.4,43.5-1.4
		S757.7,192.4,749.3,196.3z"/>
	<path class="st6" d="M203.5,2280c-7.2,5.9-17.9,4.9-23.8-2.4c-5.9-7.2-4.9-17.9,2.4-23.8c7.2-5.9,42.3-12.7,42.3-12.7
		S210.8,2274,203.5,2280z"/>
	<path class="st6" d="M224.2,2190.8c-6.3,5-15.6,4-20.6-2.4c-5-6.3-4-15.6,2.4-20.6c6.3-5,36.8-10.5,36.8-10.5
		S230.5,2185.8,224.2,2190.8z"/>
	<path class="st6" d="M236.4,2103.6c-9.2,3.7-19.7-0.7-23.5-10c-3.7-9.2,0.7-19.7,10-23.5c9.2-3.7,47,0.4,47,0.4
		S245.6,2099.9,236.4,2103.6z"/>
	<path class="st6" d="M283.5,2013.8c-4.1,5.8-12.1,7.1-17.9,3s-7.1-12.1-3-17.9s28.4-17.7,28.4-17.7S287.6,2008.1,283.5,2013.8z"/>
	<path class="st6" d="M312,1932.5c-2.3,7.2-10,11.3-17.2,9s-11.3-10-9-17.2s23-27.5,23-27.5S314.3,1925.2,312,1932.5z"/>
	<path class="st6" d="M344.3,1858.6c-4.9,5.9-13.7,6.8-19.6,1.9s-6.8-13.7-1.9-19.6s32.2-17,32.2-17S349.2,1852.7,344.3,1858.6z"/>
	<path class="st6" d="M368.8,1767.3c-3.2,7.2-11.6,10.5-18.8,7.3c-7.2-3.2-10.5-11.6-7.3-18.8c3.2-7.2,26.9-25.7,26.9-25.7
		S372,1760,368.8,1767.3z"/>
	<path class="st6" d="M399.6,1689.6c-3.9,8-13.6,11.3-21.6,7.4s-11.3-13.6-7.4-21.6s31.5-27.8,31.5-27.8S403.5,1681.7,399.6,1689.6z
		"/>
	<path class="st6" d="M418.3,1610.4c-6.4,5.1-15.7,4.1-20.8-2.2c-5.1-6.4-4.1-15.7,2.2-20.8c6.4-5.1,37-10.8,37-10.8
		S424.6,1605.2,418.3,1610.4z"/>
	<path class="st6" d="M450.4,1527.4c-3.4,6.9-11.8,9.7-18.7,6.2c-6.9-3.4-9.7-11.8-6.2-18.7c3.4-6.9,27.5-23.7,27.5-23.7
		S453.9,1520.5,450.4,1527.4z"/>
	<path class="st6" d="M493.8,1441c-2.7,6.3-9.9,9.3-16.3,6.7c-6.3-2.7-9.3-9.9-6.7-16.3c2.7-6.3,23.1-22.8,23.1-22.8
		S496.5,1434.7,493.8,1441z"/>
	<path class="st6" d="M502.3,1363.1c-6.4,3.9-14.7,1.9-18.6-4.5s-1.9-14.7,4.5-18.6s34.8-5.4,34.8-5.4S508.7,1359.2,502.3,1363.1z"
		/>
	<path class="st6" d="M539.4,1278.4c-4.5,8.5-15,11.7-23.4,7.3c-8.5-4.5-11.7-15-7.3-23.4c4.5-8.5,34.8-28.9,34.8-28.9
		S543.8,1269.9,539.4,1278.4z"/>
	<path class="st6" d="M559,1186.4c-3.5,7-12.1,9.8-19.1,6.3s-9.8-12.1-6.3-19.1s28.1-24.1,28.1-24.1S562.5,1179.4,559,1186.4z"/>
	<path class="st6" d="M607.1,1115.6c-3.4,9.2-13.6,13.9-22.8,10.5s-13.9-13.6-10.5-22.8c3.4-9.2,31.4-33.9,31.4-33.9
		S610.5,1106.4,607.1,1115.6z"/>
	<path class="st6" d="M632.4,1033.1c-1.9,6.9-9.1,10.9-16,9s-10.9-9.1-9-16s21-26.5,21-26.5S634.4,1026.2,632.4,1033.1z"/>
	<path class="st6" d="M649.2,953.4c-5.9,8-17.1,9.7-25,3.8c-8-5.9-9.7-17.1-3.8-25c5.9-8,39.9-24.1,39.9-24.1
		S655.1,945.4,649.2,953.4z"/>
	<path class="st6" d="M678.7,860.1c-4.1,6.1-12.3,7.7-18.4,3.7c-6.1-4.1-7.7-12.3-3.7-18.4c4.1-6.1,28.7-19.2,28.7-19.2
		S682.7,854,678.7,860.1z"/>
	<path class="st6" d="M697.2,777.5c-3.9,7.3-12.9,10.1-20.3,6.3c-7.3-3.9-10.1-12.9-6.3-20.3c3.9-7.3,30.1-24.9,30.1-24.9
		S701.1,770.2,697.2,777.5z"/>
	<path class="st6" d="M720.3,698.6c-5.7,6.6-15.6,7.3-22.2,1.7c-6.6-5.7-7.3-15.6-1.7-22.2c5.7-6.6,36.7-18.5,36.7-18.5
		S725.9,692.1,720.3,698.6z"/>
	<path class="st6" d="M759.3,607.2c-2.9,6.4-10.5,9.3-16.9,6.3c-6.4-2.9-9.3-10.5-6.3-16.9c2.9-6.4,24.4-22.7,24.4-22.7
		S762.2,600.8,759.3,607.2z"/>
	<path class="st6" d="M776.3,525.2c-7.8,2.9-16.4-1.1-19.3-8.9c-2.9-7.8,1.1-16.4,8.9-19.3c7.8-2.9,39.1,1.6,39.1,1.6
		S784.1,522.4,776.3,525.2z"/>
	<path class="st6" d="M823.9,445c-4.2,6.4-12.9,8.2-19.4,4c-6.4-4.2-8.2-12.9-4-19.4c4.2-6.4,30.2-20.4,30.2-20.4
		S828.2,438.6,823.9,445z"/>
	<path class="st6" d="M837.3,361.4c-5.1,7.3-15.3,9.1-22.6,4s-9.1-15.3-4-22.6c5.1-7.3,35.7-22.6,35.7-22.6S842.5,354.1,837.3,361.4
		z"/>
	<path class="st6" d="M862.9,277c-6.6,2.4-13.9-1-16.2-7.6c-2.4-6.6,1-13.9,7.6-16.2c6.6-2.4,33,1.5,33,1.5S869.5,274.6,862.9,277z"
		/>
	<path class="st6" d="M886.7,191.8c-3.9,5.8-11.7,7.4-17.5,3.5s-7.4-11.7-3.5-17.5s27.4-18.4,27.4-18.4S890.6,186,886.7,191.8z"/>
	<path class="st6" d="M320.9,2204.3c-8.8,3.2-18.5-1.2-21.7-10s1.2-18.5,10-21.7s44,1.8,44,1.8S329.7,2201.1,320.9,2204.3z"/>
	<path class="st6" d="M377.6,2128.9c-6.9,4.1-15.7,1.9-19.8-5c-4.1-6.9-1.9-15.7,5-19.8s37.3-5.5,37.3-5.5
		S384.4,2124.8,377.6,2128.9z"/>
	<path class="st6" d="M406.8,2037.2c-2,6.9-9.2,11-16.1,9s-11-9.2-9-16.1s21.1-26.7,21.1-26.7S408.8,2030.3,406.8,2037.2z"/>
	<path class="st6" d="M437.9,1954.3c-4.1,6-12.3,7.6-18.4,3.5c-6-4.1-7.6-12.3-3.5-18.4c4.1-6,28.8-18.9,28.8-18.9
		S441.9,1948.2,437.9,1954.3z"/>
	<path class="st6" d="M439.1,1866.1c-6.6,4.8-15.9,3.3-20.7-3.3c-4.8-6.6-3.3-15.9,3.3-20.7c6.6-4.8,37.6-8.9,37.6-8.9
		S445.7,1861.3,439.1,1866.1z"/>
	<path class="st6" d="M479.1,1787.1c-5.5,7.8-16.3,9.6-24,4c-7.8-5.5-9.6-16.3-4-24c5.5-7.8,38.1-23.8,38.1-23.8
		S484.6,1779.3,479.1,1787.1z"/>
	<path class="st6" d="M521.2,1699.9c-5.4,4.6-13.6,3.9-18.2-1.5s-3.9-13.6,1.5-18.2s32-10.2,32-10.2S526.6,1695.3,521.2,1699.9z"/>
	<path class="st6" d="M549.8,1613.7c-4.8,8.3-15.4,11.1-23.7,6.3c-8.3-4.8-11.1-15.4-6.3-23.7c4.8-8.3,36-27.4,36-27.4
		S554.6,1605.4,549.8,1613.7z"/>
	<path class="st6" d="M569.5,1520.3c-3.4,9-13.5,13.6-22.5,10.2s-13.6-13.5-10.2-22.5c3.4-9,31.1-33.2,31.1-33.2
		S572.9,1511.3,569.5,1520.3z"/>
	<path class="st6" d="M598.1,1444.9c-6.3,3.2-13.9,0.8-17.2-5.5c-3.2-6.3-0.8-13.9,5.5-17.2c6.3-3.2,33.1-2.7,33.1-2.7
		S604.4,1441.7,598.1,1444.9z"/>
	<path class="st6" d="M637.8,1361.4c-2,8.6-10.7,14-19.3,11.9c-8.6-2-14-10.7-11.9-19.3c2-8.6,24.4-33.9,24.4-33.9
		S639.8,1352.8,637.8,1361.4z"/>
	<path class="st6" d="M643.1,1283.2c-8.6,3.3-18.3-1.1-21.6-9.7s1.1-18.3,9.7-21.6c8.6-3.3,43.5,1.3,43.5,1.3
		S651.8,1279.9,643.1,1283.2z"/>
	<path class="st6" d="M679,1201.5c-6.2,7.1-17,7.9-24.2,1.6c-7.1-6.2-7.9-17-1.6-24.2c6.2-7.1,40-19.8,40-19.8
		S685.2,1194.4,679,1201.5z"/>
	<path class="st6" d="M709.5,1115.8c-6.5,3.8-14.9,1.7-18.7-4.8s-1.7-14.9,4.8-18.7c6.5-3.8,35.2-5,35.2-5
		S715.9,1111.9,709.5,1115.8z"/>
	<path class="st6" d="M737.2,1028.8c-6.8,3.3-15,0.4-18.3-6.4c-3.3-6.8-0.4-15,6.4-18.3c6.8-3.3,35.7-1.9,35.7-1.9
		S744.1,1025.5,737.2,1028.8z"/>
	<path class="st6" d="M761,941.1c-3.6,7.2-12.3,10.2-19.5,6.6c-7.2-3.6-10.2-12.3-6.6-19.5c3.6-7.2,28.6-25,28.6-25
		S764.6,933.9,761,941.1z"/>
	<path class="st6" d="M794.2,853.5c-1.6,6.8-8.3,11-15.1,9.4s-11-8.3-9.4-15.1s19.1-26.7,19.1-26.7S795.8,846.8,794.2,853.5z"/>
	<path class="st6" d="M819.5,773.9c-2.9,6.2-10.3,8.8-16.4,5.9s-8.8-10.3-5.9-16.4c2.9-6.2,23.8-21.5,23.8-21.5
		S822.5,767.8,819.5,773.9z"/>
	<path class="st6" d="M868.2,699c-2.7,9.3-12.5,14.6-21.8,11.9c-9.3-2.7-14.6-12.5-11.9-21.8c2.7-9.3,28.8-35.5,28.8-35.5
		S870.9,689.7,868.2,699z"/>
	<path class="st6" d="M874.5,612.2c-6,5.4-15.3,4.9-20.7-1.1s-4.9-15.3,1.1-20.7s36-12.7,36-12.7S880.5,606.8,874.5,612.2z"/>
	<path class="st6" d="M888,531.7c-7.7,3.3-16.7-0.3-20-8s0.3-16.7,8-20s39.7-0.5,39.7-0.5S895.7,528.4,888,531.7z"/>
	<path class="st6" d="M929.6,450.7c-2.8,8.6-12,13.3-20.6,10.5s-13.3-12-10.5-20.6s27.7-32.4,27.7-32.4S932.4,442.1,929.6,450.7z"/>
	<path class="st6" d="M955.2,364c-2.9,8.1-11.8,12.4-19.9,9.5c-8.1-2.9-12.4-11.8-9.5-19.9s27.3-30.2,27.3-30.2
		S958.1,355.9,955.2,364z"/>
	<path class="st6" d="M979.3,277.7c-4.4,5.4-12.3,6.2-17.6,1.8c-5.4-4.4-6.2-12.3-1.8-17.6c4.4-5.4,28.8-15.6,28.8-15.6
		S983.7,272.4,979.3,277.7z"/>
	<path class="st6" d="M1002.9,197c-7.5,5.7-18.1,4.3-23.8-3.2s-4.3-18.1,3.2-23.8s42.9-11.3,42.9-11.3S1010.4,191.3,1002.9,197z"/>
	<path class="st6" d="M505.1,2091.4c-5.5,6.5-15.1,7.3-21.6,1.8s-7.3-15.1-1.8-21.6s35.5-18.4,35.5-18.4S510.5,2084.9,505.1,2091.4z
		"/>
	<path class="st6" d="M455.3,2219.1c-5.5,6.5-15.1,7.3-21.6,1.8s-7.3-15.1-1.8-21.6s35.5-18.4,35.5-18.4S460.7,2212.6,455.3,2219.1z
		"/>
	<path class="st6" d="M536.5,2013.1c-6.5,3.2-14.4,0.5-17.6-6c-3.2-6.5-0.5-14.4,6-17.6s34.3-2.1,34.3-2.1S543,2009.9,536.5,2013.1z
		"/>
	<path class="st6" d="M555.5,1922.4c-6.7,4.5-15.7,2.6-20.2-4.1s-2.6-15.7,4.1-20.2c6.7-4.5,37.2-7.3,37.2-7.3
		S562.2,1918,555.5,1922.4z"/>
	<path class="st6" d="M600.8,1841.6c-6.5,3.8-14.8,1.7-18.6-4.7c-3.8-6.5-1.7-14.8,4.7-18.6c6.4-3.8,35.1-5,35.1-5
		S607.2,1837.7,600.8,1841.6z"/>
	<path class="st6" d="M615.5,1757.9c-6.7,5.6-16.7,4.7-22.3-2s-4.7-16.7,2-22.3c6.7-5.6,39.5-12.3,39.5-12.3
		S622.2,1752.3,615.5,1757.9z"/>
	<path class="st6" d="M645.5,1670.7c-2.2,8.8-11.1,14.1-19.8,11.9c-8.8-2.2-14.1-11.1-11.9-19.8c2.2-8.8,25.4-34.3,25.4-34.3
		S647.7,1661.9,645.5,1670.7z"/>
	<path class="st6" d="M682.4,1595.7c-5.6,5.3-14.5,5.1-19.8-0.5s-5.1-14.5,0.5-19.8s34-13,34-13S688,1590.4,682.4,1595.7z"/>
	<path class="st6" d="M712.1,1514.7c-4.4,8.3-14.7,11.4-23,7s-11.4-14.7-7-23s34.2-28,34.2-28S716.6,1506.4,712.1,1514.7z"/>
	<path class="st6" d="M709.8,1422.7c-8.3,4.2-18.4,0.9-22.6-7.4s-0.9-18.4,7.4-22.6c8.3-4.2,43.8-3.3,43.8-3.3
		S718.1,1418.5,709.8,1422.7z"/>
	<path class="st6" d="M771.9,1343.1c-3.3,8.9-13.1,13.4-22,10.1s-13.4-13.1-10.1-22c3.3-8.9,30.3-32.7,30.3-32.7
		S775.2,1334.2,771.9,1343.1z"/>
	<path class="st6" d="M791.2,1259.4c-4.5,6.4-13.3,8-19.7,3.6c-6.4-4.5-8-13.3-3.6-19.7c4.5-6.4,31-19.9,31-19.9
		S795.6,1252.9,791.2,1259.4z"/>
	<path class="st6" d="M809.6,1181c-4.3,8.9-14.9,12.7-23.9,8.4c-8.9-4.3-12.7-14.9-8.4-23.9c4.3-8.9,34.7-31.1,34.7-31.1
		S813.9,1172.1,809.6,1181z"/>
	<path class="st6" d="M838.9,1097.4c-3.4,6.2-11.3,8.5-17.5,5.1s-8.5-11.3-5.1-17.5s26.3-20.9,26.3-20.9S842.3,1091.2,838.9,1097.4z
		"/>
	<path class="st6" d="M868.7,1013.3c-3.5,8-12.9,11.6-20.8,8.1c-8-3.5-11.6-12.9-8.1-20.8c3.5-8,29.8-28.4,29.8-28.4
		S872.2,1005.3,868.7,1013.3z"/>
	<path class="st6" d="M877.3,934.4c-7.6,4.4-17.4,1.9-21.8-5.7c-4.4-7.6-1.9-17.4,5.7-21.8c7.6-4.4,41.2-5.6,41.2-5.6
		S884.9,930,877.3,934.4z"/>
	<path class="st6" d="M904.6,853.5c-8.7,3.5-18.6-0.8-22.1-9.5s0.8-18.6,9.5-22.1s44.3,0.6,44.3,0.6S913.3,850,904.6,853.5z"/>
	<path class="st6" d="M959.5,770.4c-2.8,7-10.8,10.3-17.7,7.5c-7-2.8-10.3-10.8-7.5-17.7c2.8-7,24.9-25.3,24.9-25.3
		S962.4,763.4,959.5,770.4z"/>
	<path class="st6" d="M1001.8,690.9c-2.4,9-11.6,14.4-20.6,12s-14.4-11.6-12-20.6s26.6-35,26.6-35S1004.1,681.9,1001.8,690.9z"/>
	<path class="st6" d="M984,605.9c-7.2,3.1-15.5-0.3-18.5-7.4c-3.1-7.2,0.3-15.5,7.4-18.5c7.2-3.1,36.8-0.4,36.8-0.4
		S991.2,602.8,984,605.9z"/>
	<path class="st6" d="M1022.9,531.8c-7.4,6-18.3,4.8-24.3-2.7c-6-7.4-4.8-18.3,2.7-24.3c7.4-6,43.3-12.6,43.3-12.6
		S1030.3,525.8,1022.9,531.8z"/>
	<path class="st6" d="M1071.5,452.5c-4,5.8-12.1,7.3-17.9,3.3s-7.3-12.1-3.3-17.9s28.2-18.2,28.2-18.2S1075.5,446.6,1071.5,452.5z"
		/>
	<path class="st6" d="M1089.1,360.1c-4.2,5.7-12.2,7-18,2.8c-5.7-4.2-7-12.2-2.8-18c4.2-5.7,28.6-17.4,28.6-17.4
		S1093.3,354.3,1089.1,360.1z"/>
	<path class="st6" d="M1123.3,290.4c-5.9,8-17.2,9.8-25.2,3.9s-9.8-17.2-3.9-25.2s40.2-24.3,40.2-24.3S1129.1,282.3,1123.3,290.4z"
		/>
	<path class="st6" d="M1130.3,197.4c-7.1,6.1-17.9,5.3-24-1.8s-5.3-17.9,1.8-24c7.1-6.1,42.1-13.7,42.1-13.7
		S1137.4,191.3,1130.3,197.4z"/>
	<path class="st6" d="M660.2,1952.3c-6,4.4-14.5,3.1-18.9-2.9s-3.1-14.5,2.9-18.9s34.2-8.4,34.2-8.4S666.3,1947.8,660.2,1952.3z"/>
	<path class="st6" d="M715.6,1887.7c-6.3,7.3-17.3,8-24.6,1.7s-8-17.3-1.7-24.6c6.3-7.3,40.7-20.1,40.7-20.1
		S722,1880.4,715.6,1887.7z"/>
	<path class="st6" d="M739.5,1802c-5.2,5.8-14.2,6.4-20.1,1.1s-6.4-14.2-1.1-20.1c5.2-5.8,33.4-16,33.4-16S744.7,1796.1,739.5,1802z
		"/>
	<path class="st6" d="M751.7,1714.6c-4,8.2-13.8,11.6-22,7.7c-8.2-4-11.6-13.8-7.7-22c4-8.2,32.1-28.5,32.1-28.5
		S755.7,1706.5,751.7,1714.6z"/>
	<path class="st6" d="M770.7,1634.2c-8.4,3.3-17.9-1-21.2-9.4s1-17.9,9.4-21.2c8.4-3.3,42.7,1.1,42.7,1.1S779.2,1631,770.7,1634.2z"
		/>
	<path class="st6" d="M830.7,1555.2c-2.8,8.1-11.7,12.5-19.9,9.6c-8.1-2.8-12.5-11.7-9.6-19.9c2.8-8.1,27.1-30.4,27.1-30.4
		S833.6,1547.1,830.7,1555.2z"/>
	<path class="st6" d="M837.7,1461c-2,9-11,14.6-19.9,12.5c-9-2-14.6-11-12.5-19.9c2-9,25.1-35.3,25.1-35.3S839.8,1452,837.7,1461z"
		/>
	<path class="st6" d="M871.3,1383.4c-6.7,6.1-17.1,5.6-23.2-1.1c-6.1-6.7-5.6-17.1,1.1-23.2c6.7-6.1,40.3-14.5,40.3-14.5
		S878,1377.3,871.3,1383.4z"/>
	<path class="st6" d="M889,1293.1c-3.7,7.5-12.8,10.7-20.3,7s-10.7-12.8-7-20.3s29.7-26.2,29.7-26.2S892.7,1285.6,889,1293.1z"/>
	<path class="st6" d="M932.5,1226.1c-6.5,6.4-17,6.4-23.4-0.1s-6.4-17,0.1-23.4s40-16.2,40-16.2S939,1219.6,932.5,1226.1z"/>
	<path class="st6" d="M962,1135.5c-2.4,7.3-10.4,11.3-17.7,8.9s-11.3-10.4-8.9-17.7c2.4-7.3,23.9-27.6,23.9-27.6
		S964.4,1128.2,962,1135.5z"/>
	<path class="st6" d="M985.6,1052.5c-5.2,6.6-14.8,7.7-21.4,2.4c-6.6-5.2-7.7-14.8-2.4-21.4c5.2-6.6,34.7-19.2,34.7-19.2
		S990.8,1045.9,985.6,1052.5z"/>
	<path class="st6" d="M1015.4,970.5c-5.3,4.3-13,3.5-17.3-1.8s-3.5-13,1.8-17.3s30.8-9.1,30.8-9.1S1020.6,966.2,1015.4,970.5z"/>
	<path class="st6" d="M1034.8,882.7c-4.3,8.7-14.9,12.3-23.7,8c-8.7-4.3-12.3-14.9-8-23.7c4.3-8.7,34.7-30.3,34.7-30.3
		S1039.1,873.9,1034.8,882.7z"/>
	<path class="st6" d="M1062.1,810.6c-9,3.6-19.2-0.8-22.8-9.8c-3.6-9,0.8-19.2,9.8-22.8s45.8,0.6,45.8,0.6S1071.1,807,1062.1,810.6z
		"/>
	<path class="st6" d="M1079.7,719.9c-6.7,6.2-17.1,5.8-23.4-0.9c-6.2-6.7-5.8-17.1,0.9-23.4c6.7-6.2,40.4-15,40.4-15
		S1086.4,713.7,1079.7,719.9z"/>
	<path class="st6" d="M1123.9,636.6c-7.3,4.1-16.5,1.5-20.6-5.8s-1.5-16.5,5.8-20.6s39.1-4.6,39.1-4.6S1131.2,632.5,1123.9,636.6z"
		/>
	<path class="st6" d="M1161.8,545c-4.4,5.5-12.4,6.4-17.9,2s-6.4-12.4-2-17.9s29.2-16,29.2-16S1166.2,539.5,1161.8,545z"/>
	<path class="st6" d="M1177.2,445.9c-1.5,7.2-8.5,11.7-15.7,10.2s-11.7-8.5-10.2-15.7s19.5-28.5,19.5-28.5
		S1178.7,438.7,1177.2,445.9z"/>
	<path class="st6" d="M1218.7,368.1c-2,6.9-9.2,10.8-16,8.8c-6.9-2-10.8-9.2-8.8-16c2-6.9,21.1-26.3,21.1-26.3
		S1220.7,361.3,1218.7,368.1z"/>
	<path class="st6" d="M1241.2,288.1c-7.2,4.9-17,3-21.9-4.2s-3-17,4.2-21.9s40.3-8.2,40.3-8.2S1248.5,283.3,1241.2,288.1z"/>
	<path class="st6" d="M1277.7,203.3c-6.6,5.6-16.5,4.8-22.1-1.7c-5.6-6.6-4.8-16.5,1.7-22.1c6.6-5.6,38.9-12.6,38.9-12.6
		S1284.2,197.7,1277.7,203.3z"/>
	<path class="st6" d="M804.5,1929.2c-5,5-13.2,5-18.2,0s-5-13.2,0-18.2s31.1-12.8,31.1-12.8S809.5,1924.2,804.5,1929.2z"/>
	<path class="st6" d="M843.8,1848.6c-2.8,7.1-10.8,10.6-17.9,7.9c-7.1-2.8-10.6-10.8-7.9-17.9c2.8-7.1,24.9-26,24.9-26
		S846.5,1841.5,843.8,1848.6z"/>
	<path class="st6" d="M860.6,1771.5c-6.4,3.5-14.5,1.2-18-5.2c-3.5-6.4-1.2-14.5,5.2-18s34.3-3.8,34.3-3.8S867,1768,860.6,1771.5z"
		/>
	<path class="st6" d="M876.4,1683.1c-5.4,4.5-13.5,3.8-18-1.6s-3.8-13.5,1.6-18c5.4-4.5,31.8-9.9,31.8-9.9
		S881.8,1678.6,876.4,1683.1z"/>
	<path class="st6" d="M919,1608.2c-5.6,7.1-15.9,8.2-23,2.6s-8.2-15.9-2.6-23c5.6-7.1,37.3-20.6,37.3-20.6S924.6,1601.1,919,1608.2z
		"/>
	<path class="st6" d="M945,1509.5c-1.7,6.7-8.5,10.8-15.2,9.1c-6.7-1.7-10.8-8.5-9.1-15.2s19.5-26.2,19.5-26.2
		S946.7,1502.8,945,1509.5z"/>
	<path class="st6" d="M978.8,1434.1c-4.6,5.3-12.6,5.9-17.8,1.3c-5.3-4.6-5.9-12.6-1.3-17.8c4.6-5.3,29.5-14.7,29.5-14.7
		S983.3,1428.8,978.8,1434.1z"/>
	<path class="st6" d="M999.8,1346c-3.7,6.1-11.7,8.1-17.9,4.4c-6.1-3.7-8.1-11.7-4.4-17.9c3.7-6.1,27.4-20,27.4-20
		S1003.5,1339.9,999.8,1346z"/>
	<path class="st6" d="M1017.9,1268c-4.1,8.9-14.7,12.7-23.6,8.6c-8.9-4.1-12.7-14.7-8.6-23.6c4.1-8.9,34.2-31.2,34.2-31.2
		S1022.1,1259.2,1017.9,1268z"/>
	<path class="st6" d="M1050.5,1181c-5.9,3.8-13.8,2.2-17.6-3.7c-3.8-5.9-2.2-13.8,3.7-17.6c5.9-3.8,32.7-6,32.7-6
		S1056.4,1177.2,1050.5,1181z"/>
	<path class="st6" d="M1078.8,1097.1c-4.2,6.7-12.9,8.7-19.6,4.5s-8.7-12.9-4.5-19.6s30.2-21.5,30.2-21.5S1083,1090.4,1078.8,1097.1
		z"/>
	<path class="st6" d="M1113.8,1014c-6.5,2.7-14-0.3-16.8-6.9c-2.7-6.5,0.3-14,6.9-16.8c6.5-2.7,33.4-0.1,33.4-0.1
		S1120.3,1011.2,1113.8,1014z"/>
	<path class="st6" d="M1129.8,923.4c-4.8,6.6-14,8-20.6,3.2s-8-14-3.2-20.6s32.8-20,32.8-20S1134.6,916.9,1129.8,923.4z"/>
	<path class="st6" d="M1165.1,840.5c-6.1,4.7-14.9,3.6-19.6-2.6c-4.7-6.1-3.6-14.9,2.6-19.6c6.1-4.7,35.2-9.4,35.2-9.4
		S1171.2,835.8,1165.1,840.5z"/>
	<path class="st6" d="M1189.8,756.3c-3.5,9.2-13.9,13.9-23.1,10.3s-13.9-13.9-10.3-23.1c3.5-9.2,32.2-33.9,32.2-33.9
		S1193.3,747.1,1189.8,756.3z"/>
	<path class="st6" d="M1222.8,679.5c-4.4,6.5-13.2,8.3-19.8,3.9c-6.5-4.4-8.3-13.2-3.9-19.8c4.4-6.5,31-20.5,31-20.5
		S1227.2,673,1222.8,679.5z"/>
	<path class="st6" d="M1243.9,586.7c-2.5,7.9-10.9,12.2-18.8,9.7s-12.2-10.9-9.7-18.8c2.5-7.9,25.2-29.8,25.2-29.8
		S1246.4,578.8,1243.9,586.7z"/>
	<path class="st6" d="M1284.2,506.5c-3.4,9-13.5,13.6-22.5,10.2c-9-3.4-13.6-13.5-10.2-22.5s31.2-33.1,31.2-33.1
		S1287.6,497.4,1284.2,506.5z"/>
	<path class="st6" d="M1326.7,419.5c-2.2,9.2-11.4,14.9-20.6,12.7c-9.2-2.2-14.9-11.4-12.7-20.6c2.2-9.2,26.1-36.1,26.1-36.1
		S1328.9,410.3,1326.7,419.5z"/>
	<path class="st6" d="M956.5,1847.3c-3.5,7.9-12.7,11.4-20.6,7.9c-7.9-3.5-11.4-12.7-7.9-20.6s29.5-28,29.5-28
		S959.9,1839.4,956.5,1847.3z"/>
	<path class="st6" d="M922.8,1961.1c-3.5,7.9-12.7,11.4-20.6,7.9c-7.9-3.5-11.4-12.7-7.9-20.6s29.5-28,29.5-28
		S926.2,1953.2,922.8,1961.1z"/>
	<path class="st6" d="M993.2,1778.7c-8.5,5.1-19.4,2.3-24.5-6.1c-5.1-8.5-2.3-19.4,6.1-24.5c8.5-5.1,46.1-6.8,46.1-6.8
		S1001.6,1773.6,993.2,1778.7z"/>
	<path class="st6" d="M1001.9,1683.1c-4.5,5.9-13,7.1-18.9,2.6s-7.1-13-2.6-18.9s30.4-17.7,30.4-17.7S1006.5,1677.2,1001.9,1683.1z"
		/>
	<path class="st6" d="M1061,1608.8c-4.3,8.5-14.7,12-23.3,7.7c-8.5-4.3-12-14.7-7.7-23.3c4.3-8.5,34.3-29.4,34.3-29.4
		S1065.3,1600.3,1061,1608.8z"/>
	<path class="st6" d="M1066.5,1514.9c-6.8,4.2-15.7,2.1-19.9-4.6c-4.2-6.8-2.1-15.7,4.6-19.9c6.8-4.2,37.1-6.1,37.1-6.1
		S1073.3,1510.7,1066.5,1514.9z"/>
	<path class="st6" d="M1100.7,1434.1c-7.6,4.8-17.6,2.6-22.4-5s-2.6-17.6,5-22.4s41.7-7.2,41.7-7.2S1108.3,1429.3,1100.7,1434.1z"/>
	<path class="st6" d="M1116.5,1343.1c-4.5,5.1-12.3,5.6-17.4,1.1s-5.6-12.3-1.1-17.4s28.9-14.2,28.9-14.2S1121,1337.9,1116.5,1343.1
		z"/>
	<path class="st6" d="M1168.5,1257.1c-2,6.5-8.9,10.2-15.4,8.1s-10.2-8.9-8.1-15.4c2-6.5,20.6-24.7,20.6-24.7
		S1170.6,1250.6,1168.5,1257.1z"/>
	<path class="st6" d="M1180.3,1176c-4.7,6.5-13.8,8-20.3,3.3s-8-13.8-3.3-20.3s32.3-19.9,32.3-19.9S1185,1169.5,1180.3,1176z"/>
	<path class="st6" d="M1210.4,1099.4c-6,6.1-15.9,6.2-22,0.2s-6.2-15.9-0.2-22s37.4-15.8,37.4-15.8S1216.4,1093.3,1210.4,1099.4z"/>
	<path class="st6" d="M1224.8,1004c-4.4,5.4-12.4,6.3-17.8,1.9s-6.3-12.4-1.9-17.8c4.4-5.4,29-15.7,29-15.7
		S1229.2,998.6,1224.8,1004z"/>
	<path class="st6" d="M1279.2,933.1c-2.1,9.4-11.4,15.3-20.8,13.1c-9.4-2.1-15.3-11.4-13.1-20.8c2.1-9.4,26.2-37,26.2-37
		S1281.3,923.7,1279.2,933.1z"/>
	<path class="st6" d="M1292.8,847c-3.4,8.8-13.4,13.2-22.2,9.8c-8.8-3.4-13.2-13.4-9.8-22.2c3.4-8.8,30.9-32.4,30.9-32.4
		S1296.2,838.2,1292.8,847z"/>
	<path class="st6" d="M1322.3,770.6c-6.4,5.2-15.8,4.2-21-2.2s-4.2-15.8,2.2-21c6.4-5.2,37.3-11.1,37.3-11.1
		S1328.7,765.4,1322.3,770.6z"/>
	<path class="st6" d="M-20.4,704c-7.1,6.2-18,5.5-24.2-1.7c-6.2-7.1-5.5-18,1.7-24.2c7.1-6.2,42.3-14.2,42.3-14.2
		S-13.2,697.8-20.4,704z"/>
	<path class="st6" d="M10.3,615.1c-5.9,7-16.4,7.8-23.3,1.9c-7-5.9-7.8-16.4-1.9-23.3c5.9-7,38.4-19.6,38.4-19.6
		S16.2,608.2,10.3,615.1z"/>
	<path class="st6" d="M39.1,529.8c-7.9,3.9-17.4,0.7-21.3-7.1c-3.9-7.9-0.7-17.4,7.1-21.3c7.9-3.9,41.4-2.8,41.4-2.8
		S46.9,525.9,39.1,529.8z"/>
	<path class="st6" d="M84.7,452.5c-6.1,4.1-14.3,2.5-18.4-3.5c-4.1-6.1-2.5-14.3,3.5-18.4c6.1-4.1,33.8-6.9,33.8-6.9
		S90.8,448.4,84.7,452.5z"/>
	<path class="st6" d="M104.1,362.4c-5,5.9-13.9,6.6-19.8,1.6c-5.9-5-6.6-13.9-1.6-19.8s32.7-16.7,32.7-16.7S109.1,356.5,104.1,362.4
		z"/>
	<path class="st6" d="M120.3,273.6c-5.7,4.6-14.2,3.7-18.8-2c-4.6-5.7-3.7-14.2,2-18.8c5.7-4.6,33.5-9.8,33.5-9.8
		S126,268.9,120.3,273.6z"/>
	<path class="st6" d="M150.6,197.5c-7.2,5-17,3.2-22-4s-3.2-17,4-22s40.2-8.7,40.2-8.7S157.8,192.6,150.6,197.5z"/>
	<path class="st6" d="M1123,1734.6c-6.3,3.9-14.5,1.9-18.4-4.3s-1.9-14.5,4.3-18.4c6.3-3.9,34.3-5.5,34.3-5.5
		S1129.3,1730.7,1123,1734.6z"/>
	<path class="st6" d="M1170.3,1659.7c-2.3,9.5-11.8,15.3-21.3,13s-15.3-11.8-13-21.3s27.1-37.2,27.1-37.2
		S1172.6,1650.3,1170.3,1659.7z"/>
	<path class="st6" d="M1184.7,1581.7c-7,4.2-16,1.9-20.2-5c-4.2-7-1.9-16,5-20.2c7-4.2,37.9-5.6,37.9-5.6
		S1191.7,1577.6,1184.7,1581.7z"/>
	<path class="st6" d="M578.7,2233.4c-5.6,5.3-14.5,5.1-19.8-0.5c-5.3-5.6-5.1-14.5,0.5-19.8s34-13,34-13S584.3,2228.1,578.7,2233.4z
		"/>
	<path class="st6" d="M608.4,2152.4c-4.4,8.3-14.7,11.4-23,7c-8.3-4.4-11.4-14.7-7-23s34.2-28,34.2-28S612.9,2144.1,608.4,2152.4z"
		/>
	<path class="st6" d="M606.1,2060.4c-8.3,4.2-18.4,0.9-22.6-7.4s-0.9-18.4,7.4-22.6c8.3-4.2,43.8-3.3,43.8-3.3
		S614.4,2056.2,606.1,2060.4z"/>
	<path class="st6" d="M648,2352.3c-4,8.2-13.8,11.6-22,7.7c-8.2-4-11.6-13.8-7.7-22c4-8.2,32.1-28.5,32.1-28.5
		S652,2344.2,648,2352.3z"/>
	<path class="st6" d="M667,2271.9c-8.4,3.3-17.9-1-21.2-9.4c-3.3-8.4,1-17.9,9.4-21.2c8.4-3.3,42.7,1.1,42.7,1.1
		S675.5,2268.7,667,2271.9z"/>
	<path class="st6" d="M727,2192.9c-2.8,8.1-11.7,12.5-19.9,9.6c-8.1-2.8-12.5-11.7-9.6-19.9c2.8-8.1,27.1-30.4,27.1-30.4
		S729.9,2184.8,727,2192.9z"/>
	<path class="st6" d="M734,2098.7c-2,9-11,14.6-19.9,12.5c-9-2-14.6-11-12.5-19.9c2-9,25.1-35.3,25.1-35.3S736.1,2089.7,734,2098.7z
		"/>
	<path class="st6" d="M767.6,2021.1c-6.7,6.1-17.1,5.6-23.2-1.1c-6.1-6.7-5.6-17.1,1.1-23.2c6.7-6.1,40.3-14.5,40.3-14.5
		S774.3,2015,767.6,2021.1z"/>
	<path class="st6" d="M772.7,2320.8c-5.4,4.5-13.5,3.8-18-1.6c-4.5-5.4-3.8-13.5,1.6-18c5.4-4.5,31.8-9.9,31.8-9.9
		S778.1,2316.3,772.7,2320.8z"/>
	<path class="st6" d="M815.3,2245.9c-5.6,7.1-15.9,8.2-23,2.6c-7.1-5.6-8.2-15.9-2.6-23c5.6-7.1,37.3-20.6,37.3-20.6
		S820.9,2238.8,815.3,2245.9z"/>
	<path class="st6" d="M841.3,2147.2c-1.7,6.7-8.5,10.8-15.2,9.1s-10.8-8.5-9.1-15.2s19.5-26.2,19.5-26.2S843,2140.5,841.3,2147.2z"
		/>
	<path class="st6" d="M875.1,2071.8c-4.6,5.3-12.6,5.9-17.8,1.3c-5.3-4.6-5.9-12.6-1.3-17.8c4.6-5.3,29.5-14.7,29.5-14.7
		S879.6,2066.5,875.1,2071.8z"/>
	<path class="st6" d="M898.2,2320.8c-4.5,5.9-13,7.1-18.9,2.6s-7.1-13-2.6-18.9c4.5-5.9,30.4-17.7,30.4-17.7
		S902.8,2314.9,898.2,2320.8z"/>
	<path class="st6" d="M957.3,2246.5c-4.3,8.5-14.7,12-23.3,7.7c-8.5-4.3-12-14.7-7.7-23.3c4.3-8.5,34.3-29.4,34.3-29.4
		S961.6,2238,957.3,2246.5z"/>
	<path class="st6" d="M962.8,2152.6c-6.8,4.2-15.7,2.1-19.9-4.6c-4.2-6.8-2.1-15.7,4.6-19.9c6.8-4.2,37.1-6.1,37.1-6.1
		S969.6,2148.4,962.8,2152.6z"/>
	<path class="st6" d="M997,2071.8c-7.6,4.8-17.6,2.6-22.4-5c-4.8-7.6-2.6-17.6,5-22.4c7.6-4.8,41.7-7.2,41.7-7.2
		S1004.6,2067,997,2071.8z"/>
	<path class="st6" d="M1066.6,2297.4c-2.3,9.5-11.8,15.3-21.3,13s-15.3-11.8-13-21.3s27.1-37.2,27.1-37.2S1068.9,2288,1066.6,2297.4
		z"/>
	<path class="st6" d="M1081,2219.4c-7,4.2-16,1.9-20.2-5c-4.2-7-1.9-16,5-20.2c7-4.2,37.9-5.6,37.9-5.6S1088,2215.3,1081,2219.4z"/>
	<path class="st6" d="M1025.3,1985.9c-7,4.2-16,1.9-20.2-5c-4.2-7-1.9-16,5-20.2c7-4.2,37.9-5.6,37.9-5.6
		S1032.3,1981.8,1025.3,1985.9z"/>
	<path class="st6" d="M1204.5,1490.8c-5.3,7.5-15.8,9.3-23.3,3.9c-7.5-5.3-9.3-15.8-3.9-23.3c5.3-7.5,36.9-23,36.9-23
		S1209.9,1483.3,1204.5,1490.8z"/>
	<path class="st6" d="M1251.9,1413.6c-4.1,8.8-14.7,12.6-23.5,8.5s-12.6-14.7-8.5-23.5s34-31,34-31S1256.1,1404.7,1251.9,1413.6z"/>
	<path class="st6" d="M1259,1324.2c-4.9,6.4-14,7.6-20.4,2.7s-7.6-14-2.7-20.4s32.8-18.9,32.8-18.9S1263.8,1317.8,1259,1324.2z"/>
	<path class="st6" d="M1295.5,1250.1c-4.3,7.4-13.7,9.8-21.1,5.6s-9.8-13.7-5.6-21.1c4.3-7.4,32-24.3,32-24.3
		S1299.8,1242.7,1295.5,1250.1z"/>
	<path class="st6" d="M1303.2,1163.8c-7.7,5.6-18.5,3.9-24.1-3.9c-5.6-7.7-3.9-18.5,3.9-24.1c7.7-5.6,43.8-10.4,43.8-10.4
		S1310.9,1158.2,1303.2,1163.8z"/>
	<path class="st6" d="M1260.2,1689.2c-5.5,6.6-15.4,7.4-21.9,1.9c-6.6-5.5-7.4-15.4-1.9-21.9c5.5-6.6,36.1-18.6,36.1-18.6
		S1265.8,1682.6,1260.2,1689.2z"/>
	<path class="st6" d="M1295.6,1615.5c-6.7,3.7-15.1,1.3-18.8-5.4c-3.7-6.7-1.3-15.1,5.4-18.8c6.7-3.7,35.8-4.1,35.8-4.1
		S1302.3,1611.8,1295.6,1615.5z"/>
	<path class="st6" d="M1052.8,1907.3c-5.5,6.6-15.4,7.4-21.9,1.9c-6.6-5.5-7.4-15.4-1.9-21.9c5.5-6.6,36.1-18.6,36.1-18.6
		S1058.4,1900.7,1052.8,1907.3z"/>
	<path class="st6" d="M1088.2,1833.6c-6.7,3.7-15.1,1.3-18.8-5.4c-3.7-6.7-1.3-15.1,5.4-18.8c6.7-3.7,35.8-4.1,35.8-4.1
		S1094.9,1829.9,1088.2,1833.6z"/>
	<path class="st6" d="M1134.3,2057c-2.8,7.1-10.8,10.6-17.9,7.9c-7.1-2.8-10.6-10.8-7.9-17.9c2.8-7.1,24.9-26,24.9-26
		S1137,2049.9,1134.3,2057z"/>
	<path class="st6" d="M1151.1,1979.9c-6.4,3.5-14.5,1.2-18-5.2c-3.5-6.4-1.2-14.5,5.2-18s34.3-3.8,34.3-3.8
		S1157.5,1976.4,1151.1,1979.9z"/>
	<path class="st6" d="M1166.9,1891.5c-5.4,4.5-13.5,3.8-18-1.6s-3.8-13.5,1.6-18c5.4-4.5,31.8-9.9,31.8-9.9
		S1172.3,1887,1166.9,1891.5z"/>
	<path class="st6" d="M1209.5,1816.6c-5.6,7.1-15.9,8.2-23,2.6s-8.2-15.9-2.6-23s37.3-20.6,37.3-20.6S1215.1,1809.5,1209.5,1816.6z"
		/>
	<path class="st6" d="M1247,2055.7c-3.5,7.9-12.7,11.4-20.6,7.9s-11.4-12.7-7.9-20.6s29.5-28,29.5-28S1250.4,2047.8,1247,2055.7z"/>
	<path class="st6" d="M1283.7,1987.1c-8.5,5.1-19.4,2.3-24.5-6.1c-5.1-8.5-2.3-19.4,6.1-24.5c8.5-5.1,46.1-6.8,46.1-6.8
		S1292.1,1982,1283.7,1987.1z"/>
	<path class="st6" d="M1292.4,1891.5c-4.5,5.9-13,7.1-18.9,2.6s-7.1-13-2.6-18.9s30.4-17.7,30.4-17.7S1297,1885.6,1292.4,1891.5z"/>
	<path class="st6" d="M1088.2,2135.3c-6.7,3.7-15.1,1.3-18.8-5.4c-3.7-6.7-1.3-15.1,5.4-18.8c6.7-3.7,35.8-4.1,35.8-4.1
		S1094.9,2131.6,1088.2,2135.3z"/>
	<path class="st6" d="M1180,2248.3c-5.5,6.6-15.4,7.4-21.9,1.9c-6.6-5.5-7.4-15.4-1.9-21.9c5.5-6.6,36.1-18.6,36.1-18.6
		S1185.6,2241.7,1180,2248.3z"/>
	<path class="st6" d="M1215.4,2174.6c-6.7,3.7-15.1,1.3-18.8-5.4c-3.7-6.7-1.3-15.1,5.4-18.8c6.7-3.7,35.8-4.1,35.8-4.1
		S1222.1,2170.9,1215.4,2174.6z"/>
	<path class="st6" d="M1298.2,1531.4c-8.4,4.2-18.7,0.7-22.9-7.7c-4.2-8.4-0.7-18.7,7.7-22.9c8.4-4.2,44.4-2.9,44.4-2.9
		S1306.6,1527.2,1298.2,1531.4z"/>
</g>
<g id="petite-pluie">
	<path class="st6" d="M45.9,1001.2c-4.4,2.3-9.9,0.5-12.1-3.9c-2.3-4.4-0.5-9.9,3.9-12.1c4.4-2.3,23.4-1.8,23.4-1.8
		S50.4,998.9,45.9,1001.2z"/>
	<path class="st6" d="M77.3,952c-5.3,4.3-13.1,3.6-17.5-1.7c-4.3-5.3-3.6-13.1,1.7-17.5c5.3-4.3,31-9.3,31-9.3S82.6,947.6,77.3,952z
		"/>
	<path class="st6" d="M154,713.6c-4.3,5.2-12,6-17.2,1.7c-5.2-4.3-6-12-1.7-17.2c4.3-5.2,28.2-15,28.2-15S158.3,708.4,154,713.6z"/>
	<path class="st6" d="M-4.7,1529.7c-5.9,2.5-12.7-0.3-15.2-6.2c-2.5-5.9,0.3-12.7,6.2-15.2c5.9-2.5,30.2-0.1,30.2-0.1
		S1.2,1527.2-4.7,1529.7z"/>
	<path class="st6" d="M16.5,1466.8c-3.8,4.4-10.5,4.9-14.9,1.1c-4.4-3.8-4.9-10.5-1.1-14.9c3.8-4.4,24.7-12.3,24.7-12.3
		S20.4,1462.4,16.5,1466.8z"/>
	<path class="st6" d="M61.5,1344.8c-3.5,3.6-9.2,3.7-12.8,0.2c-3.6-3.5-3.7-9.2-0.2-12.8c3.5-3.6,21.6-9.4,21.6-9.4
		S65,1341.2,61.5,1344.8z"/>
	<path class="st6" d="M78.6,1290c-4.2,3.1-10.1,2.2-13.2-2c-3.1-4.2-2.2-10.1,2-13.2c4.2-3.1,23.9-6,23.9-6S82.8,1286.9,78.6,1290z"
		/>
	<path class="st6" d="M114.7,1180.7c-4.5,3.1-10.7,1.9-13.8-2.7c-3.1-4.5-1.9-10.7,2.7-13.8c4.5-3.1,25.3-5.1,25.3-5.1
		S119.3,1177.6,114.7,1180.7z"/>
	<path class="st6" d="M167.5,1067.9c-2.9,5.4-9.5,7.4-14.9,4.6c-5.4-2.9-7.4-9.5-4.6-14.9c2.9-5.4,22.2-18.3,22.2-18.3
		S170.3,1062.5,167.5,1067.9z"/>
	<path class="st6" d="M202.4,953c-3.8,4.8-10.8,5.5-15.6,1.7c-4.8-3.8-5.5-10.8-1.7-15.6c3.8-4.8,25.3-13.8,25.3-13.8
		S206.3,948.3,202.4,953z"/>
	<path class="st6" d="M242.4,843.5c-5,4.6-12.7,4.3-17.3-0.7c-4.6-5-4.3-12.7,0.7-17.3c5-4.6,29.9-11,29.9-11
		S247.4,838.9,242.4,843.5z"/>
	<path class="st6" d="M288.8,718c-1.8,6.7-8.6,10.7-15.3,9c-6.7-1.8-10.7-8.6-9-15.3c1.8-6.7,19.8-26,19.8-26S290.6,711.3,288.8,718
		z"/>
	<path class="st6" d="M312.9,658.7c-2.2,5.7-8.6,8.5-14.4,6.3c-5.7-2.2-8.5-8.6-6.3-14.4c2.2-5.7,20-20.8,20-20.8
		S315.1,653,312.9,658.7z"/>
	<path class="st6" d="M-5.2,1945.6c-2.8,6-9.9,8.6-15.9,5.9c-6-2.8-8.6-9.9-5.9-15.9c2.8-6,23-21.2,23-21.2S-2.4,1939.6-5.2,1945.6z
		"/>
	<path class="st6" d="M0.1,1886.7c-5,2.1-10.7-0.1-12.9-5.1c-2.1-5,0.1-10.7,5.1-12.9c5-2.1,25.5-0.4,25.5-0.4
		S5.1,1884.6,0.1,1886.7z"/>
	<path class="st6" d="M30.6,1835c-4.7,5-12.7,5.3-17.7,0.5c-5-4.7-5.3-12.7-0.5-17.7c4.7-5,29.8-13.4,29.8-13.4
		S35.3,1829.9,30.6,1835z"/>
	<path class="st6" d="M56.1,1776.2c-2.6,4.5-8.4,6-12.8,3.3c-4.5-2.6-6-8.4-3.3-12.8c2.6-4.5,19.5-14.7,19.5-14.7
		S58.7,1771.8,56.1,1776.2z"/>
	<path class="st6" d="M60.3,1711.7c-4,4.3-10.7,4.5-15,0.4c-4.3-4-4.5-10.7-0.4-15c4-4.3,25.2-11.3,25.2-11.3
		S64.3,1707.4,60.3,1711.7z"/>
	<path class="st6" d="M110.3,1596.1c-4.6,2.9-10.6,1.5-13.6-3c-2.9-4.6-1.5-10.6,3-13.6c4.6-2.9,25.2-4.4,25.2-4.4
		S114.8,1593.2,110.3,1596.1z"/>
	<path class="st6" d="M138,1478.8c-4.7,5.1-12.7,5.4-17.8,0.7c-5.1-4.7-5.4-12.7-0.7-17.8c4.7-5.1,29.8-13.7,29.8-13.7
		S142.7,1473.7,138,1478.8z"/>
	<path class="st6" d="M181.6,1363.1c-5.1,3-11.7,1.2-14.7-3.9c-3-5.1-1.2-11.7,3.9-14.7c5.1-3,27.8-3.6,27.8-3.6
		S186.7,1360.2,181.6,1363.1z"/>
	<path class="st6" d="M224.3,1240.6c-1.4,5.6-7.1,9-12.7,7.6c-5.6-1.4-9-7.1-7.6-12.7c1.4-5.6,16.3-21.9,16.3-21.9
		S225.7,1235,224.3,1240.6z"/>
	<path class="st6" d="M244,1181.1c-1.4,4.7-6.4,7.3-11.1,5.9c-4.7-1.4-7.3-6.4-5.9-11.1c1.4-4.7,14.7-17.9,14.7-17.9
		S245.4,1176.4,244,1181.1z"/>
	<path class="st6" d="M283.5,1070.6c-3.4,5.7-10.7,7.7-16.5,4.3c-5.7-3.4-7.7-10.7-4.3-16.5c3.4-5.7,25-18.9,25-18.9
		S286.9,1064.8,283.5,1070.6z"/>
	<path class="st6" d="M288.8,1005.9c-5.5,2.3-11.7-0.3-14-5.8c-2.3-5.5,0.3-11.7,5.8-14c5.5-2.3,27.9,0,27.9,0
		S294.3,1003.6,288.8,1005.9z"/>
	<path class="st6" d="M346.4,888.7c-1.4,6-7.3,9.8-13.4,8.5c-6-1.4-9.8-7.3-8.5-13.4c1.4-6,16.8-23.8,16.8-23.8
		S347.8,882.7,346.4,888.7z"/>
	<path class="st6" d="M373.6,836.2c-3.9,5.3-11.4,6.5-16.7,2.6c-5.3-3.9-6.5-11.4-2.6-16.7c3.9-5.3,26.7-16.1,26.7-16.1
		S377.6,830.9,373.6,836.2z"/>
	<path class="st6" d="M385.7,777.1c-4,2.7-9.4,1.7-12.1-2.3c-2.7-4-1.7-9.4,2.3-12.1c4-2.7,22.3-4.7,22.3-4.7
		S389.7,774.4,385.7,777.1z"/>
	<path class="st6" d="M419.9,668.1c-5.1,3.5-12.1,2.2-15.6-2.9c-3.5-5.1-2.2-12.1,2.9-15.6c5.1-3.5,28.6-6.1,28.6-6.1
		S425,664.6,419.9,668.1z"/>
	<path class="st6" d="M-17.9,2333c-3.2,4.4-9.3,5.4-13.8,2.2c-4.4-3.2-5.4-9.3-2.2-13.8c3.2-4.4,21.9-13.5,21.9-13.5
		S-14.8,2328.6-17.9,2333z"/>
	<path class="st6" d="M-3.4,2273.5c-2.1,5.6-8.3,8.4-13.9,6.3c-5.6-2.1-8.4-8.3-6.3-13.9c2.1-5.6,19.2-20.5,19.2-20.5
		S-1.3,2267.9-3.4,2273.5z"/>
	<path class="st6" d="M12.9,2213.2c-2.4,5.3-8.7,7.6-14,5.1c-5.3-2.4-7.6-8.7-5.1-14c2.4-5.3,20.2-18.5,20.2-18.5
		S15.3,2208,12.9,2213.2z"/>
	<path class="st6" d="M33.8,2156.3c-5.3,2.1-11.3-0.5-13.4-5.8c-2.1-5.3,0.5-11.3,5.8-13.4c5.3-2.1,27,0.5,27,0.5
		S39.2,2154.2,33.8,2156.3z"/>
	<path class="st6" d="M72.7,2096.1c-2.1,6.2-8.9,9.5-15.1,7.4c-6.2-2.1-9.5-8.9-7.4-15.1c2.1-6.2,20.6-23.3,20.6-23.3
		S74.8,2089.9,72.7,2096.1z"/>
	<path class="st6" d="M82.4,2034c-3.3,5.1-10.1,6.6-15.3,3.3c-5.1-3.3-6.6-10.1-3.3-15.3c3.3-5.1,23.7-16.4,23.7-16.4
		S85.7,2028.9,82.4,2034z"/>
	<path class="st6" d="M119.3,1918.9c-3.4,3.9-9.3,4.3-13.1,0.9c-3.9-3.4-4.3-9.3-0.9-13.1c3.4-3.9,21.8-10.8,21.8-10.8
		S122.7,1915,119.3,1918.9z"/>
	<path class="st6" d="M158.9,1800c-2.4,4.6-8.1,6.4-12.8,4c-4.6-2.4-6.4-8.1-4-12.8c2.4-4.6,19-15.7,19-15.7
		S161.4,1795.3,158.9,1800z"/>
	<path class="st6" d="M197.3,1690.1c-2.4,4.8-8.1,6.7-12.9,4.3c-4.8-2.4-6.7-8.1-4.3-12.9c2.4-4.8,18.9-16.4,18.9-16.4
		S199.6,1685.3,197.3,1690.1z"/>
	<path class="st6" d="M216.1,1641.4c-5.9,2.5-12.7-0.3-15.2-6.2c-2.5-5.9,0.3-12.7,6.2-15.2c5.9-2.5,30.3-0.1,30.3-0.1
		S222.1,1638.9,216.1,1641.4z"/>
	<path class="st6" d="M244.7,1523.6c-5.7,3.2-12.9,1.1-16.1-4.6c-3.2-5.7-1.1-12.9,4.6-16.1c5.7-3.2,30.7-3.5,30.7-3.5
		S250.4,1520.4,244.7,1523.6z"/>
	<path class="st6" d="M274.5,1463.3c-4.1,3-9.9,2.2-12.9-1.9c-3-4.1-2.2-9.9,1.9-12.9c4.1-3,23.3-5.9,23.3-5.9
		S278.6,1460.2,274.5,1463.3z"/>
	<path class="st6" d="M308.4,1336.9c-3.6,3.2-9.2,2.8-12.3-0.9c-3.2-3.6-2.8-9.2,0.9-12.3c3.6-3.2,21.6-7.2,21.6-7.2
		S312,1333.7,308.4,1336.9z"/>
	<path class="st6" d="M353.9,1222.4c-5,2.7-11.3,0.9-14-4.1c-2.7-5-0.9-11.3,4.1-14c5-2.7,26.7-2.9,26.7-2.9
		S358.9,1219.7,353.9,1222.4z"/>
	<path class="st6" d="M386.6,1161.9c-2.9,5.5-9.6,7.6-15.1,4.7c-5.5-2.9-7.6-9.6-4.7-15.1c2.9-5.5,22.3-18.7,22.3-18.7
		S389.5,1156.4,386.6,1161.9z"/>
	<path class="st6" d="M390.3,1100.8c-3,4.1-8.7,5-12.8,2.1c-4.1-3-5-8.7-2.1-12.8c3-4.1,20.3-12.5,20.3-12.5
		S393.3,1096.7,390.3,1100.8z"/>
	<path class="st6" d="M413.7,1050.3c-4.1,3.8-10.5,3.5-14.3-0.6c-3.8-4.1-3.5-10.5,0.6-14.3c4.1-3.8,24.8-9.1,24.8-9.1
		S417.8,1046.5,413.7,1050.3z"/>
	<path class="st6" d="M457.2,936.5c-2.5,4.3-8.1,5.8-12.4,3.3c-4.3-2.5-5.8-8.1-3.3-12.4c2.5-4.3,18.9-14.3,18.9-14.3
		S459.7,932.1,457.2,936.5z"/>
	<path class="st6" d="M483.4,880.7c-2.9,5.4-9.6,7.5-15,4.6c-5.4-2.9-7.5-9.6-4.6-15c2.9-5.4,22.3-18.5,22.3-18.5
		S486.3,875.3,483.4,880.7z"/>
	<path class="st6" d="M489.2,820.1c-3.9,2.8-9.4,1.9-12.2-2s-1.9-9.4,2-12.2c3.9-2.8,22.2-5.2,22.2-5.2S493.1,817.2,489.2,820.1z"/>
	<path class="st6" d="M140,2231.9c-4.8,2.3-10.6,0.2-12.8-4.7c-2.3-4.8-0.2-10.6,4.7-12.8c4.8-2.3,25.2-1.1,25.2-1.1
		S144.8,2229.6,140,2231.9z"/>
	<path class="st6" d="M169.8,2174.2c-4.4,4-11.2,3.6-15.2-0.8c-4-4.4-3.6-11.2,0.8-15.2c4.4-4,26.4-9.4,26.4-9.4
		S174.2,2170.3,169.8,2174.2z"/>
	<path class="st6" d="M195.1,2054.8c-5.9,3.3-13.4,1.1-16.6-4.8c-3.3-5.9-1.1-13.4,4.8-16.6c5.9-3.3,31.7-3.5,31.7-3.5
		S201,2051.5,195.1,2054.8z"/>
	<path class="st6" d="M242.5,1935.2c-4.9,3.7-11.8,2.7-15.5-2.2c-3.7-4.9-2.7-11.8,2.2-15.5c4.9-3.7,28-7.1,28-7.1
		S247.4,1931.5,242.5,1935.2z"/>
	<path class="st6" d="M263.5,1873.9c-4.7,4.3-12,4.1-16.3-0.6c-4.3-4.7-4.1-12,0.6-16.3c4.7-4.3,28.2-10.5,28.2-10.5
		S268.2,1869.5,263.5,1873.9z"/>
	<path class="st6" d="M284.8,1810.9c-2.6,5.1-8.9,7.2-14,4.6c-5.1-2.6-7.2-8.9-4.6-14c2.6-5.1,20.7-17.7,20.7-17.7
		S287.4,1805.8,284.8,1810.9z"/>
	<path class="st6" d="M310.9,1700c-5.3,2.7-11.9,0.6-14.6-4.8c-2.7-5.3-0.6-11.9,4.8-14.6c5.3-2.7,28.2-2.1,28.2-2.1
		S316.2,1697.3,310.9,1700z"/>
	<path class="st6" d="M366.4,1578.2c-2,5.6-8.1,8.5-13.7,6.5c-5.6-2-8.5-8.1-6.5-13.7c2-5.6,18.8-20.8,18.8-20.8
		S368.4,1572.6,366.4,1578.2z"/>
	<path class="st6" d="M379.2,1521.5c-2.4,5.3-8.6,7.7-13.9,5.4c-5.3-2.4-7.7-8.6-5.4-13.9c2.4-5.3,20-19,20-19
		S381.6,1516.1,379.2,1521.5z"/>
	<path class="st6" d="M412.2,1409.5c-5.5,2-11.5-0.7-13.6-6.2c-2-5.5,0.7-11.5,6.2-13.6c5.5-2,27.5,1,27.5,1
		S417.7,1407.5,412.2,1409.5z"/>
	<path class="st6" d="M465.4,1301.1c-3.8,5.2-11.1,6.4-16.3,2.6c-5.2-3.8-6.4-11.1-2.6-16.3c3.8-5.2,26-16,26-16
		S469.2,1295.8,465.4,1301.1z"/>
	<path class="st6" d="M482,1239.7c-3.8,5-11,5.9-15.9,2.1c-5-3.8-5.9-11-2.1-15.9c3.8-5,25.7-14.8,25.7-14.8
		S485.8,1234.7,482,1239.7z"/>
	<path class="st6" d="M525,1123.5c-1.6,4.7-6.7,7.1-11.4,5.5c-4.7-1.6-7.1-6.7-5.5-11.4c1.6-4.7,15.5-17.4,15.5-17.4
		S526.6,1118.8,525,1123.5z"/>
	<path class="st6" d="M544.6,1062.5c-2,4.7-7.5,6.9-12.2,4.8c-4.7-2-6.9-7.5-4.8-12.2c2-4.7,17.4-16.8,17.4-16.8
		S546.7,1057.8,544.6,1062.5z"/>
	<path class="st6" d="M560.6,1006.3c-2.6,5-8.7,6.9-13.6,4.4c-5-2.6-6.9-8.7-4.4-13.6c2.6-5,20.2-17,20.2-17
		S563.1,1001.3,560.6,1006.3z"/>
	<path class="st6" d="M602.1,896.2c-3.9,5.5-11.6,6.8-17.1,2.9c-5.5-3.9-6.8-11.6-2.9-17.1c3.9-5.5,27.1-16.9,27.1-16.9
		S606,890.7,602.1,896.2z"/>
	<path class="st6" d="M610.3,831.6c-3.5,4.7-10.1,5.6-14.8,2.1c-4.7-3.5-5.6-10.1-2.1-14.8c3.5-4.7,23.8-14,23.8-14
		S613.8,826.9,610.3,831.6z"/>
	<path class="st6" d="M265.8,2232c-3.4,5.3-10.4,6.9-15.7,3.5c-5.3-3.4-6.9-10.4-3.5-15.7c3.4-5.3,24.3-17,24.3-17
		S269.2,2226.7,265.8,2232z"/>
	<path class="st6" d="M278.9,2166.8c-4,2.9-9.6,2-12.5-1.9c-2.9-4-2-9.6,1.9-12.5c4-2.9,22.6-5.5,22.6-5.5
		S282.9,2163.9,278.9,2166.8z"/>
	<path class="st6" d="M303.5,2109.3c-1.2,4.8-6.1,7.6-10.8,6.4c-4.8-1.2-7.6-6.1-6.4-10.8c1.2-4.8,14-18.5,14-18.5
		S304.8,2104.5,303.5,2109.3z"/>
	<path class="st6" d="M345.5,2002.7c-5.9,2.5-12.7-0.2-15.2-6.1c-2.5-5.9,0.2-12.7,6.1-15.2c5.9-2.5,30.2-0.4,30.2-0.4
		S351.4,2000.2,345.5,2002.7z"/>
	<path class="st6" d="M356.8,1935.8c-4.5,2.3-10,0.6-12.3-3.9c-2.3-4.5-0.6-10,3.9-12.3c4.5-2.3,23.7-2.1,23.7-2.1
		S361.3,1933.4,356.8,1935.8z"/>
	<path class="st6" d="M394.9,1818.6c-4.7,4-11.6,3.4-15.6-1.2c-4-4.7-3.4-11.6,1.2-15.6c4.6-4,27.5-8.9,27.5-8.9
		S399.5,1814.6,394.9,1818.6z"/>
	<path class="st6" d="M429.8,1768.1c-4.5,1.9-9.7-0.2-11.6-4.7c-1.9-4.5,0.2-9.7,4.7-11.6c4.5-1.9,23.1-0.2,23.1-0.2
		S434.3,1766.2,429.8,1768.1z"/>
	<path class="st6" d="M455.6,1644.1c-5.2,3.2-12,1.6-15.2-3.6c-3.2-5.2-1.6-12,3.6-15.2c5.2-3.2,28.3-4.6,28.3-4.6
		S460.8,1640.9,455.6,1644.1z"/>
	<path class="st6" d="M491.4,1588.1c-2.4,4.2-7.7,5.7-11.9,3.4c-4.2-2.4-5.7-7.7-3.4-11.9c2.4-4.2,17.9-14.1,17.9-14.1
		S493.7,1583.8,491.4,1588.1z"/>
	<path class="st6" d="M514.6,1533.4c-5,4.8-13,4.6-17.7-0.4c-4.8-5-4.6-13,0.4-17.7c5-4.8,30.5-11.8,30.5-11.8
		S519.6,1528.6,514.6,1533.4z"/>
	<path class="st6" d="M528.1,1465.9c-3.4,4.1-9.6,4.7-13.7,1.3c-4.1-3.4-4.7-9.6-1.3-13.7c3.4-4.1,22.5-11.8,22.5-11.8
		S531.5,1461.8,528.1,1465.9z"/>
	<path class="st6" d="M559.6,1349c-4,3.2-9.9,2.5-13.1-1.5c-3.2-4-2.5-9.9,1.5-13.1c4-3.2,23.4-6.7,23.4-6.7
		S563.6,1345.8,559.6,1349z"/>
	<path class="st6" d="M596.7,1296.4c-1.6,4.7-6.7,7.3-11.5,5.7c-4.7-1.6-7.3-6.7-5.7-11.5c1.6-4.7,15.5-17.7,15.5-17.7
		S598.3,1291.7,596.7,1296.4z"/>
	<path class="st6" d="M629.2,1176.5c-2.5,4.2-7.9,5.6-12.1,3.1c-4.2-2.5-5.6-7.9-3.1-12.1c2.5-4.2,18.4-13.8,18.4-13.8
		S631.7,1172.3,629.2,1176.5z"/>
	<path class="st6" d="M641.8,1112.3c-2.2,5.9-8.8,8.9-14.7,6.7c-5.9-2.2-8.9-8.8-6.7-14.7c2.2-5.9,20.4-21.8,20.4-21.8
		S644,1106.4,641.8,1112.3z"/>
	<path class="st6" d="M658.8,1055.3c-3.5,4.2-9.7,4.9-13.9,1.4c-4.2-3.5-4.9-9.7-1.4-13.9c3.5-4.2,22.7-12.3,22.7-12.3
		S662.3,1051.1,658.8,1055.3z"/>
	<path class="st6" d="M692.9,940.6c-3.3,3.8-9.1,4.1-12.8,0.8c-3.8-3.3-4.1-9.1-0.8-12.8c3.3-3.8,21.3-10.4,21.3-10.4
		S696.2,936.8,692.9,940.6z"/>
	<path class="st6" d="M418.8,2156.2c-2.8,5-9.2,6.8-14.2,4c-5-2.8-6.8-9.2-4-14.2c2.8-5,21.3-16.8,21.3-16.8
		S421.6,2151.2,418.8,2156.2z"/>
	<path class="st6" d="M431.3,2102.9c-6.1,2.3-13-0.7-15.3-6.8c-2.3-6.1,0.7-13,6.8-15.3c6.1-2.3,30.9,0.9,30.9,0.9
		S437.4,2100.5,431.3,2102.9z"/>
	<path class="st6" d="M574.6,1692c-1.6,4.9-6.9,7.6-11.8,6c-4.9-1.6-7.6-6.9-6-11.8c1.6-4.9,15.9-18.5,15.9-18.5
		S576.3,1687.1,574.6,1692z"/>
	<path class="st6" d="M613.3,1581.6c-5,4-12.4,3.2-16.4-1.9c-4-5-3.2-12.4,1.9-16.4c5-4,29.2-8.3,29.2-8.3
		S618.3,1577.6,613.3,1581.6z"/>
	<path class="st6" d="M629.6,1517.3c-1.4,4.9-6.6,7.7-11.5,6.3c-4.9-1.4-7.7-6.6-6.3-11.5c1.4-4.9,15.1-18.8,15.1-18.8
		S631,1512.4,629.6,1517.3z"/>
	<path class="st6" d="M664.2,1399.6c-4.1,2.8-9.7,1.7-12.4-2.3c-2.8-4.1-1.7-9.7,2.3-12.4c4.1-2.8,22.8-4.8,22.8-4.8
		S668.3,1396.8,664.2,1399.6z"/>
	<path class="st6" d="M697,1344.3c-3.6,3.6-9.4,3.6-13,0.1c-3.6-3.6-3.6-9.4-0.1-13c3.6-3.6,22.1-9.3,22.1-9.3
		S700.6,1340.7,697,1344.3z"/>
	<path class="st6" d="M705.5,1286.7c-3.9,3.2-9.7,2.6-12.8-1.3c-3.2-3.9-2.6-9.7,1.3-12.8c3.9-3.2,22.8-6.8,22.8-6.8
		S709.4,1283.5,705.5,1286.7z"/>
	<path class="st6" d="M730.3,1230.6c-2.6,5.4-9.1,7.6-14.5,5c-5.4-2.6-7.6-9.1-5-14.5c2.6-5.4,21.2-18.7,21.2-18.7
		S733,1225.2,730.3,1230.6z"/>
	<path class="st6" d="M766,1113.6c-5.2,2-11-0.6-12.9-5.8c-2-5.2,0.6-11,5.8-12.9c5.2-2,26.1,0.7,26.1,0.7S771.1,1111.6,766,1113.6z
		"/>
	<path class="st6" d="M792.9,1056.1c-5,3.1-11.5,1.5-14.6-3.5c-3.1-5-1.5-11.5,3.5-14.6c5-3.1,27.3-4.3,27.3-4.3
		S797.8,1053,792.9,1056.1z"/>
	<path class="st6" d="M815.6,935.2c-6.3,2.6-13.5-0.4-16.2-6.7c-2.6-6.3,0.4-13.5,6.7-16.2c6.3-2.6,32.2,0,32.2,0
		S821.9,932.6,815.6,935.2z"/>
	<path class="st6" d="M713.1,1658.7c-4.2,4.3-11.1,4.3-15.3,0.1c-4.3-4.2-4.3-11.1-0.1-15.3c4.2-4.3,26-11,26-11
		S717.3,1654.4,713.1,1658.7z"/>
	<path class="st6" d="M743.2,1543.2c-5.6,3.6-13,2-16.6-3.6c-3.6-5.6-2-13,3.6-16.6c5.6-3.6,30.8-5.5,30.8-5.5
		S748.8,1539.6,743.2,1543.2z"/>
	<path class="st6" d="M792.1,1428.8c-5.5,1.9-11.4-0.9-13.4-6.4c-1.9-5.5,0.9-11.4,6.4-13.4c5.5-1.9,27.3,1.4,27.3,1.4
		S797.5,1426.9,792.1,1428.8z"/>
	<path class="st6" d="M810.8,1369.9c-5.1,3.2-11.8,1.8-15-3.3c-3.2-5.1-1.8-11.8,3.3-15c5.1-3.2,27.9-5,27.9-5
		S815.8,1366.6,810.8,1369.9z"/>
	<path class="st6" d="M1236.7,2253.3c-5.1,3.2-11.8,1.8-15-3.3c-3.2-5.1-1.8-11.8,3.3-15c5.1-3.2,27.9-5,27.9-5
		S1241.7,2250,1236.7,2253.3z"/>
	<path class="st6" d="M858.9,1246c-1.2,4.8-6.1,7.8-11,6.6c-4.8-1.2-7.8-6.1-6.6-11c1.2-4.8,14.1-18.9,14.1-18.9
		S860.1,1241.2,858.9,1246z"/>
	<path class="st6" d="M880.2,1189.8c-3.3,5-10,6.3-15,3c-5-3.3-6.3-10-3-15c3.3-5,23.5-15.6,23.5-15.6S883.5,1184.9,880.2,1189.8z"
		/>
	<path class="st6" d="M893.5,1137.4c-4.7,5-12.6,5.3-17.6,0.5c-5-4.7-5.3-12.6-0.5-17.6c4.7-5,29.7-13.3,29.7-13.3
		S898.3,1132.4,893.5,1137.4z"/>
	<path class="st6" d="M912.2,1074.9c-5.1,2.4-11.2,0.3-13.6-4.8c-2.4-5.1-0.3-11.2,4.8-13.6c5.1-2.4,26.6-1.4,26.6-1.4
		S917.3,1072.4,912.2,1074.9z"/>
	<path class="st6" d="M920.1,1004.7c-3,4.2-8.8,5.3-13.1,2.3s-5.3-8.8-2.3-13.1c3-4.2,20.7-13.1,20.7-13.1
		S923.1,1000.5,920.1,1004.7z"/>
	<path class="st6" d="M812.9,1695c-4.4,2.3-9.8,0.7-12.2-3.7c-2.3-4.4-0.7-9.8,3.7-12.2c4.4-2.3,23.3-2.2,23.3-2.2
		S817.3,1692.7,812.9,1695z"/>
	<path class="st6" d="M853.4,1640.2c-2.9,6.3-10.3,9.1-16.6,6.2c-6.3-2.9-9.1-10.3-6.2-16.6c2.9-6.3,24-22.3,24-22.3
		S856.2,1633.9,853.4,1640.2z"/>
	<path class="st6" d="M863.3,1573.9c-2.7,4.7-8.7,6.4-13.4,3.8c-4.7-2.7-6.4-8.7-3.8-13.4c2.7-4.7,20.2-15.8,20.2-15.8
		S865.9,1569.2,863.3,1573.9z"/>
	<path class="st6" d="M908.5,1457.5c-1.4,4.8-6.4,7.6-11.2,6.3c-4.8-1.4-7.6-6.4-6.3-11.2c1.4-4.8,14.7-18.6,14.7-18.6
		S909.9,1452.6,908.5,1457.5z"/>
	<path class="st6" d="M912.3,1398.8c-4.4,3.2-10.6,2.2-13.9-2.2s-2.2-10.6,2.2-13.9c4.4-3.2,25.2-6,25.2-6
		S916.7,1395.6,912.3,1398.8z"/>
	<path class="st6" d="M962.9,1286.3c-5,3.5-11.9,2.2-15.3-2.7c-3.5-5-2.2-11.9,2.7-15.3c5-3.5,28.1-6.1,28.1-6.1
		S967.9,1282.8,962.9,1286.3z"/>
	<path class="st6" d="M981.6,1230.9c-4.3,3.6-10.7,3.1-14.3-1.1c-3.6-4.3-3.1-10.7,1.1-14.3c4.3-3.6,25.2-8.1,25.2-8.1
		S985.9,1227.3,981.6,1230.9z"/>
	<path class="st6" d="M1010.7,1112.6c-4.5,3.7-11.1,3-14.8-1.5c-3.7-4.5-3-11.1,1.5-14.8c4.5-3.7,26.3-7.8,26.3-7.8
		S1015.3,1108.9,1010.7,1112.6z"/>
	<path class="st6" d="M1052.2,1054.2c-1.5,6.2-7.7,10.1-13.9,8.7c-6.2-1.5-10.1-7.7-8.7-13.9c1.5-6.2,17.6-24.5,17.6-24.5
		S1053.6,1047.9,1052.2,1054.2z"/>
	<path class="st6" d="M1059.6,997.7c-4.2,2.9-10,1.8-12.9-2.5c-2.9-4.2-1.8-10,2.5-12.9c4.2-2.9,23.7-4.8,23.7-4.8
		S1063.8,994.9,1059.6,997.7z"/>
	<path class="st6" d="M960.1,1646.4c-3.2,5.4-10.1,7.2-15.5,4c-5.4-3.2-7.2-10.1-4-15.5s23.7-17.8,23.7-17.8
		S963.3,1641,960.1,1646.4z"/>
	<path class="st6" d="M980.1,1589.6c-3.3,4.6-9.7,5.6-14.3,2.4c-4.6-3.3-5.6-9.7-2.4-14.3c3.3-4.6,22.6-14.1,22.6-14.1
		S983.4,1585,980.1,1589.6z"/>
	<path class="st6" d="M993.3,1530.5c-1.4,6.4-7.8,10.5-14.2,9.1c-6.4-1.4-10.5-7.8-9.1-14.2c1.4-6.4,17.8-25.5,17.8-25.5
		S994.7,1524.1,993.3,1530.5z"/>
	<path class="st6" d="M1164.8,2138.1c-1.4,6.4-7.8,10.5-14.2,9.1c-6.4-1.4-10.5-7.8-9.1-14.2c1.4-6.4,17.8-25.5,17.8-25.5
		S1166.2,2131.7,1164.8,2138.1z"/>
	<path class="st6" d="M1024.4,1473.4c-2.3,5.5-8.6,8.1-14.1,5.8c-5.5-2.3-8.1-8.6-5.8-14.1c2.3-5.5,20-19.8,20-19.8
		S1026.7,1467.9,1024.4,1473.4z"/>
	<path class="st6" d="M1043.7,1355.8c-3.5,3.9-9.6,4.3-13.5,0.7c-3.9-3.5-4.3-9.6-0.7-13.5c3.5-3.9,22.4-10.8,22.4-10.8
		S1047.2,1351.8,1043.7,1355.8z"/>
	<path class="st6" d="M1064.8,1302.5c-4.3,3.7-10.8,3.3-14.5-1c-3.7-4.3-3.3-10.8,1-14.5c4.3-3.7,25.4-8.5,25.4-8.5
		S1069.1,1298.8,1064.8,1302.5z"/>
	<path class="st6" d="M1084.4,1244.2c-5.5,2.9-12.3,0.7-15.2-4.8c-2.9-5.5-0.7-12.3,4.8-15.2c5.5-2.9,29.2-2.6,29.2-2.6
		S1089.9,1241.3,1084.4,1244.2z"/>
	<path class="st6" d="M1122.9,1115.8c-2.6,4.1-7.9,5.2-12,2.7c-4.1-2.6-5.2-7.9-2.7-12c2.6-4.1,18.6-13,18.6-13
		S1125.5,1111.7,1122.9,1115.8z"/>
	<path class="st6" d="M1182.4,1004.7c-1.6,6.4-8.2,10.4-14.6,8.7s-10.4-8.2-8.7-14.6c1.6-6.4,18.8-25.2,18.8-25.2
		S1184,998.3,1182.4,1004.7z"/>
	<path class="st6" d="M1005.6,1857.2c-4.1,3.1-10,2.3-13.1-1.9s-2.3-10,1.9-13.1c4.1-3.1,23.6-6,23.6-6S1009.7,1854.1,1005.6,1857.2
		z"/>
	<path class="st6" d="M1059.8,1757.8c-4.1,4.5-11.1,4.7-15.6,0.6s-4.7-11.1-0.6-15.6c4.1-4.5,26.1-11.9,26.1-11.9
		S1063.9,1753.3,1059.8,1757.8z"/>
	<path class="st6" d="M949.8,1983.3c-4.1,4.5-11.1,4.7-15.6,0.6c-4.5-4.1-4.7-11.1-0.6-15.6c4.1-4.5,26.1-11.9,26.1-11.9
		S954,1978.8,949.8,1983.3z"/>
	<path class="st6" d="M1089.8,1628.2c-2.4,4.1-7.7,5.5-11.8,3.1c-4.1-2.4-5.5-7.7-3.1-11.8c2.4-4.1,18-13.6,18-13.6
		S1092.3,1624.1,1089.8,1628.2z"/>
	<path class="st6" d="M1118.8,1519.2c-4.7,4.3-12,4-16.3-0.7c-4.3-4.7-4-12,0.7-16.3c4.7-4.3,28.3-10.3,28.3-10.3
		S1123.5,1514.8,1118.8,1519.2z"/>
	<path class="st6" d="M1155.6,1462.8c-3.1,5-9.7,6.6-14.7,3.4c-5-3.1-6.6-9.7-3.4-14.7c3.1-5,22.7-16.2,22.7-16.2
		S1158.7,1457.8,1155.6,1462.8z"/>
	<path class="st6" d="M1179.5,1340.8c-4.7,3.7-11.5,2.9-15.2-1.7s-2.9-11.5,1.7-15.2c4.7-3.7,27.1-7.7,27.1-7.7
		S1184.2,1337.1,1179.5,1340.8z"/>
	<path class="st6" d="M1209.3,1284.7c-5,4.6-12.8,4.3-17.4-0.7c-4.6-5-4.3-12.8,0.7-17.4c5-4.6,30.1-11,30.1-11
		S1214.3,1280.1,1209.3,1284.7z"/>
	<path class="st6" d="M1240.4,1164c-1.1,4.7-5.8,7.6-10.5,6.4c-4.7-1.1-7.6-5.8-6.4-10.5c1.1-4.7,13.4-18.4,13.4-18.4
		S1241.5,1159.3,1240.4,1164z"/>
	<path class="st6" d="M1253.5,1109.3c-4.1,4.9-11.5,5.6-16.4,1.4s-5.6-11.5-1.4-16.4c4.1-4.9,27-14,27-14
		S1257.6,1104.4,1253.5,1109.3z"/>
	<path class="st6" d="M1271.6,1053.2c-5.9,2.8-13.1,0.3-15.9-5.7c-2.8-5.9-0.3-13.1,5.7-15.9c5.9-2.8,31-1.6,31-1.6
		S1277.6,1050.4,1271.6,1053.2z"/>
	<path class="st6" d="M1182.4,1737.6c-4.7,3.5-11.3,2.6-14.8-2.1s-2.6-11.3,2.1-14.8c4.7-3.5,26.6-6.8,26.6-6.8
		S1187.1,1734.1,1182.4,1737.6z"/>
	<path class="st6" d="M1216.1,1621.6c-5.1,4.6-13,4.3-17.7-0.9c-4.6-5.1-4.3-13,0.9-17.7c5.1-4.6,30.7-11,30.7-11
		S1221.2,1617,1216.1,1621.6z"/>
	<path class="st6" d="M1236.4,1865.2c-5.1,4.6-13,4.3-17.7-0.9c-4.6-5.1-4.3-13,0.9-17.7c5.1-4.6,30.7-11,30.7-11
		S1241.6,1860.6,1236.4,1865.2z"/>
	<path class="st6" d="M1254.7,1561.2c-1.5,6.4-8,10.3-14.4,8.8c-6.4-1.5-10.3-8-8.8-14.4c1.5-6.4,18.3-25.1,18.3-25.1
		S1256.3,1554.8,1254.7,1561.2z"/>
	<path class="st6" d="M1204.2,2002.8c-5.1,4.6-13,4.3-17.7-0.9c-4.6-5.1-4.3-13,0.9-17.7c5.1-4.6,30.7-11,30.7-11
		S1209.3,1998.2,1204.2,2002.8z"/>
	<path class="st6" d="M1106.6,1952.9c-1.5,6.4-8,10.3-14.4,8.8c-6.4-1.5-10.3-8-8.8-14.4c1.5-6.4,18.3-25.1,18.3-25.1
		S1108.1,1946.5,1106.6,1952.9z"/>
	<path class="st6" d="M1016.4,2178.8c-5.1,4.6-13,4.3-17.7-0.9c-4.6-5.1-4.3-13,0.9-17.7c5.1-4.6,30.7-11,30.7-11
		S1021.5,2174.2,1016.4,2178.8z"/>
	<path class="st6" d="M1055,2118.4c-1.5,6.4-8,10.3-14.4,8.8c-6.4-1.5-10.3-8-8.8-14.4c1.5-6.4,18.3-25.1,18.3-25.1
		S1056.6,2112,1055,2118.4z"/>
	<path class="st6" d="M1258.9,1504.9c-3.8,3.6-9.9,3.5-13.6-0.4c-3.6-3.8-3.5-9.9,0.4-13.6c3.8-3.6,23.4-8.9,23.4-8.9
		S1262.8,1501.3,1258.9,1504.9z"/>
	<path class="st6" d="M1272.8,1445.2c-3.4,5.2-10.4,6.7-15.6,3.3c-5.2-3.4-6.7-10.4-3.3-15.6c3.4-5.2,24.2-16.6,24.2-16.6
		S1276.1,1440,1272.8,1445.2z"/>
	<path class="st6" d="M1303,1391.2c-1.7,6.8-8.6,10.9-15.4,9.2c-6.8-1.7-10.9-8.6-9.2-15.4c1.7-6.8,19.7-26.5,19.7-26.5
		S1304.7,1384.4,1303,1391.2z"/>
</g>
<rect id="cache-ruche_1_" x="468.7" y="2164.4" class="st7" width="442" height="56.2"/>
</svg>
