<?xml version="1.0" encoding="utf-8"?>
<!-- Generator: Adobe Illustrator 19.2.0, SVG Export Plug-In . SVG Version: 6.00 Build 0)  -->
<svg version="1.1" id="P3" xmlns="http://www.w3.org/2000/svg" xmlns:xlink="http://www.w3.org/1999/xlink" x="0px" y="0px"
	 viewBox="0 0 1281.9 967.3" style="enable-background:new 0 0 1281.9 967.3;" xml:space="preserve">
<style type="text/css">
	.st0{fill:none;}
	.st1{fill:#FFE889;}
	.st2{fill:#FFFFFF;}
	.st3{fill:#55BC8A;}
	.st4{fill:#666666;}
</style>
<title>section_3</title>
<g id="sortie_de_ruche_1_">
	<path class="st0" d="M606.2,483.6c67.1,67.1,120,63.8,286.6,23.2c174.5-42.5,309.1-155.8,277.5-251.9c0,0-30,12-19.5-12.5
		c0,0-18.4,10.7-23.1-1.7c-1.4-3.7-15.4,3.9-15.4,3.9c-9.4,5.4-19.1-8.1-19.1-8.1c0,2.2,74.6,120.1,0.7,162.3
		c-83.4,47.7-198.5,132.8-335,151.1c-160,21.4-192.6-66.3-192.6-66.3"/>
	<path class="st0" d="M683.5,477.9c15.6,41.1,73.3,75.2,261.8-25.1c131.5-70,134.9-79.5,108.9-201.9c0,0-10.2,18.7-38.9-8.6
		c0,0-14.9,17.1-20.2,3.2c0,0-27,21.4-37.3,0.8c0,0,93.9,81.7,34.5,130C937,421.1,820.6,520.8,727.2,521.6
		c-64.8,0.5-80.6-37.9-80.6-37.9"/>
	<path class="st0" d="M540.5,484c26.4,86.9,286.8,141,464.4-16c92.6-81.9,172.9-36.7,192.8-204.7c2.4-19.9-19.2-26.7-29.1-10.1
		s30.4-31.4,36.6-9s10.8-20.7,23,1.7c0,0,22.7,144.4-235.3,246.3s-394.1,72.1-468.2-8.5"/>
	<path class="st0" d="M446.9,479.8c105.1,146.8,361.4,133.6,593.9,20.8c168.9-81.9,224.5-61.9,230.8-220.1c0,0-16.2-9.2,6.1-38.9
		c0,0-22.7,28.4-15.2,9.6c0,0-6.7,29.8-14.3,10.1c0,0-20.3,4.5-21.6-11.3c0,0,59.4,70.2,6.1,120.1c-41.3,38.6-105,76.8-260.5,136.9
		c-150.1,58-339.1,111.2-497.4-28.9"/>
	<rect id="cache-ruche" x="423.1" y="440.2" class="st1" width="361.4" height="55.8"/>
</g>
<g id="abeilles-decors_x5F_fin">
	<g>
		<path id="XMLID_5421_" class="st2" d="M1021.3,820.5L1021.3,820.5c0,0,2.7-0.5,6.6-1.4c4.6-1,13.2-3.4,13.1-9.3
			c-0.7-6.9-12-12.3-18.6,7.2C1022,818.2,1021.6,819.4,1021.3,820.5z"/>
		<g id="XMLID_5416_">
			<polygon id="XMLID_5420_" class="st3" points="1030.5,815.9 1035.9,821.8 1039.6,819.2 1033.5,812.5 			"/>
			<polygon id="XMLID_5419_" class="st4" points="1027.9,819 1032.5,824.1 1032.5,824.1 1032.5,824.1 1035.9,821.8 1030.5,815.9 			
				"/>
			<path id="XMLID_5418_" class="st4" d="M1033.5,812.5l6.1,6.8c0.5-0.4,1-0.9,1.5-1.3c0.7-0.6,1.2-1.3,1.5-2l-5.5-6.1
				c-0.8,0.3-1.5,0.7-2.2,1.3C1034.5,811.6,1034,812,1033.5,812.5z"/>
			<path id="XMLID_5417_" class="st3" d="M1043.1,812L1043.1,812L1043.1,812c-0.1-0.6-0.3-1.1-0.5-1.7c-0.5-0.3-1.1-0.5-1.6-0.6l0,0
				l0,0c-1.3-0.4-2.6-0.4-3.9,0.1l5.5,6.1C1043.2,814.7,1043.3,813.3,1043.1,812z"/>
		</g>
		<polygon id="XMLID_5415_" class="st3" points="1032.5,824.1 1030.4,830.5 1023.8,831.9 1019.3,826.9 1021.3,820.5 1027.9,819 		
			"/>
		<path id="XMLID_5414_" class="st2" d="M1030.4,830.5L1030.4,830.5c0,0,0.8-2.6,2.1-6.4c1.5-4.5,4.7-12.8,10.6-12.1
			c6.8,1.3,11,13.2-9,17.8C1032.8,830.1,1031.5,830.3,1030.4,830.5z"/>
	</g>
	<g>
		<path id="XMLID_5413_" class="st2" d="M1153.9,821.1L1153.9,821.1c0,0-2.8-0.4-7-1.1c-4.9-0.8-14-2.7-14.2-8.9
			c0.3-7.2,11.7-13.5,19.8,6.4C1153.1,818.7,1153.5,819.9,1153.9,821.1z"/>
		<g id="XMLID_5408_">
			<polygon id="XMLID_5412_" class="st3" points="1144,816.8 1138.8,823.3 1134.8,820.9 1140.8,813.5 			"/>
			<polygon id="XMLID_5411_" class="st4" points="1146.9,820 1142.5,825.5 1142.5,825.5 1142.5,825.5 1138.8,823.3 1144,816.8 			
				"/>
			<path id="XMLID_5410_" class="st4" d="M1140.8,813.5l-6,7.4c-0.5-0.4-1.1-0.8-1.6-1.3c-0.7-0.6-1.3-1.3-1.7-2l5.4-6.6
				c0.8,0.2,1.6,0.6,2.3,1.2C1139.7,812.6,1140.2,813,1140.8,813.5z"/>
			<path id="XMLID_5409_" class="st3" d="M1130.7,813.5L1130.7,813.5L1130.7,813.5c0.1-0.6,0.2-1.2,0.4-1.7c0.5-0.3,1.1-0.6,1.6-0.7
				l0,0l0,0c1.3-0.4,2.7-0.5,4.1-0.1l-5.4,6.6C1130.8,816.3,1130.6,814.9,1130.7,813.5z"/>
		</g>
		<polygon id="XMLID_5407_" class="st3" points="1142.5,825.5 1145,832.1 1152,833.1 1156.4,827.6 1153.9,821.1 1146.9,820 		"/>
		<path id="XMLID_5406_" class="st2" d="M1145,832.1L1145,832.1c0,0-1-2.6-2.5-6.6c-1.8-4.6-5.6-13.1-11.7-11.9
			c-7,1.8-10.7,14.3,10.5,18C1142.5,831.8,1143.8,831.9,1145,832.1z"/>
	</g>
	<g>
		<path id="XMLID_46770_" class="st2" d="M124.7,726.3L124.7,726.3c0,0,2.7-0.5,6.6-1.4c4.6-1,13.2-3.4,13.1-9.3
			c-0.7-6.9-12-12.3-18.6,7.2C125.4,724,125,725.2,124.7,726.3z"/>
		<g id="XMLID_46765_">
			<polygon id="XMLID_46769_" class="st3" points="133.9,721.7 139.3,727.6 143,725 136.9,718.3 			"/>
			<polygon id="XMLID_46768_" class="st4" points="131.3,724.9 135.9,729.9 135.9,729.9 135.9,729.9 139.3,727.6 133.9,721.7 			"/>
			<path id="XMLID_46767_" class="st4" d="M136.9,718.3l6.1,6.8c0.5-0.4,1-0.9,1.5-1.3c0.7-0.6,1.2-1.3,1.5-2l-5.5-6.1
				c-0.8,0.3-1.5,0.7-2.2,1.3C137.8,717.4,137.3,717.8,136.9,718.3z"/>
			<path id="XMLID_46766_" class="st3" d="M146.5,717.8L146.5,717.8L146.5,717.8c-0.1-0.6-0.3-1.1-0.5-1.7c-0.5-0.3-1.1-0.5-1.6-0.6
				l0,0l0,0c-1.3-0.4-2.6-0.4-3.9,0.1l5.5,6.1C146.5,720.5,146.7,719.1,146.5,717.8z"/>
		</g>
		<polygon id="XMLID_46764_" class="st3" points="135.9,729.9 133.8,736.3 127.2,737.7 122.6,732.7 124.7,726.3 131.3,724.9 		"/>
		<path id="XMLID_46763_" class="st2" d="M133.8,736.3L133.8,736.3c0,0,0.8-2.6,2.1-6.4c1.5-4.5,4.7-12.8,10.6-12.1
			c6.8,1.3,11,13.2-9,17.8C136.1,735.9,134.9,736.1,133.8,736.3z"/>
	</g>
	<g>
		<path id="XMLID_46762_" class="st2" d="M257.3,726.9L257.3,726.9c0,0-2.8-0.4-7-1.1c-4.9-0.8-14-2.7-14.2-8.9
			c0.3-7.2,11.7-13.5,19.8,6.4C256.4,724.5,256.9,725.7,257.3,726.9z"/>
		<g id="XMLID_46757_">
			<polygon id="XMLID_46761_" class="st3" points="247.4,722.6 242.2,729.1 238.2,726.7 244.1,719.3 			"/>
			<polygon id="XMLID_46760_" class="st4" points="250.3,725.8 245.9,731.3 245.9,731.3 245.9,731.3 242.2,729.1 247.4,722.6 			"/>
			<path id="XMLID_46759_" class="st4" d="M244.1,719.3l-6,7.4c-0.5-0.4-1.1-0.8-1.6-1.3c-0.7-0.6-1.3-1.3-1.7-2l5.4-6.6
				c0.8,0.2,1.6,0.6,2.3,1.2C243.1,718.4,243.6,718.8,244.1,719.3z"/>
			<path id="XMLID_46758_" class="st3" d="M234.1,719.3L234.1,719.3L234.1,719.3c0.1-0.6,0.2-1.2,0.4-1.7c0.5-0.3,1.1-0.6,1.6-0.7
				l0,0l0,0c1.3-0.4,2.7-0.5,4.1-0.1l-5.4,6.6C234.2,722.1,234,720.7,234.1,719.3z"/>
		</g>
		<polygon id="XMLID_46756_" class="st3" points="245.9,731.3 248.4,737.9 255.4,738.9 259.8,733.5 257.3,726.9 250.3,725.8 		"/>
		<path id="XMLID_46755_" class="st2" d="M248.4,737.9L248.4,737.9c0,0-1-2.6-2.5-6.6c-1.8-4.6-5.6-13.1-11.7-11.9
			c-7,1.8-10.7,14.3,10.5,18C245.9,737.6,247.2,737.7,248.4,737.9z"/>
	</g>
</g>
</svg>
