<?xml version="1.0" encoding="utf-8"?>
<!-- Generator: Adobe Illustrator 19.2.0, SVG Export Plug-In . SVG Version: 6.00 Build 0)  -->
<svg version="1.1" id="Layer_1" xmlns="http://www.w3.org/2000/svg" xmlns:xlink="http://www.w3.org/1999/xlink" x="0px" y="0px"
	 viewBox="0 0 694.9 200" style="enable-background:new 0 0 694.9 200;" xml:space="preserve">
<style type="text/css">
	.st0{fill:#17FFB5;}
	.st1{display:none;}
	.st2{font-family:'OpenSansLight-Italic';}
	.st3{font-size:27px;}
	.st4{letter-spacing:1;}
</style>
<title>logo_hori</title>
<g>
	<g>
		<g>
			<path d="M372,45.3L363.2,58h-4.3l6.2-13.7h6.9L372,45.3L372,45.3L372,45.3z"/>
			<path d="M464.6,100h-5.7V78.8h5.7V100z"/>
		</g>
		<g>
			<polygon points="208.2,64.3 208.2,62.6 173.1,62.6 173.1,67.8 199.3,67.8 184.9,88.1 191.5,88.1 			"/>
			<polygon points="178.9,105.9 183.7,99.2 177.2,99.2 170,109.3 170,111 208.3,111 208.3,105.9 			"/>
			<polygon class="st0" points="172.5,93.6 172.4,93.6 172.4,99.2 183.7,99.2 187.6,93.7 187.6,93.6 			"/>
		</g>
		<g>
			<polygon points="237.8,105.9 237.8,87.7 257.2,87.7 257.2,82.6 237.8,82.6 237.8,78.8 232.1,78.8 232.1,111 264,111 264,105.9 
							"/>
			<rect x="232.1" y="62.6" width="31" height="5.1"/>
			<polygon points="258.6,45.3 258.6,44.3 251.8,44.3 245.5,58 249.8,58 			"/>
			<polygon class="st0" points="221.2,73.3 221.2,78.8 232.1,78.8 237.8,78.8 237.8,73.3 			"/>
		</g>
		<g>
			<rect x="300" y="78.8" width="5.7" height="32.2"/>
			<rect x="283" y="62.6" width="39.8" height="5.1"/>
			<polygon class="st0" points="305.7,73.3 294,73.3 294,78.8 305.7,78.8 305.7,78.8 			"/>
		</g>
		<g>
			<polygon points="351.2,105.9 351.2,87.7 370.6,87.7 370.6,82.6 351.2,82.6 351.2,78.8 345.5,78.8 345.5,111 377.4,111 
				377.4,105.9 			"/>
			<rect x="345.5" y="62.6" width="31" height="5.1"/>
			<polygon class="st0" points="334.5,73.3 334.5,78.8 345.5,78.8 351.2,78.8 351.2,73.3 			"/>
		</g>
		<g>
			<polygon points="635.2,105.9 635.2,87.7 654.5,87.7 654.5,82.6 635.2,82.6 635.2,78.8 629.5,78.8 629.5,111 661.3,111 
				661.3,105.9 			"/>
			<rect x="629.5" y="62.6" width="31" height="5.1"/>
			<polygon class="st0" points="618.5,73.3 618.5,78.8 629.5,78.8 635.2,78.8 635.2,73.3 			"/>
		</g>
		<g>
			<rect x="413.4" y="78.8" width="5.7" height="32.2"/>
			<rect x="396.3" y="62.6" width="39.8" height="5.1"/>
			<polygon class="st0" points="419,73.3 407.3,73.3 407.3,78.8 419,78.8 419,78.8 			"/>
		</g>
		<rect x="452.8" y="73.3" class="st0" width="11.7" height="5.5"/>
		<g>
			<path d="M554.9,121L554.9,121c-10.8,0-19.6-4.5-26.4-13.5c3.3-2.2,6.1-5.3,8-8.8c2-3.6,3-7.7,3-11.9c0.1-6.7-2.5-13.1-7.3-17.8
				c-4.7-4.7-11.1-7.4-17.8-7.3c-12.4-0.1-23,9-24.8,21.3h5.9c0.6-3.9,2.4-7.5,5.2-10.4c7.6-7.4,19.8-7.4,27.4,0.1
				c3.7,3.7,5.5,8.5,5.5,14.1s-1.8,10.3-5.5,14.1c-7.6,7.5-19.8,7.5-27.4,0c-2-1.9-3.4-4.3-4.3-6.9h-6.1c3.1,10.7,12.9,18,24,17.8
				c3.2,0,6.5-0.6,9.5-1.8c7.6,10.6,17.7,15.9,30.3,15.9c2.6,0,5.2-0.2,7.7-0.7v-4.5C559.3,120.9,557,121,554.9,121z"/>
			<path class="st0" d="M495.3,88.6h-12.8v5.5h13.9C495.8,92.3,495.4,90.5,495.3,88.6z"/>
		</g>
		<g>
			<path d="M582.7,111.8h0.3c5.6,0,10.3-1.8,13.9-5.3l0.2-0.2h-14.4V111.8L582.7,111.8z"/>
			<path d="M602.2,91.9L602,62.6h-5.7v29.5c0.1,3-0.6,6-2.1,8.6h6.3C601.7,98,602.2,94.9,602.2,91.9z"/>
			<path d="M569.4,92.2V62.6h-5.7v29.1c-0.1,3.1,0.5,6.1,1.5,9h6.3C570,98.1,569.2,95.2,569.4,92.2z"/>
			<polygon class="st0" points="567.1,106.3 567.1,111.8 582.7,111.8 582.7,111.8 582.7,106.3 			"/>
		</g>
		<rect x="448.9" y="105.5" class="st0" width="15.6" height="5.5"/>
		<rect x="458.8" y="62.6" width="5.7" height="5.1"/>
	</g>
	<g>
		<path class="st0" d="M135,47.1l-17.9-17.9c-0.7-0.7-1.7-0.9-2.6-0.7L90.2,35c-4.2,1-8.8,2-13.5,3.4c-19.2,5.5-33.8,12.8-43.1,21.8
			c-10.3,9.9-11.9,19.4-11.5,25.7c0.5,6.5,3.3,12.6,7.9,17.3c4,4.2,9.2,7,14.9,8.3c0.5,1.7,1.1,3.3,1.8,4.9c0.3,0.6,0.7,1.1,1.3,1.3
			c1.6,0.7,3.2,1.3,4.9,1.8c1.2,5.7,4.1,10.8,8.3,14.9c4.6,4.6,10.8,7.4,17.3,7.9c0.6,0,1.1,0.1,1.7,0.1c6.2,0,14.9-2.2,23.9-11.5
			s16.3-23.9,21.8-43.1c1.4-4.8,2.4-9.3,3.4-13.5l6.5-24.4C136,48.7,135.7,47.7,135,47.1z M45.6,93.5c-1.5,3.8-2.1,8-1.8,12.1
			c-9-2.8-15.7-10.9-16.4-20c-0.5-7.3,2.9-14.8,9.8-21.4c8.7-8.4,22.5-15.3,40.9-20.5c3.1-0.9,6.1-1.6,9-2.3l-5.1,19l-11.6,8.5l0,0
			l0,0L57,79.3l0,0l-0.2,0.2c-1.9,1.8-3.6,3.6-5.4,5.3C48.9,87.3,46.9,90.2,45.6,93.5z M62.7,81.7l9-7l17.8,17.8l-7,9L62.7,81.7z
			 M79,105.6c-1.1,1.2-2.3,2.3-3.4,3.4c-1.6,1.6-3.4,2.9-5.4,3.9l-19-19c1-2,2.4-3.8,3.9-5.4c1.1-1.1,2.2-2.2,3.4-3.4L79,105.6z
			 M92.9,88.2L76.1,71.4l8-5.8l14.6,14.6L92.9,88.2z M51.1,113.1c-1.8-4.2-2.4-8.9-1.7-13.4l15.2,15.2
			C60,115.5,55.3,114.9,51.1,113.1z M120.7,86.1c-5.2,18.4-12.1,32.1-20.5,40.8c-6.7,6.9-14.1,10.3-21.4,9.8
			c-9.2-0.6-17.2-7.4-20.1-16.3c0.8,0.1,1.5,0.1,2.3,0.1c3.3,0,6.7-0.6,9.8-1.9l0,0c3.3-1.3,6.2-3.3,8.7-5.8
			c1.7-1.7,3.4-3.5,5.3-5.4l0,0l0.2-0.2l0,0l10.4-13.3l0,0l0,0l8.5-11.6l19.2-5.1C122.3,80,121.6,83,120.7,86.1z M124.4,71.2
			L103,76.9L87.3,61.2L93,39.8l21.4-5.7l15.7,15.7L124.4,71.2z"/>
		<path d="M93.4,96.4l10.3-14.1l25-6.7l2.5-9.6l-5.2-1.4l-1.7,6.6L103,76.9L87.3,61.2L93,39.8l21.4-5.7l4.1,4.1l3.8-3.8l-6.3-6.3
			l-27.4,7.3l-6.7,25L67.8,70.8l0.1,0.1L57,79.3l-0.2,0.2l0,0c-1.9,1.8-3.6,3.6-5.4,5.3c-2.5,2.5-4.5,5.5-5.8,8.7
			c-1.3,3.1-1.9,6.4-1.9,9.8c0,0.8,0,1.5,0.1,2.3c-9.4-3-16.4-11.8-16.4-21.4c0-5.6,2.2-11.1,6.5-16.4l-4.2-3.4
			c-5,6.2-7.7,13-7.7,19.8c0.1,6.8,2.7,13.4,7.4,18.4c4.1,4.5,9.5,7.5,15.4,8.8c0.5,1.7,1.1,3.3,1.8,4.9c0.3,0.6,0.7,1.1,1.3,1.3
			c1.6,0.7,3.2,1.3,4.9,1.8c1.3,5.9,4.4,11.3,8.8,15.4c5,4.7,11.6,7.3,18.4,7.4c8.4,0,24.4-4.2,37.6-32.3l-4.9-2.3
			C100.8,133,87.1,136.8,80,136.8c-9.7,0-18.5-6.9-21.4-16.4l0.8,0.1l0.3-5.4c-3-0.2-5.9-0.9-8.6-2c-1.3-3.1-2-6.4-2-9.8
			c0-1.2,0.1-2.4,0.3-3.6l3.7,3.7l3.8-3.8L51.3,94c1-2,2.4-3.8,3.9-5.4c1.1-1.1,2.2-2.2,3.4-3.4l16.5,16.5l3.8-3.8L62.7,81.7l9-7
			L93.4,96.4z M84,65.6l14.6,14.6l-5.8,8L76.1,71.4L84,65.6z"/>
	</g>
</g>
<text transform="matrix(1 0 0 1 170 166)" class="st1 st2 st3 st4">Au coeur de votre agilité</text>
<g>
	<path d="M180.6,149.1h-6.8l-3.8,6.9h-1.5l10.8-19.4h0.9l2.6,19.4h-1.4L180.6,149.1z M180.5,147.9l-0.5-3.8
		c-0.3-2.1-0.4-3.9-0.5-5.3c-0.3,0.6-0.5,1.1-0.9,1.7c-0.3,0.6-1.7,3.1-4,7.4H180.5z"/>
	<path d="M190.6,141.7l-2,9.2c-0.2,0.9-0.3,1.6-0.3,2.1c0,0.7,0.2,1.2,0.6,1.5c0.4,0.4,1,0.6,1.8,0.6c1,0,1.9-0.3,2.7-0.9
		c0.9-0.6,1.6-1.4,2.2-2.5c0.6-1.1,1-2.3,1.3-3.7l1.4-6.4h1.3l-3,14.3h-1.1l0.4-2.7h-0.1c-1.5,1.9-3.2,2.9-5.3,2.9
		c-1.2,0-2-0.3-2.6-0.8c-0.6-0.5-0.9-1.3-0.9-2.4c0-0.5,0.1-1.3,0.3-2.2l2-9.1H190.6z"/>
	<path d="M217.2,156.3c-1.5,0-2.7-0.5-3.6-1.5c-0.9-1-1.3-2.3-1.3-4c0-1.7,0.3-3.3,1-4.8c0.6-1.5,1.5-2.6,2.6-3.4
		c1.1-0.8,2.4-1.2,3.8-1.2c1.2,0,2.2,0.2,3.2,0.6l-0.4,1.2c-0.9-0.4-1.9-0.6-2.9-0.6c-1.1,0-2.2,0.3-3.1,1c-0.9,0.7-1.6,1.7-2.1,2.9
		s-0.8,2.7-0.8,4.2c0,1.4,0.3,2.5,1,3.2c0.6,0.8,1.6,1.1,2.7,1.1c0.6,0,1.2-0.1,1.7-0.2c0.5-0.1,1.1-0.3,1.7-0.6v1.2
		C219.8,156,218.6,156.3,217.2,156.3z"/>
	<path d="M232.8,141.4c1.6,0,2.8,0.5,3.7,1.4c0.9,1,1.3,2.3,1.3,3.9c0,1.7-0.3,3.4-0.9,4.9c-0.6,1.5-1.5,2.7-2.6,3.4
		s-2.3,1.2-3.8,1.2c-1.6,0-2.8-0.5-3.7-1.4c-0.8-1-1.3-2.3-1.3-4.1c0-1.7,0.3-3.3,1-4.7c0.6-1.5,1.5-2.6,2.6-3.4
		S231.4,141.4,232.8,141.4z M232.7,142.5c-1.1,0-2.1,0.3-2.9,1c-0.9,0.7-1.6,1.7-2.1,3c-0.5,1.3-0.8,2.7-0.8,4.1
		c0,3,1.2,4.5,3.7,4.5c1.1,0,2.1-0.3,3-1c0.9-0.7,1.6-1.7,2.1-3c0.5-1.3,0.8-2.8,0.8-4.4c0-1.4-0.3-2.4-1-3.1
		S233.9,142.5,232.7,142.5z"/>
	<path d="M246.8,156.3c-1.5,0-2.7-0.5-3.6-1.4c-0.9-1-1.3-2.3-1.3-4c0-1.6,0.3-3.1,0.9-4.6s1.5-2.6,2.6-3.5c1.1-0.9,2.3-1.3,3.6-1.3
		c1,0,1.8,0.3,2.4,0.8s0.9,1.3,0.9,2.2c0,1.6-0.7,2.8-2.2,3.6c-1.4,0.8-3.6,1.3-6.4,1.3h-0.4c-0.1,0.4-0.1,0.8-0.1,1.3
		c0,1.5,0.3,2.6,1,3.3c0.7,0.8,1.6,1.1,2.8,1.1c1.2,0,2.4-0.3,3.6-1v1.2C249.6,156,248.2,156.3,246.8,156.3z M249,142.6
		c-1.2,0-2.2,0.5-3.2,1.5c-1,1-1.7,2.4-2.1,4.1h0.6c4.5,0,6.8-1.2,6.8-3.6c0-0.6-0.2-1.1-0.6-1.5C250.1,142.8,249.6,142.6,249,142.6
		z"/>
	<path d="M259.5,141.7l-2,9.2c-0.2,0.9-0.3,1.6-0.3,2.1c0,0.7,0.2,1.2,0.6,1.5c0.4,0.4,1,0.6,1.8,0.6c1,0,1.9-0.3,2.7-0.9
		c0.9-0.6,1.6-1.4,2.2-2.5c0.6-1.1,1-2.3,1.3-3.7l1.4-6.4h1.3l-3,14.3h-1.1l0.4-2.7h-0.1c-1.5,1.9-3.2,2.9-5.3,2.9
		c-1.2,0-2-0.3-2.6-0.8c-0.6-0.5-0.9-1.3-0.9-2.4c0-0.5,0.1-1.3,0.3-2.2l2-9.1H259.5z"/>
	<path d="M280.6,141.4c0.6,0,1.1,0.1,1.6,0.2l-0.3,1.2c-0.4-0.1-0.9-0.2-1.5-0.2c-0.8,0-1.6,0.3-2.4,0.8s-1.4,1.4-2,2.5
		s-1,2.3-1.3,3.7l-1.3,6.3h-1.3l3-14.3h1.1l-0.4,2.7h0.1c0.6-0.8,1.2-1.4,1.6-1.8c0.4-0.4,0.9-0.6,1.4-0.8S280,141.4,280.6,141.4z"
		/>
	<path d="M300,141.4c2,0,3.2,1,3.7,2.9h0.1c0.1-0.6,0.7-3.5,1.9-8.8h1.3l-4.4,20.5h-1.1l0.6-3.6H302c-1.5,2.6-3.4,3.9-5.6,3.9
		c-2.5,0-3.7-1.6-3.7-4.9c0-1.7,0.3-3.3,0.9-4.9s1.5-2.8,2.6-3.7C297.4,141.9,298.6,141.4,300,141.4z M296.7,155.1
		c0.8,0,1.6-0.3,2.4-0.8c0.8-0.5,1.5-1.3,2.1-2.2c0.6-0.9,1.1-1.9,1.4-3c0.3-1.1,0.5-2,0.5-2.8c0-1.1-0.3-2-0.8-2.7
		c-0.5-0.7-1.3-1-2.2-1c-1.1,0-2.1,0.4-3,1.1s-1.6,1.8-2.2,3.2c-0.6,1.4-0.8,2.8-0.8,4.3C294.1,153.8,295,155.1,296.7,155.1z"/>
	<path d="M314.1,156.3c-1.5,0-2.7-0.5-3.6-1.4c-0.9-1-1.3-2.3-1.3-4c0-1.6,0.3-3.1,0.9-4.6s1.5-2.6,2.6-3.5c1.1-0.9,2.3-1.3,3.6-1.3
		c1,0,1.8,0.3,2.4,0.8s0.9,1.3,0.9,2.2c0,1.6-0.7,2.8-2.2,3.6c-1.4,0.8-3.6,1.3-6.4,1.3h-0.4c-0.1,0.4-0.1,0.8-0.1,1.3
		c0,1.5,0.3,2.6,1,3.3c0.7,0.8,1.6,1.1,2.8,1.1c1.2,0,2.4-0.3,3.6-1v1.2C316.8,156,315.5,156.3,314.1,156.3z M316.2,142.6
		c-1.2,0-2.2,0.5-3.2,1.5c-1,1-1.7,2.4-2.1,4.1h0.6c4.5,0,6.8-1.2,6.8-3.6c0-0.6-0.2-1.1-0.6-1.5
		C317.4,142.8,316.9,142.6,316.2,142.6z"/>
	<path d="M334.1,156l-2.3-14.3h1.3l1.4,9.7c0.2,1.5,0.4,2.6,0.4,3.3h0.1c0.4-1,1-2.1,1.7-3.4l5.4-9.7h1.3l-7.9,14.3H334.1z"/>
	<path d="M352.4,141.4c1.6,0,2.8,0.5,3.7,1.4c0.9,1,1.3,2.3,1.3,3.9c0,1.7-0.3,3.4-0.9,4.9c-0.6,1.5-1.5,2.7-2.6,3.4
		s-2.3,1.2-3.8,1.2c-1.6,0-2.8-0.5-3.7-1.4c-0.8-1-1.3-2.3-1.3-4.1c0-1.7,0.3-3.3,1-4.7c0.6-1.5,1.5-2.6,2.6-3.4
		C349.8,141.8,351,141.4,352.4,141.4z M352.3,142.5c-1.1,0-2.1,0.3-2.9,1c-0.9,0.7-1.6,1.7-2.1,3c-0.5,1.3-0.8,2.7-0.8,4.1
		c0,3,1.2,4.5,3.7,4.5c1.1,0,2.1-0.3,3-1c0.9-0.7,1.6-1.7,2.1-3c0.5-1.3,0.8-2.8,0.8-4.4c0-1.4-0.3-2.4-1-3.1
		C354.4,142.9,353.5,142.5,352.3,142.5z"/>
	<path d="M369.4,141.7l-0.2,1.1h-3.7l-1.8,8.4c-0.2,0.9-0.3,1.6-0.3,2.2c0,1.2,0.6,1.8,1.7,1.8c0.6,0,1.3-0.1,2-0.3v1.1
		c-0.9,0.2-1.6,0.4-2.2,0.4c-0.9,0-1.5-0.2-2-0.7c-0.5-0.5-0.7-1.2-0.7-2.1c0-0.6,0.1-1.5,0.4-2.7l1.7-8h-2.4l0.2-0.9l2.4-0.2
		l1.3-3.3h0.7l-0.7,3.4H369.4z"/>
	<path d="M379.4,141.4c0.6,0,1.1,0.1,1.6,0.2l-0.3,1.2c-0.4-0.1-0.9-0.2-1.5-0.2c-0.8,0-1.6,0.3-2.4,0.8s-1.4,1.4-2,2.5
		s-1,2.3-1.3,3.7l-1.3,6.3H371l3-14.3h1.1l-0.4,2.7h0.1c0.6-0.8,1.2-1.4,1.6-1.8c0.4-0.4,0.9-0.6,1.4-0.8
		C378.3,141.5,378.8,141.4,379.4,141.4z"/>
	<path d="M387.7,156.3c-1.5,0-2.7-0.5-3.6-1.4c-0.9-1-1.3-2.3-1.3-4c0-1.6,0.3-3.1,0.9-4.6c0.6-1.5,1.5-2.6,2.6-3.5
		c1.1-0.9,2.3-1.3,3.6-1.3c1,0,1.8,0.3,2.4,0.8c0.6,0.5,0.9,1.3,0.9,2.2c0,1.6-0.7,2.8-2.2,3.6c-1.4,0.8-3.6,1.3-6.4,1.3h-0.4
		c-0.1,0.4-0.1,0.8-0.1,1.3c0,1.5,0.3,2.6,1,3.3c0.7,0.8,1.6,1.1,2.8,1.1c1.2,0,2.4-0.3,3.6-1v1.2
		C390.4,156,389.1,156.3,387.7,156.3z M389.9,142.6c-1.2,0-2.2,0.5-3.2,1.5c-1,1-1.7,2.4-2.1,4.1h0.6c4.5,0,6.8-1.2,6.8-3.6
		c0-0.6-0.2-1.1-0.6-1.5C391,142.8,390.5,142.6,389.9,142.6z"/>
	<path d="M412.7,141.4c2,0,3.3,1,3.7,2.9h0.1l0.8-2.7h1.1l-3,14.3h-1.1l0.6-3.6h-0.1c-0.7,1.2-1.6,2.2-2.5,2.9s-1.9,1-3.1,1
		c-2.5,0-3.7-1.6-3.7-4.9c0-1.7,0.3-3.4,1-5c0.7-1.6,1.5-2.8,2.6-3.6C410.1,141.9,411.3,141.4,412.7,141.4z M409.4,155.1
		c0.8,0,1.6-0.3,2.3-0.8c0.8-0.5,1.5-1.3,2.1-2.2c0.6-0.9,1.1-1.9,1.4-3s0.5-2,0.5-2.8c0-0.7-0.1-1.3-0.3-1.9c-0.2-0.5-0.6-1-1-1.3
		c-0.4-0.3-1-0.5-1.7-0.5c-1.1,0-2.1,0.4-3,1.1c-0.9,0.7-1.6,1.8-2.2,3.2c-0.6,1.4-0.8,2.9-0.8,4.3c0,1.3,0.2,2.3,0.7,2.9
		C407.8,154.8,408.5,155.1,409.4,155.1z"/>
	<path d="M435.1,141.7l-0.2,1l-3.2,0.1c0.2,0.2,0.4,0.6,0.6,1.1c0.2,0.5,0.2,1,0.2,1.5c0,1-0.2,1.9-0.7,2.7c-0.5,0.9-1.1,1.5-2,1.9
		c-0.8,0.4-1.8,0.6-2.8,0.6c-0.6,0-0.9,0-1-0.1c-0.7,0.3-1.2,0.6-1.6,1s-0.6,0.7-0.6,1.1s0.1,0.6,0.4,0.9c0.3,0.2,0.8,0.3,1.5,0.4
		l1.6,0.1c3,0.3,4.6,1.4,4.6,3.5c0,1-0.3,1.9-0.9,2.6c-0.6,0.8-1.4,1.3-2.5,1.7s-2.4,0.6-3.8,0.6c-1.6,0-2.9-0.3-3.8-0.9
		c-0.9-0.6-1.4-1.5-1.4-2.7c0-2.1,1.4-3.5,4.1-4.4c-0.7-0.4-1-0.9-1-1.6c0-1.1,0.8-2,2.5-2.7c-0.6-0.3-1.1-0.8-1.5-1.4
		c-0.3-0.6-0.5-1.3-0.5-2.1c0-1,0.2-1.9,0.7-2.7c0.5-0.8,1.1-1.5,2-1.9c0.8-0.5,1.7-0.7,2.7-0.7c0.6,0,1.3,0.1,1.9,0.3H435.1z
		 M420.8,158.7c0,0.9,0.4,1.5,1.1,2c0.7,0.4,1.7,0.6,3,0.6c1.8,0,3.2-0.3,4.2-1c1-0.7,1.5-1.6,1.5-2.7c0-0.7-0.3-1.3-0.8-1.7
		c-0.5-0.4-1.5-0.7-2.9-0.8l-2.1-0.2c-1.4,0.4-2.4,0.9-3,1.5C421.1,157.1,420.8,157.9,420.8,158.7z M424.3,146.6
		c0,1,0.3,1.7,0.8,2.2c0.5,0.5,1.2,0.8,2.2,0.8c0.8,0,1.5-0.2,2-0.5s1-0.8,1.4-1.5c0.3-0.7,0.5-1.4,0.5-2.2c0-0.9-0.2-1.6-0.7-2.1
		c-0.5-0.5-1.2-0.8-2.1-0.8c-0.8,0-1.5,0.2-2.1,0.6s-1.1,0.9-1.4,1.5S424.3,145.9,424.3,146.6z"/>
	<path d="M438.2,156h-1.3l3-14.3h1.3L438.2,156z M440.5,138c0-0.5,0.1-0.9,0.3-1.2s0.5-0.4,0.8-0.4c0.5,0,0.8,0.3,0.8,0.9
		c0,0.5-0.1,0.9-0.3,1.2c-0.2,0.3-0.4,0.4-0.8,0.4c-0.3,0-0.5-0.1-0.6-0.3C440.6,138.5,440.5,138.3,440.5,138z"/>
	<path d="M446,156h-1.2l4.4-20.5h1.2L446,156z"/>
	<path d="M454,156h-1.3l3-14.3h1.3L454,156z M456.3,138c0-0.5,0.1-0.9,0.3-1.2s0.5-0.4,0.8-0.4c0.5,0,0.8,0.3,0.8,0.9
		c0,0.5-0.1,0.9-0.3,1.2c-0.2,0.3-0.4,0.4-0.8,0.4c-0.3,0-0.5-0.1-0.6-0.3C456.4,138.5,456.3,138.3,456.3,138z"/>
	<path d="M468.7,141.7l-0.2,1.1h-3.7l-1.8,8.4c-0.2,0.9-0.3,1.6-0.3,2.2c0,1.2,0.6,1.8,1.7,1.8c0.6,0,1.3-0.1,2-0.3v1.1
		c-0.9,0.2-1.6,0.4-2.2,0.4c-0.9,0-1.5-0.2-2-0.7c-0.5-0.5-0.7-1.2-0.7-2.1c0-0.6,0.1-1.5,0.4-2.7l1.7-8h-2.4l0.2-0.9l2.4-0.2
		l1.3-3.3h0.7l-0.7,3.4H468.7z"/>
	<path d="M475.5,156.3c-1.5,0-2.7-0.5-3.6-1.4c-0.9-1-1.3-2.3-1.3-4c0-1.6,0.3-3.1,0.9-4.6c0.6-1.5,1.5-2.6,2.6-3.5
		c1.1-0.9,2.3-1.3,3.6-1.3c1,0,1.8,0.3,2.4,0.8c0.6,0.5,0.9,1.3,0.9,2.2c0,1.6-0.7,2.8-2.2,3.6c-1.4,0.8-3.6,1.3-6.4,1.3h-0.4
		c-0.1,0.4-0.1,0.8-0.1,1.3c0,1.5,0.3,2.6,1,3.3c0.7,0.8,1.6,1.1,2.8,1.1c1.2,0,2.4-0.3,3.6-1v1.2
		C478.2,156,476.9,156.3,475.5,156.3z M477.6,142.6c-1.2,0-2.2,0.5-3.2,1.5c-1,1-1.7,2.4-2.1,4.1h0.6c4.5,0,6.8-1.2,6.8-3.6
		c0-0.6-0.2-1.1-0.6-1.5C478.8,142.8,478.3,142.6,477.6,142.6z M476.3,139.4c0.6-0.4,1.2-1.1,2-1.9c0.7-0.8,1.3-1.5,1.7-2.2h1.8v0.3
		c-0.4,0.6-1.1,1.3-2.1,2.1c-0.9,0.8-1.8,1.5-2.5,1.9h-0.9V139.4z"/>
</g>
</svg>
