<?xml version="1.0" encoding="utf-8"?>
<!-- Generator: Adobe Illustrator 19.2.0, SVG Export Plug-In . SVG Version: 6.00 Build 0)  -->
<svg version="1.1" id="wingR" xmlns="http://www.w3.org/2000/svg" xmlns:xlink="http://www.w3.org/1999/xlink" x="0px" y="0px"
	 viewBox="0 0 500 500" style="enable-background:new 0 0 500 500;" xml:space="preserve">
<style type="text/css">
	.st0{fill:none;stroke:#17FFB5;stroke-width:20.07;stroke-linecap:round;stroke-linejoin:round;}
	.st1{fill:none;stroke:#000000;stroke-width:20.07;stroke-linejoin:round;stroke-dasharray:210,250;}
	.st2{fill:none;stroke:#000000;stroke-width:20.07;stroke-linejoin:round;stroke-dasharray:320,200;}
	.st3{fill:none;stroke:#000000;stroke-width:20.07;stroke-linejoin:round;stroke-dasharray:100,250;}
	.st4{fill:none;stroke:#000000;stroke-width:20.07;stroke-linejoin:round;stroke-dasharray:160,250;}
	.st5{fill:none;stroke:#000000;stroke-width:20.07;stroke-linejoin:round;stroke-dasharray:120,250;}
	.st6{fill:none;stroke:#000000;stroke-width:20.07;stroke-miterlimit:10;}
	.st7{fill:none;stroke:#000000;stroke-width:20.07;stroke-miterlimit:10;stroke-dasharray:220,130;}
	.st8{display:none;}
	.st9{display:inline;}
	.st10{fill:#FFFFFF;}
	.st11{fill:#00FAB4;}
</style>
<path class="st0" d="M-561.9,367.1c13.9,95.4,175.7,163.1,254.4-113.5c5-17.6,8.9-34.6,12.5-50.2"/>
<path class="st0" d="M-592.2,336.8c-95.4-13.9-163.1-175.7,113.5-254.4c17.6-5,34.6-8.9,50.2-12.4"/>
<g>
	<path class="st0" d="M-548.8,233.7c-6.6,6.4-13.2,12.9-19.9,19.6c-8.4,8.3-15.1,18.3-19.7,29.2l80.8,80.8
		c11-4.5,20.9-11.2,29.2-19.7c6.7-6.7,13.2-13.3,19.6-19.9"/>
	<polyline class="st0" points="-499.1,195 -548.8,233.7 -458.7,323.7 -420,274.1 	"/>
	<path class="st0" d="M-588.3,282.5c-10.1,24.7-7.5,52.1,3.8,77c24.9,11.2,52.4,13.8,77,3.8"/>
	<polyline class="st0" points="-452.9,161.2 -499.1,195 -420,274.1 -386.2,227.9 	"/>
</g>
<polygon class="st0" points="-270.5,112.3 -337.3,45.5 -428.5,69.9 -452.9,161.2 -386.2,227.9 -295,203.5 "/>
<path class="st1" d="M-592.2,336.8c-95.4-13.9-163.1-175.7,113.5-254.4c17.6-5,34.6-8.9,50.2-12.4"/>
<path class="st2" d="M-561.9,367.1c13.9,95.4,175.7,163.1,254.4-113.5c5-17.6,8.9-34.6,12.5-50.2"/>
<g>
	<path class="st3" d="M-548.8,233.7c-6.6,6.4-13.2,12.9-19.9,19.6c-8.4,8.3-15.1,18.3-19.7,29.2l80.8,80.8
		c11-4.5,20.9-11.2,29.2-19.7c6.7-6.7,13.2-13.3,19.6-19.9"/>
	<polyline class="st4" points="-499.1,195 -548.8,233.7 -458.7,323.7 -420,274.1 	"/>
	<path class="st5" d="M-588.3,282.5c-10.1,24.7-7.5,52.1,3.8,77c24.9,11.2,52.4,13.8,77,3.8"/>
	<polyline class="st6" points="-452.9,161.2 -499.1,195 -420,274.1 -386.2,227.9 	"/>
</g>
<polygon class="st7" points="-452.9,161.2 -386.2,227.9 -295,203.5 -270.5,112.3 -337.3,45.5 -428.5,69.9 "/>
<g id="blanc" class="st8">
	<g class="st9">
		<path class="st10" d="M259.2,460.4c-2.2,0-4.4-0.1-6.5-0.2c-23.8-1.6-46.7-12-64.5-29.4c-17.3-16.9-28.7-39-32-62.2
			c-0.8-5.5,3-10.6,8.5-11.4s10.6,3,11.4,8.5c5.8,39.9,39.4,72,78,74.5c27.5,1.8,55.2-10.9,80.1-36.7
			c31.3-32.5,57.1-83.8,76.7-152.6c4.8-17,8.5-33.1,12.1-48.7l0.2-1.1c1.2-5.4,6.6-8.8,12-7.5c5.4,1.2,8.8,6.6,7.5,12l-0.2,1.1
			c-3.5,15.1-7.4,32.2-12.4,49.6c-20.5,72-47.9,126.1-81.5,161C315,452.2,282.4,460.4,259.2,460.4z"/>
	</g>
	<g class="st9">
		<path class="st10" d="M135.8,346.8c-0.5,0-1,0-1.5-0.1c-23.3-3.4-45.4-14.8-62.2-32c-17.4-17.8-27.9-40.8-29.4-64.5
			c-1.6-23.4,4.6-59,42.8-95.9c34.9-33.6,89.1-61.1,161-81.5c17.8-5.1,34.8-9,50.7-12.5c5.4-1.2,10.8,2.2,12,7.6s-2.2,10.8-7.6,12
			c-15.6,3.5-32.3,7.3-49.7,12.3c-68.8,19.6-120.1,45.4-152.6,76.7c-25.9,24.9-38.6,52.6-36.7,80.1c2.6,38.7,34.6,72.2,74.5,78
			c5.5,0.8,9.3,5.9,8.5,11.4C145,343.2,140.7,346.8,135.8,346.8z"/>
	</g>
	<g class="st9">
		<g>
			<path class="st10" d="M220.4,373.3c-2.6,0-5.2-1-7.1-2.9l-80.8-80.8c-2.9-2.9-3.7-7.2-2.1-11c5.1-12.1,12.7-23.3,21.9-32.4
				c6.7-6.7,13.3-13.2,20-19.7c4-3.9,10.3-3.8,14.2,0.2s3.8,10.3-0.2,14.2c-6.6,6.4-13.1,12.8-19.8,19.5c-5.8,5.8-10.8,12.6-14.7,20
				l70.9,70.9c7.3-3.8,14-8.7,19.9-14.7l0.1-0.1c6.7-6.7,13-13.1,19.5-19.8c3.9-4,10.2-4.1,14.2-0.2s4.1,10.2,0.2,14.2
				c-6.5,6.7-12.9,13.2-19.7,20c-9.3,9.5-20.3,16.9-32.5,21.9C223,373.1,221.7,373.3,220.4,373.3z"/>
		</g>
		<g>
			<path class="st10" d="M269.3,333.7c-2.7,0-5.2-1-7.1-2.9l-90.1-90c-2-2-3.1-4.8-2.9-7.7c0.2-2.9,1.6-5.5,3.9-7.3l49.7-38.7
				c4.4-3.4,10.7-2.6,14.1,1.8c3.4,4.4,2.6,10.7-1.8,14.1l-40.7,31.7l74,74l31.7-40.7c3.4-4.4,9.7-5.1,14.1-1.7s5.1,9.7,1.7,14.1
				L277.2,330c-1.8,2.3-4.4,3.7-7.3,3.8C269.7,333.7,269.5,333.7,269.3,333.7z"/>
		</g>
		<g>
			<path class="st10" d="M187.9,379.6c-15.9,0-32.4-3.6-48.5-10.9c-2.2-1-4-2.8-5-5c-13.1-28.9-14.5-59.1-4-84.9
				c2.1-5.1,8-7.6,13.1-5.5s7.6,8,5.5,13.1c-8,19.7-7.3,42.8,2.1,65.6c22.8,9.3,46,10.1,65.6,2.1c5.1-2.1,11,0.4,13.1,5.5
				s-0.4,11-5.5,13.1C212.9,377.2,200.6,379.6,187.9,379.6z"/>
		</g>
		<g>
			<path class="st10" d="M308,284.1c-2.7,0-5.2-1.1-7.1-2.9l-79.1-79.1c-2.1-2.1-3.1-4.9-2.9-7.9c0.2-2.9,1.7-5.6,4.1-7.3l46.2-33.8
				c4.5-3.3,10.8-2.3,14,2.2c3.3,4.5,2.3,10.8-2.2,14l-36.7,26.9l62.5,62.5l26.9-36.7c3.3-4.5,9.6-5.4,14-2.2
				c4.5,3.3,5.4,9.6,2.2,14L316.1,280c-1.7,2.4-4.4,3.9-7.3,4.1C308.5,284.1,308.3,284.1,308,284.1z"/>
		</g>
	</g>
	<g class="st9">
		<path class="st10" d="M341.8,237.9c-2.6,0-5.2-1-7.1-2.9L268,168.3c-2.5-2.5-3.5-6.2-2.6-9.7l24.4-91.3c0.9-3.5,3.6-6.2,7.1-7.1
			l91.2-24.4c3.5-0.9,7.2,0.1,9.7,2.6l66.8,66.8c2.5,2.5,3.5,6.2,2.6,9.7l-24.5,91.2c-0.9,3.5-3.6,6.2-7.1,7.1l-91.2,24.4
			C343.5,237.8,342.7,237.9,341.8,237.9z M286.3,158.2l58.5,58.5l80-21.4l21.5-80l-58.6-58.6l-80,21.4L286.3,158.2z"/>
	</g>
	<g class="st9">
		<path class="st10" d="M134.4,346.7C110,343.2,87.1,331,70,312.5c-17.8-19.2-27.5-43.7-27.5-68.8c0-25.3,10-50.9,28.8-73.9
			l15.5,12.7c-16.1,19.7-24.2,40.3-24.2,61.2c0,40.6,32.8,77.1,74.7,83.2L134.4,346.7z"/>
	</g>
	<g class="st9">
		<path class="st10" d="M259.2,460.4c-25.1,0-49.6-9.8-68.8-27.5c-18.5-17.1-30.7-40-34.3-64.3l19.9-2.9
			c6.1,41.9,42.7,74.7,83.2,74.7c26.6,0,77.8-14.2,122.3-109.2l18.2,8.5C350.5,444.7,290.6,460.4,259.2,460.4z"/>
	</g>
	<g class="st9">
		<g>
			<path class="st10" d="M158.4,315.5l-25.9-25.9c-2.9-2.9-3.7-7.2-2.1-11c5.1-12.1,12.7-23.3,21.9-32.4c6.7-6.7,13.3-13.2,20-19.7
				l14,14.4c-6.6,6.4-13.1,12.8-19.8,19.5c-5.8,5.8-10.8,12.6-14.7,20l20.9,20.9L158.4,315.5z"/>
		</g>
		<g>
			<path class="st10" d="M240.7,309.4l-68.6-68.6c-2-2-3.1-4.8-2.9-7.7c0.2-2.9,1.6-5.5,3.9-7.3l49.7-38.7l12.3,15.8l-40.7,31.7
				l60.6,60.5L240.7,309.4z"/>
		</g>
		<g>
			<path class="st10" d="M182.2,379.4c-14.3-0.8-28.7-4.4-42.8-10.8c-2.2-1-4-2.8-5-5c-7.3-16.1-11-32.4-11-48.5
				c0-12.8,2.4-25,7-36.5l18.6,7.6c-3.7,9-5.6,18.7-5.6,28.9c0,12.1,2.6,24.4,7.7,36.7c10.7,4.4,21.5,6.9,32.2,7.5L182.2,379.4z"/>
		</g>
		<g>
			<polygon class="st10" points="309.2,289.5 213.5,193.8 269.2,153.1 281,169.3 244.3,196.2 306.8,258.7 333.7,222 349.9,233.8 			
				"/>
		</g>
	</g>
	<g class="st9">
		<polygon class="st10" points="338.8,239.1 263.9,164.2 291.3,61.7 393.7,34.3 417.3,57.9 403.1,72.1 387.7,56.7 307.7,78.1 
			286.3,158.2 344.8,216.7 424.8,195.3 431.4,170.7 450.8,175.9 441.2,211.7 		"/>
	</g>
</g>
<g id="bi">
	<g>
		<path class="st11" d="M259.2,460.4c-2.2,0-4.4-0.1-6.5-0.2c-23.8-1.6-46.7-12-64.5-29.4c-17.3-16.9-28.7-39-32-62.2
			c-0.8-5.5,3-10.6,8.5-11.4s10.6,3,11.4,8.5c5.8,39.9,39.4,72,78,74.5c27.5,1.8,55.2-10.9,80.1-36.7
			c31.3-32.5,57.1-83.8,76.7-152.6c4.8-17,8.5-33.1,12.1-48.7l0.2-1.1c1.2-5.4,6.6-8.8,12-7.5c5.4,1.2,8.8,6.6,7.5,12l-0.2,1.1
			c-3.5,15.1-7.4,32.2-12.4,49.6c-20.5,72-47.9,126.1-81.5,161C315,452.2,282.4,460.4,259.2,460.4z"/>
	</g>
	<g>
		<path class="st11" d="M135.8,346.8c-0.5,0-1,0-1.5-0.1c-23.3-3.4-45.4-14.8-62.2-32c-17.4-17.8-27.9-40.8-29.4-64.5
			c-1.6-23.4,4.6-59,42.8-95.9c34.9-33.6,89.1-61.1,161-81.5c17.8-5.1,34.8-9,50.7-12.5c5.4-1.2,10.8,2.2,12,7.6s-2.2,10.8-7.6,12
			c-15.6,3.5-32.3,7.3-49.7,12.3c-68.8,19.6-120.1,45.4-152.6,76.7c-25.9,24.9-38.6,52.6-36.7,80.1c2.6,38.7,34.6,72.2,74.5,78
			c5.5,0.8,9.3,5.9,8.5,11.4C145,343.2,140.7,346.8,135.8,346.8z"/>
	</g>
	<g>
		<g>
			<path class="st11" d="M220.4,373.3c-2.6,0-5.2-1-7.1-2.9l-80.8-80.8c-2.9-2.9-3.7-7.2-2.1-11c5.1-12.1,12.7-23.3,21.9-32.4
				c6.7-6.7,13.3-13.2,20-19.7c4-3.9,10.3-3.8,14.2,0.2s3.8,10.3-0.2,14.2c-6.6,6.4-13.1,12.8-19.8,19.5c-5.8,5.8-10.8,12.6-14.7,20
				l70.9,70.9c7.3-3.8,14-8.7,19.9-14.7l0.1-0.1c6.7-6.7,13-13.1,19.5-19.8c3.9-4,10.2-4.1,14.2-0.2s4.1,10.2,0.2,14.2
				c-6.5,6.7-12.9,13.2-19.7,20c-9.3,9.5-20.3,16.9-32.5,21.9C223,373.1,221.7,373.3,220.4,373.3z"/>
		</g>
		<g>
			<path class="st11" d="M269.3,333.7c-2.7,0-5.2-1-7.1-2.9l-90.1-90c-2-2-3.1-4.8-2.9-7.7c0.2-2.9,1.6-5.5,3.9-7.3l49.7-38.7
				c4.4-3.4,10.7-2.6,14.1,1.8c3.4,4.4,2.6,10.7-1.8,14.1l-40.7,31.7l74,74l31.7-40.7c3.4-4.4,9.7-5.1,14.1-1.7s5.1,9.7,1.7,14.1
				L277.2,330c-1.8,2.3-4.4,3.7-7.3,3.8C269.7,333.7,269.5,333.7,269.3,333.7z"/>
		</g>
		<g>
			<path class="st11" d="M187.9,379.6c-15.9,0-32.4-3.6-48.5-10.9c-2.2-1-4-2.8-5-5c-13.1-28.9-14.5-59.1-4-84.9
				c2.1-5.1,8-7.6,13.1-5.5s7.6,8,5.5,13.1c-8,19.7-7.3,42.8,2.1,65.6c22.8,9.3,46,10.1,65.6,2.1c5.1-2.1,11,0.4,13.1,5.5
				s-0.4,11-5.5,13.1C212.9,377.2,200.6,379.6,187.9,379.6z"/>
		</g>
		<g>
			<path class="st10" d="M308,284.1c-2.7,0-5.2-1.1-7.1-2.9l-79.1-79.1c-2.1-2.1-3.1-4.9-2.9-7.9c0.2-2.9,1.7-5.6,4.1-7.3l46.2-33.8
				c4.5-3.3,10.8-2.3,14,2.2c3.3,4.5,2.3,10.8-2.2,14l-36.7,26.9l62.5,62.5l26.9-36.7c3.3-4.5,9.6-5.4,14-2.2
				c4.5,3.3,5.4,9.6,2.2,14L316.1,280c-1.7,2.4-4.4,3.9-7.3,4.1C308.5,284.1,308.3,284.1,308,284.1z"/>
		</g>
	</g>
	<g>
		<path class="st11" d="M341.8,237.9c-2.6,0-5.2-1-7.1-2.9L268,168.3c-2.5-2.5-3.5-6.2-2.6-9.7l24.4-91.3c0.9-3.5,3.6-6.2,7.1-7.1
			l91.2-24.4c3.5-0.9,7.2,0.1,9.7,2.6l66.8,66.8c2.5,2.5,3.5,6.2,2.6,9.7l-24.5,91.2c-0.9,3.5-3.6,6.2-7.1,7.1l-91.2,24.4
			C343.5,237.8,342.7,237.9,341.8,237.9z M286.3,158.2l58.5,58.5l80-21.4l21.5-80l-58.6-58.6l-80,21.4L286.3,158.2z"/>
	</g>
	<g>
		<path d="M134.4,346.7C110,343.2,87.1,331,70,312.5c-17.8-19.2-27.5-43.7-27.5-68.8c0-25.3,10-50.9,28.8-73.9l15.5,12.7
			c-16.1,19.7-24.2,40.3-24.2,61.2c0,40.6,32.8,77.1,74.7,83.2L134.4,346.7z"/>
	</g>
	<g>
		<path d="M259.2,460.4c-25.1,0-49.6-9.8-68.8-27.5c-18.5-17.1-30.7-40-34.3-64.3l19.9-2.9c6.1,41.9,42.7,74.7,83.2,74.7
			c26.6,0,77.8-14.2,122.3-109.2l18.2,8.5C350.5,444.7,290.6,460.4,259.2,460.4z"/>
	</g>
	<g>
		<g>
			<path d="M158.4,315.5l-25.9-25.9c-2.9-2.9-3.7-7.2-2.1-11c5.1-12.1,12.7-23.3,21.9-32.4c6.7-6.7,13.3-13.2,20-19.7l14,14.4
				c-6.6,6.4-13.1,12.8-19.8,19.5c-5.8,5.8-10.8,12.6-14.7,20l20.9,20.9L158.4,315.5z"/>
		</g>
		<g>
			<path d="M240.7,309.4l-68.6-68.6c-2-2-3.1-4.8-2.9-7.7c0.2-2.9,1.6-5.5,3.9-7.3l49.7-38.7l12.3,15.8l-40.7,31.7l60.6,60.5
				L240.7,309.4z"/>
		</g>
		<g>
			<path d="M182.2,379.4c-14.3-0.8-28.7-4.4-42.8-10.8c-2.2-1-4-2.8-5-5c-7.3-16.1-11-32.4-11-48.5c0-12.8,2.4-25,7-36.5l18.6,7.6
				c-3.7,9-5.6,18.7-5.6,28.9c0,12.1,2.6,24.4,7.7,36.7c10.7,4.4,21.5,6.9,32.2,7.5L182.2,379.4z"/>
		</g>
		<g>
			<polygon points="309.2,289.5 213.5,193.8 269.2,153.1 281,169.3 244.3,196.2 306.8,258.7 333.7,222 349.9,233.8 			"/>
		</g>
	</g>
	<g>
		<polygon points="338.8,239.1 263.9,164.2 291.3,61.7 393.7,34.3 417.3,57.9 403.1,72.1 387.7,56.7 307.7,78.1 286.3,158.2 
			344.8,216.7 424.8,195.3 431.4,170.7 450.8,175.9 441.2,211.7 		"/>
	</g>
</g>
</svg>
