<?xml version="1.0" encoding="utf-8"?>
<!-- Generator: Adobe Illustrator 19.2.0, SVG Export Plug-In . SVG Version: 6.00 Build 0)  -->
<svg version="1.1" id="Layer_1" xmlns="http://www.w3.org/2000/svg" xmlns:xlink="http://www.w3.org/1999/xlink" x="0px" y="0px"
	 viewBox="0 0 694.9 148.2" style="enable-background:new 0 0 694.9 148.2;" xml:space="preserve">
<style type="text/css">
	.st0{fill:#17FFB5;}
</style>
<title>logo_hori</title>
<g>
	<g>
		<g>
			<path d="M368,34.3L359.2,47h-4.3l6.2-13.7h6.9L368,34.3L368,34.3L368,34.3z"/>
			<path d="M460.6,89h-5.7V67.8h5.7V89z"/>
		</g>
		<g>
			<polygon points="204.2,53.3 204.2,51.6 169.1,51.6 169.1,56.8 195.3,56.8 180.9,77.1 187.5,77.1 			"/>
			<polygon points="174.9,94.9 179.7,88.2 173.2,88.2 166,98.3 166,100 204.3,100 204.3,94.9 			"/>
			<polygon class="st0" points="168.5,82.6 168.4,82.6 168.4,88.2 179.7,88.2 183.6,82.7 183.6,82.6 			"/>
		</g>
		<g>
			<polygon points="233.8,94.9 233.8,76.7 253.2,76.7 253.2,71.6 233.8,71.6 233.8,67.8 228.1,67.8 228.1,100 260,100 260,94.9 			
				"/>
			<rect x="228.1" y="51.6" width="31" height="5.1"/>
			<polygon points="254.6,34.3 254.6,33.3 247.8,33.3 241.5,47 245.8,47 			"/>
			<polygon class="st0" points="217.2,62.3 217.2,67.8 228.1,67.8 233.8,67.8 233.8,62.3 			"/>
		</g>
		<g>
			<rect x="296" y="67.8" width="5.7" height="32.2"/>
			<rect x="279" y="51.6" width="39.8" height="5.1"/>
			<polygon class="st0" points="301.7,62.3 290,62.3 290,67.8 301.7,67.8 301.7,67.8 			"/>
		</g>
		<g>
			<polygon points="347.2,94.9 347.2,76.7 366.6,76.7 366.6,71.6 347.2,71.6 347.2,67.8 341.5,67.8 341.5,100 373.4,100 373.4,94.9 
							"/>
			<rect x="341.5" y="51.6" width="31" height="5.1"/>
			<polygon class="st0" points="330.5,62.3 330.5,67.8 341.5,67.8 347.2,67.8 347.2,62.3 			"/>
		</g>
		<g>
			<polygon points="631.2,94.9 631.2,76.7 650.5,76.7 650.5,71.6 631.2,71.6 631.2,67.8 625.5,67.8 625.5,100 657.3,100 657.3,94.9 
							"/>
			<rect x="625.5" y="51.6" width="31" height="5.1"/>
			<polygon class="st0" points="614.5,62.3 614.5,67.8 625.5,67.8 631.2,67.8 631.2,62.3 			"/>
		</g>
		<g>
			<rect x="409.4" y="67.8" width="5.7" height="32.2"/>
			<rect x="392.3" y="51.6" width="39.8" height="5.1"/>
			<polygon class="st0" points="415,62.3 403.3,62.3 403.3,67.8 415,67.8 415,67.8 			"/>
		</g>
		<rect x="448.8" y="62.3" class="st0" width="11.7" height="5.5"/>
		<g>
			<path d="M550.9,110L550.9,110c-10.8,0-19.6-4.5-26.4-13.5c3.3-2.2,6.1-5.3,8-8.8c2-3.6,3-7.7,3-11.9c0.1-6.7-2.5-13.1-7.3-17.8
				c-4.7-4.7-11.1-7.4-17.8-7.3c-12.4-0.1-23,9-24.8,21.3h5.9c0.6-3.9,2.4-7.5,5.2-10.4c7.6-7.4,19.8-7.4,27.4,0.1
				c3.7,3.7,5.5,8.5,5.5,14.1s-1.8,10.3-5.5,14.1c-7.6,7.5-19.8,7.5-27.4,0c-2-1.9-3.4-4.3-4.3-6.9h-6.1c3.1,10.7,12.9,18,24,17.8
				c3.2,0,6.5-0.6,9.5-1.8c7.6,10.6,17.7,15.9,30.3,15.9c2.6,0,5.2-0.2,7.7-0.7v-4.5C555.3,109.9,553,110,550.9,110z"/>
			<path class="st0" d="M491.3,77.6h-12.8v5.5h13.9C491.8,81.3,491.4,79.5,491.3,77.6z"/>
		</g>
		<g>
			<path d="M578.7,100.8h0.3c5.6,0,10.3-1.8,13.9-5.3l0.2-0.2h-14.4V100.8L578.7,100.8z"/>
			<path d="M598.2,80.9L598,51.6h-5.7v29.5c0.1,3-0.6,6-2.1,8.6h6.3C597.7,87,598.2,83.9,598.2,80.9z"/>
			<path d="M565.4,81.2V51.6h-5.7v29.1c-0.1,3.1,0.5,6.1,1.5,9h6.3C566,87.1,565.2,84.2,565.4,81.2z"/>
			<polygon class="st0" points="563.1,95.3 563.1,100.8 578.7,100.8 578.7,100.8 578.7,95.3 			"/>
		</g>
		<rect x="444.9" y="94.5" class="st0" width="15.6" height="5.5"/>
		<rect x="454.8" y="51.6" width="5.7" height="5.1"/>
	</g>
	<g>
		<path class="st0" d="M131,36.1l-17.9-17.9c-0.7-0.7-1.7-0.9-2.6-0.7L86.2,24c-4.2,1-8.8,2-13.5,3.4c-19.2,5.5-33.8,12.8-43.1,21.8
			c-10.3,9.9-11.9,19.4-11.5,25.7c0.5,6.5,3.3,12.6,7.9,17.3c4,4.2,9.2,7,14.9,8.3c0.5,1.7,1.1,3.3,1.8,4.9c0.3,0.6,0.7,1.1,1.3,1.3
			c1.6,0.7,3.2,1.3,4.9,1.8c1.2,5.7,4.1,10.8,8.3,14.9c4.6,4.6,10.8,7.4,17.3,7.9c0.6,0,1.1,0.1,1.7,0.1c6.2,0,14.9-2.2,23.9-11.5
			s16.3-23.9,21.8-43.1c1.4-4.8,2.4-9.3,3.4-13.5l6.5-24.4C132,37.7,131.7,36.7,131,36.1z M41.6,82.5c-1.5,3.8-2.1,8-1.8,12.1
			c-9-2.8-15.7-10.9-16.4-20c-0.5-7.3,2.9-14.8,9.8-21.4c8.7-8.4,22.5-15.3,40.9-20.5c3.1-0.9,6.1-1.6,9-2.3L78,49.4l-11.6,8.5l0,0
			l0,0L53,68.3l0,0l-0.2,0.2c-1.9,1.8-3.6,3.6-5.4,5.3C44.9,76.3,42.9,79.2,41.6,82.5z M58.7,70.7l9-7l17.8,17.8l-7,9L58.7,70.7z
			 M75,94.6c-1.1,1.2-2.3,2.3-3.4,3.4c-1.6,1.6-3.4,2.9-5.4,3.9l-19-19c1-2,2.4-3.8,3.9-5.4c1.1-1.1,2.2-2.2,3.4-3.4L75,94.6z
			 M88.9,77.2L72.1,60.4l8-5.8l14.6,14.6L88.9,77.2z M47.1,102.1c-1.8-4.2-2.4-8.9-1.7-13.4l15.2,15.2
			C56,104.5,51.3,103.9,47.1,102.1z M116.7,75.1c-5.2,18.4-12.1,32.1-20.5,40.8c-6.7,6.9-14.1,10.3-21.4,9.8
			c-9.2-0.6-17.2-7.4-20.1-16.3c0.8,0.1,1.5,0.1,2.3,0.1c3.3,0,6.7-0.6,9.8-1.9l0,0c3.3-1.3,6.2-3.3,8.7-5.8
			c1.7-1.7,3.4-3.5,5.3-5.4l0,0l0.2-0.2l0,0l10.4-13.3l0,0l0,0l8.5-11.6l19.2-5.1C118.3,69,117.6,72,116.7,75.1z M120.4,60.2
			L99,65.9L83.3,50.2L89,28.8l21.4-5.7l15.7,15.7L120.4,60.2z"/>
		<path d="M89.4,85.4l10.3-14.1l25-6.7l2.5-9.6l-5.2-1.4l-1.7,6.6L99,65.9L83.3,50.2L89,28.8l21.4-5.7l4.1,4.1l3.8-3.8l-6.3-6.3
			l-27.4,7.3l-6.7,25L63.8,59.8l0.1,0.1L53,68.3l-0.2,0.2l0,0c-1.9,1.8-3.6,3.6-5.4,5.3c-2.5,2.5-4.5,5.5-5.8,8.7
			c-1.3,3.1-1.9,6.4-1.9,9.8c0,0.8,0,1.5,0.1,2.3c-9.4-3-16.4-11.8-16.4-21.4c0-5.6,2.2-11.1,6.5-16.4l-4.2-3.4
			c-5,6.2-7.7,13-7.7,19.8c0.1,6.8,2.7,13.4,7.4,18.4c4.1,4.5,9.5,7.5,15.4,8.8c0.5,1.7,1.1,3.3,1.8,4.9c0.3,0.6,0.7,1.1,1.3,1.3
			c1.6,0.7,3.2,1.3,4.9,1.8c1.3,5.9,4.4,11.3,8.8,15.4c5,4.7,11.6,7.3,18.4,7.4c8.4,0,24.4-4.2,37.6-32.3l-4.9-2.3
			c-11.9,25.4-25.6,29.2-32.7,29.2c-9.7,0-18.5-6.9-21.4-16.4l0.8,0.1l0.3-5.4c-3-0.2-5.9-0.9-8.6-2c-1.3-3.1-2-6.4-2-9.8
			c0-1.2,0.1-2.4,0.3-3.6l3.7,3.7l3.8-3.8l-5.6-5.6c1-2,2.4-3.8,3.9-5.4c1.1-1.1,2.2-2.2,3.4-3.4l16.5,16.5l3.8-3.8L58.7,70.7l9-7
			L89.4,85.4z M80,54.6l14.6,14.6l-5.8,8L72.1,60.4L80,54.6z"/>
	</g>
</g>
</svg>
